<svg width="103" height="80" viewBox="0 0 103 80" fill="none" xmlns="http://www.w3.org/2000/svg">
    <path d="M100.611 55.6863C99.4876 58.1129 97.7551 59.9437 95.2793 61.0269C94.9076 61.1903 94.5301 61.345 94.1151 61.3682C93.9126 61.1744 93.7637 61.1946 93.6827 61.4781C93.5858 61.4882 93.4875 61.4983 93.3906 61.5085C93.084 61.3349 92.7875 61.2612 92.5243 61.5837C92.3349 61.5894 92.1455 61.5952 91.9575 61.601C91.9155 61.4275 91.7752 61.3465 91.6335 61.3928C91.003 61.6053 90.413 61.413 89.8157 61.2496C89.6942 61.2163 89.58 61.2669 89.4976 61.3696C84.9436 60.4311 81.0969 58.3963 78.6558 54.2589C76.1221 49.9667 74.352 45.3608 73.3021 40.4988C72.877 38.532 72.7063 36.5103 72.5762 34.4944C73.0621 33.9391 73.8618 33.8205 74.3289 33.2623C74.5907 32.9485 74.7194 33.0613 74.9377 33.2753C75.5885 33.9159 76.3709 34.3411 77.2617 34.5277C79.3485 34.9658 81.0477 34.237 82.2784 32.5797C83.4946 30.9427 83.5033 29.1509 82.4722 27.3909C82.2654 27.0366 82.2871 26.8746 82.5835 26.5738C85.3616 23.7625 87.8489 20.7097 90.0905 17.4544C90.2915 17.1623 90.29 16.6793 90.7687 16.6012C91.3096 17.7827 92.212 18.6229 93.3082 19.2795C95.434 20.5535 96.5475 22.4841 97.0016 24.8732C97.3776 26.8501 97.4948 28.8342 97.3849 30.84C97.3212 31.994 97.3299 33.1524 97.2648 34.3064C97.113 36.9601 98.0804 39.3057 99.2316 41.6022C100.232 43.6008 101.262 45.582 101.833 47.7643C102.312 49.5951 102.506 51.4071 101.676 53.2061" fill="#030303"/>
    <path d="M67.8336 19.239C67.5053 19.7437 67.177 20.2484 66.8488 20.7531C66.4771 20.8182 66.3513 20.4378 66.0765 20.3279C66.4569 19.5022 67.0151 18.8022 67.6311 18.1442C67.903 18.1703 68.0982 18.111 68.0953 17.7769C68.0925 17.4674 68.1387 17.1146 67.8481 16.9324C67.5212 16.7284 67.5559 17.2187 67.3405 17.2722C67.271 17.2896 67.2031 17.3112 67.1351 17.33L67.0816 17.3084C67.0454 17.0133 66.9225 16.9078 66.6579 17.1175C66.4901 17.129 66.3455 17.0741 66.2182 16.9685C66.2125 16.876 66.1908 16.782 66.0866 16.7675C65.9782 16.753 65.9362 16.8355 65.9218 16.9324C65.7367 16.9237 65.5501 16.9164 65.365 16.9078C65.2956 16.7487 65.2074 16.6793 65.0642 16.8384C63.4966 16.6706 62.4568 15.7451 61.8509 14.3857C61.1943 12.9135 61.4214 11.4384 62.3758 10.1528C62.9398 9.39358 63.2753 8.62712 63.3881 7.67411C63.54 6.39283 64.1127 5.22578 64.9775 4.2612C66.6116 2.43905 68.4497 0.932168 71.044 0.751399C71.6052 0.712353 72.1576 0.771645 72.6623 1.01315C74.9139 2.08909 77.2422 3.05367 78.8258 5.13034C78.9935 5.35015 79.1743 5.49766 79.4982 5.34003C81.6906 4.27422 83.8049 4.65166 85.8237 5.79557C87.6502 6.83101 88.8201 8.45503 89.6343 10.3567C89.7905 10.8325 89.9105 11.3242 90.1115 11.7797C90.7854 13.3098 90.4933 14.74 89.7109 16.1254C88.1491 18.889 86.016 21.2043 83.8801 23.5167C83.2539 23.5022 82.794 24.017 82.6161 24.3815C82.1852 25.2665 81.6168 25.6425 80.674 25.534H80.6711C80.4252 24.7517 79.7744 24.9787 79.2264 24.9541C79.1815 24.8746 79.1468 24.7329 79.0904 24.7242C78.4252 24.6201 77.7397 24.5883 77.0962 24.7343C76.8836 24.7835 76.3847 24.7965 76.3615 25.2651H76.3586C76.214 25.2434 76.0998 25.2708 76.0709 25.4415C76.013 25.4704 75.9566 25.4993 75.8988 25.5283C74.9472 25.6107 74.0202 26.5811 74.052 27.4603C74.0593 27.5008 74.0463 27.5312 74.0115 27.5529C73.6457 27.5384 73.4316 27.6903 73.4519 28.0793C73.4663 28.3685 73.4172 28.5941 73.0499 28.5608C73.0802 28.4206 73.1091 28.2803 73.1395 28.14C73.3174 28.0229 73.3044 27.8855 73.1815 27.738C74.0332 24.4408 75.2523 21.3156 77.5141 18.6113C75.1077 19.5051 72.7606 19.2867 70.4179 18.6113C70.3513 18.4595 70.2675 18.3857 70.133 18.5506C70.0346 18.5231 69.9377 18.4971 69.8394 18.4696C69.744 18.2802 69.5965 18.2874 69.4316 18.364C68.8083 18.0705 68.454 18.4797 68.0939 18.8745C67.8683 18.8933 67.8003 19.0264 67.8365 19.2332L67.8336 19.239Z" fill="#030303"/>
    <path d="M33.175 77.9092C33.4816 77.9121 33.5611 77.782 33.4715 77.5101C33.4642 77.487 33.4498 77.4638 33.4512 77.4407C33.5785 76.1391 33.1244 75.2816 31.82 74.7653C30.9508 74.4211 30.4317 73.5317 29.9053 72.7465C29.5712 72.2461 29.2473 71.74 28.8265 71.3018C28.0108 70.4529 27.3846 70.4225 26.5502 71.2483C26.2798 71.5158 26.0527 71.8369 25.8517 72.1608C25.6637 72.4645 25.4728 72.4544 25.1966 72.2996C24.8987 72.1319 24.8481 71.9294 25.026 71.6503C25.2964 71.2237 25.5582 70.7942 25.9038 70.4196C27.4179 68.771 29.0708 69.549 29.9964 70.6742C30.3464 71.0993 30.6327 71.5766 30.9349 72.0393C31.9877 73.6518 33.4209 74.6149 35.3891 74.6756C35.7058 74.6858 36.0008 74.7161 36.2524 74.9605C36.7065 75.4002 36.9234 75.1341 36.9784 74.654C37.1404 73.2382 37.4093 71.8585 38.1469 70.6076C38.2741 70.3922 38.2669 70.1651 37.914 70.0653C36.3537 69.6214 35.3616 68.4717 34.5272 67.186C33.6913 65.8946 32.9364 64.5497 32.1511 63.2265C31.6551 62.3921 31.0347 61.6618 30.3507 60.9777C28.3724 58.9994 26.3825 58.6668 23.8546 59.896C23.5697 60.0348 23.3065 60.2937 22.9739 59.8989C22.5314 59.3739 22.5068 59.1021 23.1171 58.6682C24.4388 57.7297 25.9457 57.4824 27.5206 57.6848C30.1092 58.0175 31.8026 59.5995 33.0723 61.7514C34.2061 63.6719 35.0767 65.7558 36.6212 67.4247C37.1129 67.9554 37.6075 68.476 38.1657 68.9373C38.9842 69.6112 39.2922 70.4688 39.0782 71.51C38.6805 73.4392 38.2944 75.3712 37.8779 77.2961C37.7767 77.7646 37.8519 77.8861 38.371 77.9208C41.9372 78.1536 45.4991 77.9237 49.0624 77.8919C49.813 77.8846 50.5519 77.9439 51.2808 78.1175C51.9619 78.2794 52.6402 78.171 53.2765 77.9815C54.3119 77.6735 55.3228 77.7082 56.3308 78.0076C57.9953 78.5022 59.6641 78.2867 61.3359 78.0958C61.6453 78.0611 61.9707 78.0003 62.2686 78.0567C64.3482 78.4515 66.4263 78.2968 68.5203 78.1912C70.0012 78.1175 71.498 78.2057 72.9875 78.1536C74.0359 78.116 75.0352 77.941 75.9261 77.325C79.4286 74.9027 83.0541 72.6539 86.3701 69.9699C87.1742 69.3191 87.9378 68.6206 88.6464 67.8614C90.0969 66.3082 90.4353 64.4629 90.1229 62.4354C90.0564 62.0002 90.1967 61.439 89.4967 61.3754C89.5792 61.2727 89.6934 61.2221 89.8149 61.2554C90.4121 61.4188 91.0007 61.6097 91.6327 61.3986C91.7744 61.3508 91.9147 61.4333 91.9566 61.6068C91.5503 61.6068 91.5401 61.802 91.5965 62.1592C91.919 64.2185 91.7614 66.1868 90.4136 67.9135C89.6558 68.8838 88.8633 69.8282 87.8958 70.5874C84.5885 73.1803 81.2797 75.7747 77.6455 77.9121C77.4894 78.0032 77.3129 78.0929 77.2377 78.333L73.6701 79.4884C68.7821 79.6822 63.884 79.5188 58.9946 79.7415C57.8347 79.795 56.6865 79.7227 55.5802 79.3395C54.6041 79.0011 53.6785 79.2975 52.7544 79.5405C51.8491 79.7777 50.9814 79.9237 50.1239 79.3583C49.8535 79.1804 49.476 79.218 49.1347 79.2137C48.4623 79.2064 47.784 79.2108 47.1188 79.1327C46.0125 79.0025 44.977 79.3829 43.9083 79.5116C42.8194 79.6417 41.7463 79.5824 40.6805 79.3814C39.6812 79.1934 38.6718 79.1891 37.6653 79.1269C37.3486 79.1066 37.1837 79.3279 36.9856 79.4826C36.3811 79.9555 35.6797 80.1363 35.0261 79.7849" fill="#030303"/>
    <path d="M26.5354 77.2917C24.1421 76.2982 21.6547 75.5968 19.137 74.9909C15.5288 74.1246 11.912 73.2902 8.33278 72.3155C6.63355 71.8527 4.93577 71.3538 3.27559 70.7219C1.57059 70.0725 1.02828 68.9359 0.992125 67.1889C0.857634 60.7116 0.92271 54.2329 0.854741 47.757C0.825818 44.9486 0.574189 42.1431 0.445481 39.3361C0.394866 38.237 0.483081 38.1199 1.52575 37.8292C6.36457 36.4799 11.1947 35.0989 16.0639 33.8508C18.4818 33.2319 20.9157 32.6245 23.2773 31.8262C26.3084 30.8038 29.3627 29.8971 32.4676 29.1378C33.1357 28.9744 33.2875 29.1378 33.2846 29.7973C33.2615 34.7605 33.2138 39.7236 33.289 44.6854C33.3352 47.7903 33.3699 50.8952 33.3743 53.9986C33.3743 54.2126 33.6245 54.6378 33.1024 54.645C32.6396 54.6508 32.5587 54.2762 32.5673 53.9422C32.7611 46.4049 32.602 38.8661 32.657 31.3288C32.6671 29.9332 32.4213 30.1935 31.474 30.4885C29.1125 31.2246 26.709 31.8233 24.3214 32.4727C21.7068 33.1842 19.0458 33.7655 16.4905 34.6491C14.8809 35.2059 13.2106 35.5371 11.6271 36.1589C11.3668 36.2616 11.0674 36.3165 10.7898 36.3064C10.5063 36.2963 10.2431 36.1734 10.2316 36.6303C10.2301 36.6882 9.94089 36.7576 9.77748 36.788C7.67333 37.1857 5.62992 37.8133 3.56916 38.3744C3.03698 38.519 2.5019 38.6535 1.97406 38.8082C1.56769 38.9268 1.39705 39.1929 1.47514 39.6311C1.53299 39.9608 1.54889 40.2992 1.55757 40.6333C1.61252 42.6535 1.56625 44.681 1.72677 46.6926C2.29944 53.8829 1.93357 61.0818 2.02178 68.2764C2.02178 68.3907 2.03335 68.5035 2.04058 68.6582C4.00735 67.5447 6.11438 66.8867 8.14767 66.0551C10.4094 65.1296 12.7161 64.314 14.9619 63.3523C16.1521 62.8432 17.3148 62.2677 18.5281 61.8107C18.7971 61.7094 19.0661 61.5764 19.3466 61.5388C19.5751 61.5084 19.8962 61.1773 20.0394 61.5417C20.184 61.909 19.9815 62.2575 19.5968 62.4137C19.0401 62.6393 18.4659 62.8244 17.9077 63.0471C14.612 64.3588 11.3205 65.6806 8.0233 66.9893C6.37614 67.643 4.71885 68.2735 3.0688 68.9185C2.8996 68.985 2.64797 69.0024 2.64941 69.2424C2.64941 69.429 2.86778 69.4796 3.01095 69.5591C4.09267 70.1694 5.25393 70.5686 6.45134 70.8824C8.86641 71.5158 11.2742 72.181 13.6965 72.7869C16.3401 73.4478 19.0054 74.0292 21.6446 74.706C22.5123 74.9287 23.3105 75.4016 24.2072 75.5607C25.5955 75.808 26.7986 76.5411 28.0973 77.0242M1.01671 41.0237C1.08757 40.4178 1.23652 39.8061 1.02249 39.2016C0.825818 39.8061 0.861972 40.4149 1.01671 41.0237ZM15.2497 34.9181C15.2888 34.8993 15.3292 34.8805 15.3697 34.8617C15.3307 34.8415 15.2931 34.8053 15.254 34.8039C15.2136 34.8039 15.1716 34.8371 15.1311 34.8559C15.1702 34.8762 15.2092 34.8964 15.2497 34.9181Z" fill="#E52028"/>
    <path d="M30.4911 42.9544C30.4911 45.6283 30.4925 48.3008 30.4882 50.9747C30.4882 51.3131 30.6154 51.7151 29.9965 51.7007C29.4281 51.6877 29.3298 51.4201 29.3313 50.9299C29.3457 46.1374 29.3443 41.3448 29.3428 36.5523C29.3428 35.2826 29.3399 35.297 28.1628 35.6571C24.8323 36.6709 21.5249 37.7728 18.1569 38.6449C15.7158 39.2768 13.3383 40.1069 10.9001 40.7476C9.18206 41.1988 7.50887 41.8235 5.77205 42.2212C5.03596 42.3904 4.8494 42.8777 4.93039 43.5719C5.76771 50.7144 5.42208 57.8873 5.46112 65.0501C5.46112 65.2178 5.47558 65.3928 5.43943 65.5533C5.34399 65.9771 4.99402 66.0248 4.64839 66.0176C4.27094 66.0103 4.35771 65.6936 4.35482 65.4767C4.33602 64.3689 4.33457 63.2612 4.32156 62.1534C4.2883 59.4824 4.2131 56.8114 4.22177 54.1403C4.23334 50.5871 3.77491 47.0571 3.75611 43.5068C3.74599 41.6239 3.63464 41.9001 5.27602 41.352C7.02152 40.7692 8.80317 40.2949 10.5762 39.7989C12.1149 39.3694 13.7447 39.1553 15.1735 38.4959C15.9428 38.1416 16.7642 38.0187 17.5191 37.6456C18.3232 37.2479 19.2502 37.0975 20.1236 36.843C22.4751 36.1546 24.8265 35.4691 27.1765 34.7793C27.8432 34.5841 28.4997 34.3527 29.1707 34.1763C30.3132 33.8755 30.5041 34.0215 30.5055 35.1524C30.5099 37.754 30.5055 40.3542 30.5055 42.9558C30.4997 42.9558 30.494 42.9558 30.4896 42.9558L30.4911 42.9544Z" fill="#E52028"/>
    <path d="M66.0764 20.3293C66.3512 20.4393 66.477 20.8196 66.8487 20.7545C66.3628 22.2542 65.5703 23.5253 64.2253 24.4205C62.6028 25.5008 61.0077 26.6244 59.7553 28.1501C59.5022 28.4581 59.1074 28.7792 59.3576 29.2145C59.5948 29.6281 60.0344 29.7698 60.542 29.7308C61.576 29.6498 61.5861 29.6859 61.3215 30.73C61.0944 31.6223 60.7069 32.4828 60.704 33.4503C61.7756 33.3461 62.6505 32.8891 63.55 32.49C63.8204 32.37 64.1588 32.1444 64.3917 32.5074C64.6288 32.8776 64.2629 33.0771 64.0417 33.2637C63.242 33.9347 62.3092 34.315 61.2622 34.302C60.6606 34.2948 60.4567 34.532 60.4625 35.1075C60.4697 35.9998 60.474 36.8921 60.7748 37.7424C61.6555 40.2312 63.3201 41.4359 66.1603 41.4879C67.767 41.5183 69.3838 41.5212 70.989 41.326C71.3216 41.2855 71.6672 41.2739 71.9969 41.3173C72.7287 41.4156 72.9442 41.8495 72.5696 42.4843C72.1054 43.2739 71.5877 44.0361 70.8617 44.6102C70.4973 44.8994 70.3642 45.2219 70.4134 45.6702C70.5045 46.5075 70.5725 47.3463 70.3151 48.24C71.4315 48.1388 72.5031 48.0347 73.5761 47.9493C73.9174 47.9219 74.2905 47.8105 74.3542 48.3991C74.4135 48.9457 74.104 48.9689 73.7294 49.0441C72.5769 49.2755 71.4286 49.5242 70.2587 49.6572C70.0895 49.4765 69.9449 49.4779 69.8263 49.7107C69.5949 49.8264 69.3491 49.8163 69.1018 49.8033C68.9745 49.6269 68.8848 49.6833 68.814 49.851C68.6274 49.9494 68.4293 49.9537 68.2268 49.9262C68.0576 49.7643 67.9145 49.7758 67.8017 49.9913C67.618 50.0853 67.4228 50.1113 67.2203 50.0867C67.109 49.945 67.0164 49.9783 66.9354 50.1171C65.1234 50.4758 63.2955 50.671 61.4487 50.6956C60.649 50.6088 60.5825 50.0275 60.5782 49.4042C60.6693 49.3752 60.7604 49.3463 60.8515 49.316C60.8081 49.5372 60.7257 49.77 61.0496 49.9219C61.0872 49.6919 61.1219 49.4808 61.1566 49.2697C61.683 49.1713 62.2094 49.0614 62.7503 49.1077C62.9339 49.2986 63.0814 49.2914 63.1827 49.0296L64.0547 48.9718C64.2167 49.1482 64.3613 49.1439 64.4842 48.9284C64.9614 48.791 65.4517 48.8387 65.9376 48.8358C66.1444 49.0021 66.3382 49.0253 66.5088 48.7867C66.8472 48.752 67.1871 48.7187 67.5255 48.684C67.6354 48.8243 67.7279 48.7939 67.8089 48.6551C68.0533 48.6218 68.2977 48.5871 68.5421 48.5538C68.6535 48.6912 68.7417 48.6536 68.8183 48.5191C69.0685 48.4483 69.3187 48.3774 69.6311 48.2892C69.323 47.9045 69.349 47.4909 69.349 47.0845C69.3476 45.8076 69.3317 44.5306 69.3621 43.2551C69.3751 42.7071 69.1856 42.5364 68.6462 42.6C67.378 42.7504 66.1097 42.8574 64.8356 42.6073C61.8088 42.0143 59.589 39.4764 59.4198 36.399C59.3287 34.746 59.5225 33.1307 60.0648 31.5659C60.2383 31.0656 60.1371 30.8559 59.5861 30.7286C57.923 30.3439 57.5282 29.1899 58.5622 27.8392C59.3605 26.7965 60.3569 25.9534 61.4068 25.1884C63.255 23.842 65.1523 22.5579 66.0764 20.3293Z" fill="#030303"/>
    <path d="M83.8772 23.5211C86.0131 21.2102 88.1462 18.8949 89.708 16.1298C90.4918 14.7444 90.784 13.3142 90.1086 11.7842C89.9076 11.3286 89.789 10.8369 89.6314 10.3612C90.489 10.1269 91.5707 11.1074 91.656 12.1659C91.7587 13.4386 91.5027 14.6389 90.9532 15.7799C90.8245 16.046 90.7319 16.3077 90.7652 16.6042C90.285 16.6823 90.2879 17.1638 90.0869 17.4574C87.8454 20.7127 85.358 23.7655 82.58 26.5768C82.2835 26.8762 82.2618 27.0396 82.4686 27.3939C83.4997 29.1553 83.491 30.9456 82.2748 32.5827C81.0427 34.24 79.3449 34.9688 77.2581 34.5306C76.3688 34.3441 75.585 33.9189 74.9342 33.2783C74.7173 33.0642 74.5871 32.9529 74.3254 33.2653C73.8582 33.8249 73.0585 33.9421 72.5726 34.4974C72.0911 34.4829 71.6963 34.7476 71.2928 34.9399C70.0939 35.5111 68.8184 35.8611 67.5675 36.2819C67.2291 36.3962 66.8285 36.5422 66.6651 36.0404C66.5234 35.6037 66.7953 35.3795 67.1713 35.2277C68.9732 34.4988 70.7722 33.7627 72.5726 33.0295C73.0542 32.9775 73.4822 32.7634 73.9248 32.5885C74.1692 32.493 74.2588 32.3773 74.1186 32.1054C73.3434 30.6101 73.3434 29.0888 74.0072 27.5544C74.0419 27.5327 74.0549 27.5024 74.0477 27.4619C74.5466 26.707 75.1569 26.0576 75.8944 25.5298C75.9523 25.5009 76.0087 25.472 76.0665 25.443C76.1865 25.4242 76.2964 25.3895 76.3543 25.2681H76.3572C77.29 24.9615 78.2473 24.8805 79.222 24.9571C79.7036 25.1495 80.1851 25.3433 80.6667 25.5356L80.6696 25.537C81.0514 25.673 81.2727 26.4365 81.8395 25.8422C82.5496 25.0974 83.2785 24.3671 83.8757 23.5211H83.8772ZM78.0853 33.8321C80.1591 33.8105 81.9928 32.237 82.2893 30.4279C82.4238 29.6022 82.3052 28.8053 81.9162 28.0577C81.6964 27.634 81.4838 27.4402 81.0384 27.9029C80.2965 28.6752 79.4895 29.3852 78.6956 30.1054C78.5105 30.2732 78.2632 30.5074 78.0087 30.2341C77.7918 30.0013 77.7976 29.6976 78.013 29.4474C78.1692 29.2667 78.363 29.1206 78.5365 28.9543C79.1251 28.3917 79.7166 27.8321 80.3008 27.2652C80.5409 27.0324 80.7144 26.759 80.3977 26.4712C80.1201 26.2182 79.8323 25.9477 79.4505 25.8711C77.7889 25.5399 76.3341 25.9261 75.2205 27.2449C74.1214 28.5479 73.9204 30.0447 74.6753 31.5545C75.4085 33.018 76.7086 33.7353 78.0839 33.8321H78.0853Z" fill="#E52028"/>
    <path d="M56.3699 64.4731C55.1493 64.3386 54.0271 64.1896 53.1218 63.4029C52.795 63.118 52.6808 63.2193 52.5405 63.601C51.9823 65.1282 51.2549 66.557 49.9172 67.5736C49.6337 67.7891 49.3807 68.0523 48.996 67.6546C48.6359 67.2815 48.8933 67.053 49.0943 66.7985C50.0734 65.5562 50.834 64.2157 51.1131 62.6292C51.1811 62.2446 51.1594 61.9727 50.9208 61.6386C49.8492 60.1375 48.821 58.6046 47.7783 57.0832C46.6156 55.384 45.0277 54.3674 42.9814 54.0753C42.7775 54.0463 42.4637 54.068 42.4391 53.8222C42.4146 53.5821 42.6705 53.4187 42.8903 53.3131C43.8723 52.8431 44.834 52.9212 45.7928 53.4071C47.1608 54.1013 48.1905 55.1584 49.0668 56.3891C50.2107 57.9929 51.2534 59.6747 52.6649 61.0732C53.7148 62.1144 54.9917 62.703 56.4422 62.9213C56.7792 62.972 57.1002 63.0501 57.4169 63.1672C57.6844 63.2655 57.7741 63.4593 57.7741 63.7269C57.7741 64.0305 57.6483 64.246 57.3475 64.3097C56.9961 64.3849 56.6389 64.4297 56.3684 64.4745L56.3699 64.4731Z" fill="#030303"/>
    <path d="M49.5901 71.2974C46.6717 71.3018 43.7708 71.1557 40.9667 70.2287C40.4157 70.0465 39.8777 69.8499 39.4236 69.4753C39.185 69.2786 39.0014 69.0169 39.1648 68.7233C39.3137 68.4543 39.6058 68.6206 39.8184 68.6785C42.3998 69.3697 45.0058 69.9164 47.6782 70.1102C51.6204 70.3965 55.5034 70.0783 59.3313 69.0675C60.9308 68.6452 62.5302 68.2229 64.1079 67.7226C64.3263 67.6532 64.6358 67.4116 64.7529 67.792C64.8513 68.1072 64.7038 68.3936 64.3466 68.5353C62.9395 69.0935 61.5295 69.6344 60.0761 70.0697C56.6502 71.095 53.1302 71.2974 49.5872 71.2974H49.5901Z" fill="#030303"/>
    <path d="M69.0914 57.2265C69.0408 57.4333 68.889 57.5388 68.7256 57.6502C66.2714 59.3292 64.0776 61.2829 62.2945 63.6792C61.4341 64.8376 60.5461 65.9757 59.664 67.1167C59.5049 67.322 59.3343 67.5838 59.0393 67.5375C58.8108 67.5028 58.575 67.3698 58.442 67.1601C58.2873 66.9157 58.5129 66.7667 58.6372 66.599C59.9402 64.8419 61.1738 63.0313 62.6141 61.3784C62.9222 61.0241 62.9352 60.7507 62.7428 60.2938C61.7797 58.0161 60.886 55.7095 59.9706 53.4115C59.9257 53.3002 59.8853 53.1816 59.8766 53.0645C59.8477 52.6668 59.7001 52.1534 60.2092 52.0146C60.6734 51.8873 60.7313 52.4151 60.8802 52.713C61.9489 54.8418 62.7183 57.0949 63.5903 59.3046C63.8723 60.0204 63.8679 60.0349 64.4348 59.4781C65.5397 58.3935 66.779 57.4853 68.0849 56.6625C68.2903 56.5338 68.5101 56.4036 68.7444 56.6061C68.9324 56.7695 69.0119 56.9994 69.0914 57.2236V57.2265Z" fill="#030303"/>
    <path d="M37.9755 58.7839C39.9321 58.7854 42.1621 60.4354 42.7391 62.3082C43.1469 63.63 42.5916 64.8158 41.3711 65.2265C41.0688 65.3277 40.7492 65.3784 40.4499 65.2757C40.0883 65.1513 39.6617 64.9995 39.5749 64.5974C39.494 64.2171 39.9524 64.1636 40.1867 64.0031C41.7326 62.9474 41.7702 62.6148 40.447 61.2771C39.1845 60.0016 37.9769 59.7673 36.311 60.4557C35.5951 60.7521 34.9429 61.157 34.3037 61.5851C34.0318 61.7673 33.7658 61.8252 33.5185 61.5851C33.2133 61.2886 33.4823 61.0645 33.6559 60.8461C34.4975 59.7904 36.6161 58.781 37.974 58.7825L37.9755 58.7839Z" fill="#030303"/>
    <path d="M36.3365 56.3212C36.1514 55.8339 36.2916 55.4911 36.7718 55.267C39.3459 54.0623 41.9085 53.964 44.4522 55.3465C44.7024 55.4825 44.9251 55.6748 45.145 55.8599C45.3113 56.0002 45.4819 56.1824 45.3604 56.4167C45.2332 56.6625 45.0162 56.8447 44.714 56.7681C44.1558 56.6249 43.5947 56.4774 43.0495 56.2908C41.1811 55.6473 39.3097 55.7673 37.4341 56.2359C37.2519 56.2822 36.9641 56.2937 37.0523 56.6307L37.0885 56.6177C37.0668 56.2995 36.8426 56.5266 36.7197 56.4803C36.6387 56.3111 36.4825 56.327 36.3336 56.3241L36.3365 56.3212Z" fill="#030303"/>
    <path d="M37.0895 56.6161C37.0895 56.6161 37.0548 56.6277 37.0533 56.6291C39.0317 56.5134 40.9984 56.5467 42.9218 57.1035C43.3065 57.2148 43.7953 57.3016 43.6521 57.8815C43.5162 58.431 43.1127 58.5467 42.5834 58.4368C41.4033 58.1924 40.2059 58.0825 39.0071 57.961C37.733 57.8323 36.5096 57.9408 35.3512 58.5178C35.2052 58.5901 35.036 58.7275 34.8928 58.6002C34.7511 58.4744 34.8668 58.2893 34.9058 58.1288C35.0562 57.5127 35.4524 57.0933 36.0367 56.9314C36.4445 56.8171 36.4532 56.6335 36.3346 56.324C36.4835 56.3254 36.6397 56.311 36.7207 56.4802C36.8031 56.6335 36.861 56.8533 37.0895 56.6175V56.6161Z" fill="#030303"/>
    <path d="M12.0556 52.2807C12.1033 50.823 12.916 49.6531 13.5061 48.405C14.2306 46.875 15.3282 45.6024 16.4244 44.3341C16.5169 44.2271 16.6297 44.1288 16.7512 44.0579C16.8901 43.9769 17.0462 43.841 17.2154 43.948C17.4136 44.0738 17.3456 44.2951 17.3239 44.4759C17.2849 44.7983 17.0549 45.0312 16.8843 45.2871C15.7143 47.0355 14.527 48.7709 13.6999 50.7203C13.4569 51.293 13.1821 51.8527 12.9262 52.421C12.7902 52.7218 12.54 52.7522 12.2624 52.7073C12.0006 52.6654 11.9948 52.4759 12.0541 52.2793L12.0556 52.2807Z" fill="#E52028"/>
    <path d="M19.1875 46.778C19.1557 46.833 19.1268 46.9414 19.0574 46.9906C17.2295 48.2863 16.5874 50.4758 15.1947 52.0998C14.9966 52.3312 14.8664 52.687 14.4644 52.4672C14.0566 52.243 14.2677 51.9538 14.4051 51.6703C15.2179 49.9769 16.2764 48.4454 17.4811 47.0108C17.8325 46.5929 18.2851 46.4237 18.8289 46.4859C19.001 46.5061 19.1745 46.5061 19.1875 46.7794V46.778Z" fill="#E52028"/>
    <path d="M23.2294 71.9134C22.9589 71.8324 22.7623 71.6762 22.8375 71.348C23.0457 70.4239 23.3277 69.5388 24.0334 68.8432C24.7218 68.165 25.2366 67.3031 26.1289 66.8418C26.3111 66.7478 26.4861 66.418 26.7319 66.7174C26.9069 66.93 26.9792 67.1888 26.7493 67.4332C25.5533 68.6943 24.7377 70.233 23.695 71.6068C23.5808 71.7572 23.4795 71.9351 23.2308 71.912L23.2294 71.9134Z" fill="#030303"/>
    <path d="M26.3025 63.8079C26.3546 64.1954 26.1652 64.3415 25.9453 64.4572C24.7725 65.0718 23.6821 65.8035 22.6843 66.677C22.4601 66.8722 22.1926 67.1586 21.8918 66.7927C21.6532 66.502 21.7645 66.2417 22.0147 65.9771C23.0386 64.8983 24.2635 64.1202 25.6026 63.5042C26.0148 63.3147 26.3185 63.3393 26.3025 63.8079Z" fill="#030303"/>
    <path d="M68.9707 20.0618C69.8991 20.2122 70.7292 20.6316 71.3004 21.4848C71.4581 21.7191 71.5405 21.9707 71.3323 22.2093C71.1341 22.4364 70.8377 22.4942 70.615 22.325C69.8124 21.7176 68.9345 21.333 67.928 21.226C67.6952 21.2014 67.6214 21.0047 67.7574 20.7907C68.0249 20.3684 68.3575 20.0416 68.9707 20.0618Z" fill="#030303"/>
    <path d="M74.0107 27.5558C73.347 29.0901 73.347 30.6115 74.1221 32.1068C74.2624 32.3772 74.1727 32.4929 73.9283 32.5898C73.4858 32.7634 73.0577 32.9788 72.5762 33.0309C72.6803 31.537 72.7352 30.0374 73.0491 28.5652C73.4164 28.5985 73.4656 28.3729 73.4511 28.0836C73.4323 27.6932 73.6463 27.5428 74.0107 27.5572V27.5558Z" fill="#030303"/>
    <path d="M22.7606 69.3365C22.5307 69.2367 22.2516 69.1283 22.4193 68.7826C23.1511 67.27 24.269 66.1261 25.7585 65.3451C25.919 65.2613 26.0911 65.2482 26.1996 65.4305C26.3717 65.724 26.2097 65.9583 25.9928 66.113C25.2263 66.6582 24.5929 67.3321 23.9956 68.048C23.705 68.3965 23.4114 68.7436 23.112 69.0863C23.0224 69.189 22.9587 69.338 22.7606 69.3365Z" fill="#030303"/>
    <path d="M68.4047 23.0063C68.3758 23.0598 68.3252 23.1943 68.2442 23.3071C67.7453 24.007 67.2391 24.7026 66.7402 25.4011C66.6086 25.5848 66.435 25.7091 66.2282 25.7757C66.0431 25.835 65.8421 25.8523 65.683 25.7091C65.4676 25.5154 65.683 25.3621 65.7582 25.2088C66.2138 24.2803 66.8443 23.4676 67.4632 22.6476C67.6382 22.4148 67.8566 22.4061 68.1024 22.5016C68.2948 22.5753 68.4408 22.6852 68.4047 23.0048V23.0063Z" fill="#030303"/>
    <path d="M67.1338 17.3316C67.2018 17.3128 67.2697 17.2911 67.3391 17.2737C67.5546 17.2202 67.5199 16.73 67.8467 16.9339C68.1374 17.1161 68.0911 17.469 68.094 17.7784C68.0969 18.1125 67.9031 18.1718 67.6298 18.1458C67.9248 17.5933 67.3435 17.576 67.1338 17.3316Z" fill="#030303"/>
    <path d="M60.5763 49.4056C60.5807 50.0289 60.6472 50.6103 61.4469 50.697C61.0955 50.8272 60.666 50.94 60.4737 50.5727C60.2915 50.2271 60.1888 49.7614 60.5778 49.4056H60.5763Z" fill="#030303"/>
    <path d="M92.5244 61.5851C92.7876 61.2626 93.0841 61.3363 93.3907 61.5099C93.1087 61.6212 92.8223 61.666 92.5244 61.5851Z" fill="#030303"/>
    <path d="M61.1566 49.2711C61.1219 49.4822 61.0872 49.6934 61.0496 49.9233C60.7271 49.7715 60.8081 49.5386 60.8515 49.3174C60.9426 49.2292 61.0482 49.2451 61.1566 49.2711Z" fill="#030303"/>
    <path d="M66.5068 48.788C66.3347 49.0252 66.1409 49.0035 65.9355 48.8372C66.1207 48.7548 66.3101 48.7389 66.5068 48.788Z" fill="#030303"/>
    <path d="M63.1824 49.0296C63.0812 49.2914 62.9337 49.2986 62.75 49.1077C62.8845 49.0296 63.0248 48.979 63.1824 49.0296Z" fill="#030303"/>
    <path d="M69.8262 49.7109C69.9433 49.478 70.0894 49.4766 70.2586 49.6574C70.114 49.6747 69.9708 49.6935 69.8262 49.7109Z" fill="#030303"/>
    <path d="M67.8018 49.9915C67.9146 49.776 68.0563 49.7644 68.2269 49.9264C68.0939 50.0088 67.9536 50.0334 67.8018 49.9915Z" fill="#030303"/>
    <path d="M66.6582 17.1174C66.9228 16.9092 67.0458 17.0133 67.0819 17.3083C66.9012 17.3315 66.7724 17.2389 66.6582 17.1174Z" fill="#030303"/>
    <path d="M64.4842 48.93C64.3613 49.1455 64.2167 49.1484 64.0547 48.9734C64.1921 48.9025 64.3352 48.8808 64.4842 48.93Z" fill="#030303"/>
    <path d="M93.6836 61.4794C93.7646 61.196 93.9135 61.1758 94.116 61.3695C93.9858 61.4606 93.8513 61.5358 93.6836 61.4794Z" fill="#030303"/>
    <path d="M68.8145 49.851C68.8853 49.6833 68.9735 49.6269 69.1022 49.8033C69.0155 49.8756 68.9229 49.9045 68.8145 49.851Z" fill="#030303"/>
    <path d="M66.9355 50.1187C67.0165 49.9784 67.1091 49.9451 67.2204 50.0883C67.1322 50.1606 67.0368 50.1751 66.9355 50.1187Z" fill="#030303"/>
    <path d="M70.1299 18.555C70.2644 18.3901 70.3483 18.4639 70.4148 18.6157C70.3034 18.6692 70.2123 18.6345 70.1299 18.555Z" fill="#030303"/>
    <path d="M69.4277 18.3684C69.5926 18.2918 69.7401 18.2831 69.8355 18.474C69.6808 18.5102 69.5434 18.4827 69.4277 18.3684Z" fill="#030303"/>
    <path d="M65.9219 16.9325C65.9363 16.837 65.9783 16.7532 66.0867 16.7676C66.1923 16.7821 66.214 16.8761 66.2183 16.9686C66.12 16.9571 66.0202 16.9441 65.9219 16.9325Z" fill="#030303"/>
    <path d="M65.0635 16.8399C65.2052 16.6808 65.2949 16.7502 65.3643 16.9093C65.2399 16.9903 65.1531 16.9136 65.0635 16.8399Z" fill="#030303"/>
    <path d="M73.1788 27.7408C73.3017 27.8884 73.3147 28.0257 73.1368 28.1429C73.092 28.0026 73.1065 27.8696 73.1788 27.7408Z" fill="#030303"/>
    <path d="M67.8334 19.239C67.7972 19.0322 67.8652 18.8992 68.0908 18.8804C68.0546 19.0351 67.9693 19.1551 67.8334 19.239Z" fill="#030303"/>
    <path d="M68.8163 48.5192C68.7396 48.6537 68.6514 48.6913 68.54 48.5539C68.6225 48.4686 68.7165 48.473 68.8163 48.5192Z" fill="#030303"/>
    <path d="M67.8069 48.6566C67.7259 48.7969 67.6333 48.8258 67.5234 48.6855C67.6117 48.6103 67.7057 48.6031 67.8069 48.6566Z" fill="#030303"/>
    <path d="M83.877 23.521C83.2797 24.367 82.5523 25.0973 81.8408 25.8421C81.2739 26.4365 81.0527 25.6729 80.6709 25.537C81.6138 25.6454 82.1821 25.2694 82.6131 24.3844C82.791 24.02 83.2508 23.5051 83.877 23.5196V23.521Z" fill="#030303"/>
    <path d="M79.2261 24.9571C78.2514 24.8804 77.2941 24.9629 76.3613 25.268C76.3845 24.7995 76.8834 24.7864 77.096 24.7373C77.7395 24.5912 78.425 24.6216 79.0902 24.7271C79.1466 24.7358 79.1813 24.8775 79.2261 24.9571Z" fill="#030303"/>
    <path d="M75.8983 25.5311C75.1608 26.059 74.5505 26.7083 74.0516 27.4632C74.0198 26.5839 74.9467 25.6136 75.8983 25.5311Z" fill="#030303"/>
    <path d="M80.6693 25.5355C80.1877 25.3431 79.7062 25.1494 79.2246 24.957C79.7727 24.9816 80.4235 24.7546 80.6693 25.5355Z" fill="#030303"/>
    <path d="M76.3581 25.2694C76.3002 25.3909 76.1903 25.4256 76.0703 25.4444C76.0978 25.2752 76.2135 25.2463 76.3581 25.2694Z" fill="#030303"/>
    <path d="M1.01683 41.0238C0.86209 40.415 0.825937 39.8062 1.02261 39.2017C1.23664 39.8062 1.08914 40.4179 1.01683 41.0238Z" fill="#FDFDFD"/>
    <path d="M15.2485 34.9181C15.2065 34.8964 15.1689 34.8761 15.1299 34.8559C15.1704 34.8371 15.2123 34.8038 15.2528 34.8038C15.2919 34.8038 15.3309 34.8414 15.3685 34.8617C15.328 34.8805 15.2875 34.8993 15.2485 34.9181Z" fill="#FDFDFD"/>
    <path d="M78.0859 33.8305C76.7106 33.7351 75.4105 33.0178 74.6773 31.5528C73.9224 30.0445 74.1234 28.5477 75.2225 27.2433C76.3346 25.9244 77.7894 25.5383 79.4525 25.8695C79.8343 25.9447 80.122 26.2166 80.3997 26.4696C80.715 26.7574 80.5414 27.0307 80.3028 27.2636C79.7186 27.8305 79.1285 28.3916 78.5385 28.9527C78.365 29.1175 78.1712 29.265 78.015 29.4458C77.7995 29.696 77.7937 29.9997 78.0107 30.2325C78.2652 30.5058 78.5125 30.2716 78.6976 30.1038C79.4915 29.3836 80.2985 28.6721 81.0404 27.9013C81.4843 27.4385 81.6983 27.6323 81.9182 28.0561C82.3057 28.8037 82.4258 29.6005 82.2913 30.4263C81.9948 32.234 80.1611 33.8088 78.0873 33.8305H78.0859Z" fill="#030303"/>
</svg>
