<svg width="379" height="347" viewBox="0 0 379 347" fill="none" xmlns="http://www.w3.org/2000/svg">
    <g clip-path="url(#clip0_137_9370)">
        <path d="M201.925 165.43C201.305 165.84 200.515 165.63 200.165 164.98C199.895 164.48 199.945 163.68 200.235 163.19C200.595 162.6 201.405 162.39 201.965 162.82C202.415 163.16 202.585 163.89 202.455 164.43C202.455 164.47 202.435 164.51 202.415 164.55C202.395 164.91 202.235 165.23 201.925 165.44V165.43Z" fill="black"/>
        <path d="M219.475 162.83C219.915 163.1 220.085 163.67 220.075 164.16C220.075 164.29 220.045 164.42 220.005 164.54C219.985 164.79 219.885 165.03 219.705 165.21C219.165 165.75 218.245 165.63 217.865 164.97C217.585 164.49 217.615 163.71 217.905 163.25C218.235 162.73 218.945 162.49 219.485 162.83H219.475Z" fill="black"/>
        <path d="M199.345 152.69C200.065 152.56 200.975 152.46 201.845 152.54C202.595 152.53 203.315 152.66 203.885 153.02C205.105 153.81 205.075 155.37 203.855 156.14C202.325 157.11 195.365 158.24 195.965 154.81C196.215 153.41 198.185 152.9 199.335 152.69H199.345Z" fill="black"/>
        <path d="M216.305 153.42C216.885 152.99 217.675 152.87 218.465 152.91C218.895 152.88 219.325 152.9 219.675 152.93C220.725 153.03 222.525 153.39 222.775 154.65C223.355 157.48 217.825 156.98 216.475 156.14C215.445 155.5 215.295 154.18 216.295 153.42H216.305Z" fill="black"/>
        <path d="M133.155 220.88C133.765 219.23 134.505 217.62 135.405 216.1C137.045 213.34 139.195 210.89 141.735 208.92C147.835 204.18 155.875 202.26 163.485 202.21C165.955 202.19 168.415 202.39 170.855 202.77C172.835 203.08 174.965 203.49 176.875 204.26C176.835 202.07 177.315 199.75 177.535 197.66C177.835 194.76 178.135 191.86 178.455 188.97C179.065 183.48 179.455 177.89 180.525 172.47C179.245 172.26 177.995 171.72 177.045 170.99C174.845 169.29 174.075 166.36 174.895 163.74C175.665 161.28 177.775 159.2 180.305 158.59C180.225 157.86 180.335 157.1 180.375 156.36C180.445 155.14 180.525 153.92 180.605 152.7C180.685 151.48 180.755 150.26 180.855 149.04C180.905 148.46 180.925 147.86 181.005 147.28C180.495 146.92 180.465 145.86 180.475 145.28C180.515 144.02 179.825 142.84 179.965 141.64C179.875 141.36 179.925 141.04 180.175 140.74C180.565 140.28 180.985 139.84 181.435 139.4C181.535 138.12 182.095 136.78 182.555 135.66C183.125 134.27 183.825 132.93 184.675 131.69C186.325 129.29 188.495 127.26 191.035 125.83C197.105 122.42 204.685 122.73 210.985 125.36C214.615 126.88 218.415 129.34 220.675 132.63C221.065 132.75 221.455 132.88 221.845 133.02C221.845 133.02 221.865 133.02 221.875 133.03C222.795 132.95 223.245 134.81 223.445 135.44C223.755 136.45 224.685 137.1 224.835 138.18C224.875 138.51 224.865 138.83 224.795 139.12C226.915 138.45 229.285 140.03 229.865 142.28C230.695 145.46 228.545 148.29 225.745 149.51C225.985 153.74 226.105 157.98 226.225 162.2C226.375 167.57 226.775 173.08 225.655 178.38C223.665 187.84 215.365 194.51 205.825 195.23C205.675 195.24 205.535 195.25 205.385 195.25C205.625 196.88 205.545 198.67 205.605 200.23C205.675 202.01 205.965 204.01 205.785 205.83C205.805 205.84 205.815 205.86 205.835 205.87C207.185 205.41 208.695 205.26 210.055 205.02C211.865 204.71 213.685 204.45 215.515 204.31C219.355 204.02 223.235 204.16 226.975 205.13C233.195 206.75 238.385 210.73 242.135 215.88C244.285 218.84 246.305 222.45 247.095 226.05C247.405 227.43 245.525 227.89 245.015 226.62C243.515 222.89 242.085 219.38 239.555 216.19C237.245 213.28 234.385 210.78 231.085 209.06C227.125 206.99 222.655 206.3 218.225 206.31C215.955 206.31 213.685 206.51 211.425 206.73C209.435 206.92 207.255 207.5 205.235 207.3C203.575 208.8 201.165 209.7 199.105 210.33C196.555 211.12 193.855 211.49 191.185 211.43C188.575 211.38 185.945 210.85 183.515 209.92C181.165 209.02 178.245 207.83 176.535 205.92C176.465 205.84 176.415 205.74 176.375 205.64C174.895 205.44 173.425 205.12 171.955 204.92C169.805 204.62 167.645 204.44 165.475 204.39C161.465 204.29 157.435 204.7 153.555 205.73C147.365 207.38 141.715 210.66 138.095 216.05C137.065 217.58 136.205 219.22 135.535 220.93C135.175 221.85 134.865 222.79 134.595 223.75C134.305 224.77 134.195 225.87 133.615 226.77C133.235 227.36 132.145 227.35 131.985 226.56C131.635 224.73 132.535 222.58 133.165 220.88H133.155ZM208.905 126.13C204.725 124.71 200.125 124.33 195.835 125.48C192.495 126.38 189.505 128.26 187.225 130.86C186.075 132.18 185.125 133.68 184.385 135.26C184.055 135.97 183.825 136.72 183.605 137.48C185.125 136.29 186.765 135.23 188.375 134.35C191.155 132.84 194.175 131.81 197.285 131.25C201.205 130.55 205.215 130.45 209.175 130.76C212.385 131.01 215.745 131.33 218.925 132.11C215.805 129.68 212.775 127.44 208.905 126.12V126.13ZM222.455 136.39C222.315 135.99 222.305 135.6 222.265 135.19C222.205 134.59 222.045 134.22 221.745 133.85C217.705 133.85 213.705 132.93 209.675 132.67C205.795 132.42 201.845 132.41 198.005 133.07C194.985 133.59 192.065 134.54 189.375 136.01C186.395 137.63 184.085 139.86 181.525 142.03C181.405 142.13 181.275 142.2 181.155 142.24C181.285 142.84 181.555 143.41 181.695 144.05C181.775 144.43 181.725 144.92 181.735 145.38C182.755 144.39 184.095 143.61 185.255 142.88C186.885 141.85 188.595 140.94 190.355 140.15C193.895 138.56 197.635 137.41 201.475 136.81C205.255 136.22 209.095 136.08 212.895 136.47C216.385 136.83 219.985 137.52 223.095 139.2C223.195 138.88 223.315 138.56 223.315 138.27C223.325 137.57 222.705 137.02 222.485 136.4L222.455 136.39ZM183.885 207.74C186.235 208.59 188.675 209.17 191.185 209.21C193.595 209.25 195.995 208.92 198.315 208.3C200.295 207.77 202.125 206.81 204.035 206.12C203.695 204.23 203.925 202.1 203.905 200.22C203.905 199.95 203.895 199.67 203.885 199.38C202.915 199.65 201.795 199.42 200.835 199.22C199.385 198.92 197.995 198.42 196.645 197.81C193.925 196.57 191.345 194.72 189.495 192.36C189.415 192.25 189.355 192.14 189.325 192.03C189.135 191.4 189.715 190.61 190.505 190.79C192.635 191.27 194.705 191.97 196.855 192.38C199.155 192.82 201.495 193.07 203.835 193.07C208.255 193.06 212.525 191.96 216.225 189.49C220.165 186.87 222.755 182.9 223.855 178.33C225.065 173.32 224.745 168.06 224.665 162.95C224.595 158.61 224.515 154.26 224.555 149.92C221.125 150.87 217.195 149.87 214.025 148.53C212.295 147.8 210.665 146.87 209.175 145.73C208.555 145.26 207.935 144.78 207.385 144.24C207.805 145.1 208.235 145.96 208.825 146.75C209.815 148.08 211.085 149.28 212.405 150.27C212.745 150.52 212.465 151.01 212.075 150.84C209.335 149.61 206.645 146.96 205.855 143.93C204.415 147.06 201.895 149.51 198.615 150.8C196.525 151.62 194.255 151.88 192.025 151.62C190.875 151.49 189.335 151.24 188.055 150.68C188.035 152.2 187.635 153.84 187.325 155.14C187.065 156.24 186.735 157.33 186.305 158.37C186.085 158.9 185.945 159.4 185.595 159.76C186.055 160.15 186.435 160.63 186.715 161.19C186.945 161.65 186.325 162.01 186.025 161.59C184.815 159.89 182.305 159.6 180.435 160.23C178.535 160.87 177.005 162.46 176.445 164.38C175.845 166.44 176.505 168.69 178.315 169.91C180.005 171.06 181.845 171.04 183.755 170.59C184.555 170.4 185.085 171.53 184.325 171.95C183.465 172.43 182.475 172.62 181.475 172.59C181.475 178.14 180.745 183.72 180.255 189.24C180.005 192.06 179.735 194.87 179.465 197.69C179.335 199.07 179.215 200.45 179.065 201.83C178.945 202.93 178.885 204.08 178.625 205.16C180.385 206.01 182.035 207.11 183.885 207.78V207.74Z" fill="black"/>
        <path d="M209.495 172.98C210.245 173.09 211.135 173 211.155 172.06C211.165 171.58 211.075 171.09 211.015 170.61C210.885 169.51 210.735 168.4 210.615 167.3C210.495 166.21 210.395 165.12 210.295 164.03C210.205 163.1 210.015 162.06 210.285 161.16C210.355 160.93 210.675 160.88 210.795 161.09C211.485 162.26 211.505 163.96 211.705 165.28C211.935 166.81 212.145 168.34 212.345 169.87C212.505 171.12 212.945 172.67 212.065 173.75C211.335 174.64 210.115 174.61 209.085 174.45C208.115 174.3 208.535 172.84 209.495 172.98Z" fill="black"/>
        <path d="M200.775 175.76C200.995 176.74 201.305 177.61 202.055 178.32C202.385 178.64 202.755 178.92 203.165 179.11C203.565 179.29 204.055 179.29 204.365 179.6C204.455 179.69 204.475 179.87 204.365 179.96C203.565 180.6 201.945 179.75 201.275 179.21C200.295 178.43 199.535 177.2 199.625 175.92C199.665 175.29 200.625 175.08 200.785 175.76H200.775Z" fill="black"/>
        <path d="M183.905 163.22C183.495 163.37 183.015 163.27 182.575 163.36C182.045 163.46 181.515 163.64 181.105 164C180.695 164.35 180.415 164.84 180.315 165.37C180.225 165.86 180.355 166.33 180.195 166.81C180.055 167.24 179.535 167.39 179.205 167.07C178.035 165.93 179.105 163.64 180.205 162.83C180.835 162.37 181.635 162.11 182.415 162.18C182.985 162.23 183.775 162.48 184.005 163.05C184.035 163.13 183.965 163.21 183.905 163.23V163.22Z" fill="black"/>
        <path d="M206.705 292.14C207.945 291.88 208.955 292.03 209.165 290.41C209.295 289.37 209.245 288.28 209.275 287.24C209.335 284.76 209.495 282.33 209.725 279.86C209.755 279.55 210.185 279.54 210.215 279.86C210.495 283.31 210.675 286.77 210.615 290.23C210.595 291.32 210.325 292.37 209.445 293.09C208.635 293.76 207.455 294.08 206.515 293.58C205.925 293.27 206.045 292.27 206.705 292.13V292.14Z" fill="black"/>
        <path d="M200.955 284.87C200.335 285.28 199.545 285.07 199.195 284.42C198.925 283.92 198.975 283.12 199.265 282.63C199.625 282.04 200.435 281.83 200.995 282.26C201.445 282.6 201.615 283.33 201.485 283.87C201.485 283.91 201.465 283.95 201.445 283.99C201.425 284.35 201.265 284.67 200.955 284.88V284.87Z" fill="black"/>
        <path d="M217.605 282.27C218.045 282.54 218.215 283.11 218.205 283.6C218.205 283.73 218.175 283.86 218.125 283.98C218.105 284.23 218.005 284.47 217.825 284.65C217.285 285.19 216.365 285.07 215.985 284.41C215.705 283.93 215.735 283.15 216.025 282.69C216.355 282.17 217.065 281.93 217.605 282.27Z" fill="black"/>
        <path d="M138.345 340.55C138.845 338.96 139.465 337.41 140.205 335.93C141.525 333.29 143.295 330.85 145.455 328.83C150.595 324.02 157.755 321.8 164.695 321.65C166.905 321.6 169.095 321.78 171.275 322.14C173.125 322.45 175.245 322.87 177.025 323.71C177.055 323.67 177.075 323.63 177.115 323.6C177.065 322.88 177.085 322.15 177.135 321.41C174.015 320.64 170.875 319.61 167.875 318.34C169.125 316.57 170.095 314.6 170.865 312.58C171.005 312.21 170.415 311.98 170.235 312.32C169.205 314.27 168.005 316.07 166.735 317.85C165.845 317.45 164.975 317.03 164.115 316.59C164.095 316.59 164.085 316.57 164.065 316.56C165.405 315.15 166.535 313.45 167.385 311.84C168.805 309.17 169.595 306.29 169.715 303.27C169.715 303.07 169.385 303.02 169.355 303.22C168.945 306.06 167.995 308.86 166.525 311.33C165.465 313.11 164.155 314.49 162.725 315.83C159.265 313.94 155.675 311.51 153.405 308.36C153.005 308 152.995 307.27 153.665 307.1C155.275 306.7 156.805 306.39 158.265 305.57C159.775 304.72 161.105 303.62 162.265 302.34C164.845 299.49 166.345 295.87 167.615 292.3C168.895 288.7 170.075 285.09 171.605 281.58C173.155 278.04 174.945 274.6 176.965 271.3C178.815 268.26 180.835 265.37 183.215 262.74C184.705 260.56 186.625 258.67 188.835 257.13C197.025 251.43 208.365 252.09 216.325 257.93C219.615 260.34 222.135 263.66 223.245 267.62C223.645 269.06 223.915 270.53 224.105 272.02C226.465 278.88 227.975 285.97 228.625 293.21C228.985 297.21 229.125 301.23 229.065 305.24C229.035 307.25 228.955 309.26 228.835 311.27C228.715 313.16 228.795 315.42 228.095 317.2C228.025 317.39 227.835 317.53 227.645 317.59C226.265 318.28 224.795 318.83 223.285 319.31C223.465 318.48 223.615 317.65 223.725 316.81C224.075 314.32 224.085 311.79 223.875 309.3C223.845 308.87 223.195 308.86 223.205 309.3C223.255 311.81 223.045 314.28 222.625 316.75C222.455 317.74 222.245 318.72 221.995 319.69C219.885 320.28 217.735 320.74 215.675 321.2C211.795 322.06 207.875 322.66 203.925 323.1C203.955 323.82 203.955 324.55 203.885 325.24C205.585 324.58 207.705 324.42 209.395 324.14C211.685 323.76 214.015 323.57 216.335 323.59C220.585 323.64 224.835 324.63 228.495 326.83C231.625 328.71 234.245 331.32 236.385 334.26C238.715 337.48 240.885 341.52 241.635 345.46C241.895 346.83 240.045 347.33 239.555 346.03C238.825 344.11 238.275 342.18 237.375 340.33C236.595 338.72 235.685 337.16 234.655 335.7C232.675 332.91 230.165 330.42 227.225 328.67C223.665 326.55 219.575 325.74 215.455 325.72C213.375 325.71 211.295 325.9 209.215 326.12C207.405 326.31 205.255 326.93 203.395 326.73C202.165 328.79 199.405 330.04 197.245 330.8C194.735 331.68 191.995 331.99 189.355 331.68C186.865 331.38 184.455 330.58 182.285 329.33C181.225 328.72 180.225 327.99 179.305 327.18C178.695 326.64 177.905 325.97 177.405 325.2C175.125 324.99 172.835 324.32 170.555 324.06C168.185 323.8 165.775 323.72 163.395 323.89C158.765 324.22 154.145 325.53 150.195 327.99C147.455 329.7 145.155 332.06 143.425 334.79C142.385 336.43 141.535 338.19 140.885 340.02C140.525 341.03 140.225 342.05 139.965 343.09C139.705 344.13 139.645 345.29 139.045 346.19C138.645 346.8 137.625 346.75 137.425 345.98C136.995 344.3 137.845 342.15 138.355 340.54L138.345 340.55ZM165.205 307.2C165.205 307.2 165.235 307.24 165.255 307.26C165.275 307.2 165.305 307.14 165.335 307.08C165.295 307.12 165.255 307.16 165.215 307.2H165.205ZM176.955 308.24H176.935C176.875 308.74 176.815 309.23 176.745 309.72L176.955 308.24ZM180.495 275.54C180.495 275.54 180.495 275.62 180.485 275.66C180.505 275.64 180.515 275.62 180.535 275.6C180.525 275.58 180.515 275.56 180.495 275.54ZM203.445 256.53C203.375 256.53 203.305 256.53 203.235 256.52V256.54C203.305 256.54 203.375 256.55 203.445 256.56V256.54V256.53ZM207.675 319.42C207.675 319.42 207.645 319.36 207.635 319.32C207.625 319.32 207.615 319.31 207.595 319.3C207.575 319.35 207.565 319.4 207.545 319.45C207.585 319.45 207.625 319.44 207.675 319.43V319.42ZM178.225 290.04C178.925 290.53 179.765 290.85 180.615 290.95C181.465 291.05 182.355 290.67 183.165 290.95C183.725 291.15 183.835 291.73 183.485 292.18C183.055 292.73 182.285 292.9 181.525 292.9C181.465 298.02 180.825 303.16 180.385 308.25C180.145 310.98 179.895 313.71 179.645 316.44C179.525 317.79 179.405 319.15 179.255 320.5C179.125 321.69 179.075 322.93 178.745 324.09C179.285 324.58 179.765 325.19 180.265 325.65C181.105 326.42 182.025 327.1 182.995 327.69C185.035 328.93 187.335 329.77 189.705 330.04C192.095 330.31 194.515 330.02 196.795 329.28C197.945 328.9 199.045 328.39 200.105 327.81C200.905 327.38 201.635 326.85 202.435 326.42C202.355 326.34 202.295 326.24 202.265 326.11C201.785 324.2 202.015 321.97 202.015 319.98C201.835 320 201.655 319.98 201.495 319.91C198.675 319.52 196.035 318.35 193.665 316.73C192.275 315.77 191.005 314.66 189.865 313.4C189.145 312.59 187.815 311.28 187.485 310.07C186.995 309.33 187.785 308.18 188.685 308.74C196.445 313.54 206.235 314.59 214.015 309.24C217.755 306.67 220.465 302.9 221.655 298.52C222.945 293.77 222.715 288.78 222.635 283.91C222.595 281.18 222.665 278.28 222.515 275.4C218.965 274.99 215.735 273.61 212.885 271.46C210.665 269.79 208.185 267.4 206.895 264.73C204.995 269.2 200.815 272.95 196.995 275.58C194.605 277.23 192.005 278.56 189.285 279.58C187.955 280.08 186.435 280.63 184.895 280.94C185.095 281.17 185.255 281.43 185.375 281.73C185.455 281.93 185.225 282.11 185.045 282.07C183.255 281.62 181.845 280.82 179.935 281.26C178.045 281.7 176.695 283.2 176.315 285.09C175.935 286.99 176.625 288.91 178.235 290.03L178.225 290.04ZM199.885 318.33C199.885 318.33 199.885 318.33 199.895 318.33H199.885Z" fill="black"/>
        <path d="M182.445 283.95C181.635 284.02 180.685 284.28 180.135 284.91C179.815 285.27 179.625 285.73 179.575 286.21C179.535 286.61 179.645 286.99 179.545 287.39C179.455 287.74 179.065 287.77 178.815 287.58C177.785 286.76 178.425 284.75 179.185 283.96C180.075 283.03 181.485 282.7 182.585 283.42C182.835 283.58 182.725 283.93 182.445 283.95Z" fill="black"/>
        <path d="M199.265 294.2C199.525 294.57 199.605 295.03 199.795 295.44C200.015 295.9 200.295 296.32 200.665 296.68C201.355 297.37 202.215 297.76 203.085 298.17C203.425 298.33 203.355 298.94 202.975 299C201.685 299.2 200.505 298.65 199.565 297.77C198.715 296.98 197.725 295.57 198.045 294.35C198.205 293.76 198.945 293.74 199.265 294.19V294.2Z" fill="black"/>
        <path d="M185.265 282.4C185.265 282.4 185.295 282.44 185.265 282.44C185.235 282.44 185.235 282.4 185.265 282.4Z" fill="black"/>
        <path d="M203.205 277.8C203.555 278 203.535 278.67 203.085 278.73C202.065 278.88 201.045 278.67 200.015 278.7C199.025 278.73 198.005 278.87 197.065 279.16C196.805 279.24 196.575 278.88 196.795 278.69C198.385 277.32 201.315 276.69 203.215 277.79L203.205 277.8Z" fill="black"/>
        <path d="M214.935 278.55C216.515 277.43 219.215 278.12 220.465 279.45C220.645 279.64 220.465 280.02 220.195 279.92C219.405 279.64 218.535 279.49 217.685 279.46C216.805 279.43 215.925 279.64 215.055 279.49C214.585 279.4 214.615 278.78 214.935 278.56V278.55Z" fill="black"/>
        <path d="M200.995 38.94C201.445 39.28 201.615 40.01 201.485 40.55C201.485 40.59 201.465 40.63 201.445 40.67C201.425 41.03 201.265 41.35 200.955 41.56C200.335 41.97 199.545 41.76 199.195 41.11C198.925 40.61 198.975 39.81 199.265 39.32C199.625 38.73 200.435 38.52 200.995 38.95V38.94Z" fill="black"/>
        <path d="M217.605 38.9599C218.045 39.2299 218.215 39.7999 218.205 40.2899C218.205 40.4199 218.175 40.5499 218.125 40.6699C218.105 40.9199 218.005 41.1599 217.825 41.3399C217.285 41.8799 216.365 41.7599 215.985 41.1099C215.705 40.6299 215.735 39.8499 216.025 39.3899C216.355 38.8699 217.065 38.6299 217.605 38.9699V38.9599Z" fill="black"/>
        <path d="M185.045 12.41C185.535 12.71 185.525 13.04 185.045 13.41C184.925 14.04 184.685 14.16 184.315 13.78C183.995 13.66 183.765 13.41 183.535 13.18C183.125 12.78 182.765 12.34 182.415 11.89C181.955 11.29 181.555 10.64 181.195 9.96996C182.625 10.53 183.965 11.3 185.055 12.41H185.045ZM138.355 97.24C138.855 95.65 139.475 94.1 140.215 92.62C141.535 89.98 143.305 87.54 145.465 85.52C150.605 80.72 157.765 78.49 164.705 78.34C166.915 78.29 169.105 78.47 171.285 78.83C173.095 79.13 175.155 79.54 176.905 80.34C176.965 80.3 177.045 80.27 177.125 80.25C176.965 77.92 177.515 75.39 177.735 73.14C178.015 70.33 178.305 67.52 178.605 64.71C178.835 62.63 179.025 60.53 179.235 58.43C177.795 58.59 176.305 58.18 175.155 57.11C173.035 55.15 172.815 51.9 174.685 49.71C175.335 48.95 176.155 48.42 177.035 48.13C176.975 48.08 176.915 48.04 176.845 47.99C174.845 46.38 174.065 43.8 174.615 41.32C175.155 38.88 177.045 36.88 179.495 36.33C179.585 36.31 179.685 36.29 179.785 36.28C179.335 32.24 179.615 28.1 180.865 24.22C181.375 22.64 182.085 21.16 182.965 19.8C182.855 19.74 182.735 19.67 182.635 19.61C180.505 18.34 178.325 16.17 177.715 13.68C177.215 11.66 178.415 9.74996 180.355 9.65996C180.385 9.65996 180.405 9.67996 180.435 9.67996C180.915 11.31 181.755 12.78 182.995 13.99C183.895 14.86 185.595 15.67 186.445 14.26C187.395 12.69 185.505 11.18 184.415 10.39C183.415 9.65996 182.305 9.08996 181.145 8.69996C181.095 8.56996 181.045 8.43996 180.995 8.30996C180.225 6.17996 179.365 2.39996 181.535 0.759961C183.895 -1.03004 186.865 1.77996 188.175 3.61996C188.585 4.19996 188.935 4.80996 189.215 5.44996C189.315 5.98996 189.475 6.50996 189.585 7.04996C189.795 8.03996 189.975 9.03996 190.085 10.05C190.115 10.34 190.545 10.35 190.545 10.05C190.565 8.97996 190.585 7.69996 190.395 6.51996C190.415 6.48996 190.445 6.45996 190.465 6.43996C191.735 5.10996 193.545 5.07996 194.755 6.49996C195.715 7.62996 196.185 9.03996 196.265 10.51C201.315 9.29996 206.745 9.82996 211.565 11.9C211.695 11.92 211.835 11.96 211.955 12.06C211.975 12.07 211.985 12.08 212.005 12.1C213.515 12.79 214.975 13.63 216.325 14.62C219.615 17.03 222.135 20.35 223.245 24.31C224.365 28.31 224.475 32.54 224.525 36.66C224.575 40.49 224.795 44.37 224.615 48.21C226.885 49.14 228.375 51.45 228.005 53.98C227.595 56.75 225.235 58.46 222.605 58.46C221.485 61.14 219.845 63.57 217.635 65.61C213.655 69.29 208.635 71.2 203.495 71.49C203.715 73.08 203.635 74.83 203.695 76.34C203.755 78.12 204.055 80.11 203.875 81.93C205.575 81.27 207.695 81.11 209.385 80.83C211.675 80.45 214.005 80.26 216.325 80.28C220.575 80.34 224.825 81.33 228.485 83.52C231.615 85.4 234.235 88.01 236.375 90.96C238.705 94.18 240.875 98.22 241.625 102.16C241.885 103.53 240.035 104.03 239.545 102.73C238.815 100.81 238.265 98.88 237.365 97.03C236.585 95.42 235.675 93.87 234.645 92.4C232.665 89.61 230.155 87.12 227.215 85.37C223.655 83.25 219.565 82.44 215.445 82.42C213.365 82.41 211.285 82.6 209.205 82.82C207.585 82.99 205.705 83.5 204.005 83.47C205.305 87.42 203.765 92.13 199.595 93.58C196.665 94.6 193.105 93.23 191.475 90.66C191.025 91.56 190.345 92.38 189.595 92.97C187.595 94.55 184.965 94.87 182.585 94C177.835 92.27 175.245 86.62 176.515 81.8C174.525 81.52 172.535 80.98 170.545 80.76C168.175 80.5 165.765 80.42 163.385 80.58C158.755 80.91 154.135 82.22 150.185 84.68C147.445 86.39 145.145 88.75 143.415 91.48C142.375 93.12 141.525 94.88 140.875 96.71C140.515 97.72 140.215 98.74 139.955 99.78C139.695 100.82 139.635 101.98 139.035 102.89C138.635 103.5 137.615 103.45 137.415 102.68C136.985 101 137.835 98.85 138.345 97.23L138.355 97.24ZM175.555 50.08C173.795 51.91 173.915 54.78 175.785 56.48C176.795 57.4 178.095 57.71 179.325 57.51C179.605 54.83 179.935 52.15 180.415 49.5C180.345 49.49 180.275 49.48 180.205 49.47C179.465 49.36 178.745 49.12 178.075 48.78C177.145 48.91 176.245 49.34 175.545 50.07L175.555 50.08ZM180.685 30.71C180.605 31.32 180.545 31.94 180.495 32.55C180.535 32.34 180.575 32.14 180.615 31.93C180.645 31.53 180.685 31.13 180.725 30.74C180.715 30.74 180.705 30.72 180.695 30.71H180.685ZM189.095 12.6C189.095 12.6 189.105 12.64 189.115 12.67L189.155 12.59C189.155 12.59 189.115 12.6 189.095 12.61V12.6ZM192.755 25.88C192.705 25.91 192.645 25.94 192.595 25.96C192.655 25.94 192.715 25.92 192.765 25.9C192.765 25.89 192.765 25.88 192.755 25.87V25.88ZM194.655 9.65996C194.655 9.65996 194.655 9.68996 194.655 9.69996C194.655 9.72996 194.655 9.75996 194.665 9.79996C194.685 9.88996 194.715 9.96996 194.735 10.06C194.715 9.92996 194.685 9.79996 194.655 9.66996V9.65996ZM227.165 53.62C227.355 51.67 226.255 49.98 224.585 49.17C224.515 50.33 224.405 51.48 224.235 52.63C223.985 54.33 223.565 55.99 222.985 57.57C225.115 57.43 226.945 55.89 227.175 53.62H227.165ZM214.045 65.96C217.785 63.39 220.495 59.61 221.685 55.23C222.975 50.48 222.745 45.49 222.665 40.62C222.605 36.76 222.785 32.52 222.215 28.52C218.435 29.18 214.595 28.92 210.905 27.8C207.375 26.73 203.265 24.85 200.675 22.03C199.735 24.05 197.445 25.79 195.735 26.75C194.485 27.45 193.105 27.97 191.705 28.27C190.975 28.42 189.955 28.66 189.065 28.58C188.885 29.55 188.665 30.5 188.385 31.45C187.715 33.83 186.785 36.24 185.295 38.23C185.325 38.3 185.365 38.36 185.395 38.43C185.475 38.63 185.245 38.81 185.065 38.77C184.985 38.75 184.895 38.73 184.815 38.71C184.715 38.72 184.605 38.69 184.515 38.62C182.975 38.17 181.665 37.56 179.955 37.96C178.065 38.4 176.715 39.9 176.335 41.79C175.955 43.69 176.645 45.61 178.255 46.73C178.955 47.21 179.795 47.54 180.645 47.64C181.495 47.74 182.385 47.36 183.195 47.64C183.755 47.83 183.865 48.42 183.515 48.87C183.265 49.18 182.915 49.37 182.515 49.48C184.345 51.37 184.515 54.33 182.905 56.5L182.885 56.52C182.885 56.52 182.855 56.57 182.835 56.59C182.335 57.15 181.735 57.6 181.075 57.91C180.865 60.26 180.625 62.61 180.425 64.94C180.185 67.67 179.935 70.41 179.685 73.14C179.565 74.49 179.445 75.85 179.295 77.2C179.165 78.39 179.115 79.63 178.785 80.78C180.435 81.42 182.045 82.11 183.765 82.58C185.865 83.16 188.015 83.53 190.185 83.67C192.295 83.81 194.395 83.73 196.495 83.49C198.395 83.26 200.305 82.61 202.205 82.39C201.855 80.58 202.045 78.53 202.055 76.69C201.875 76.72 201.695 76.69 201.535 76.62C198.715 76.23 196.075 75.06 193.705 73.44C192.315 72.48 191.045 71.37 189.905 70.11C189.185 69.31 187.855 67.99 187.525 66.78C187.035 66.05 187.825 64.89 188.725 65.46C196.485 70.26 206.275 71.31 214.055 65.96H214.045ZM181.165 56.83C181.525 56.6 181.865 56.31 182.165 55.98C183.545 54.07 183.435 51.47 181.625 49.86C181.595 49.84 181.575 49.82 181.545 49.8C181.515 52.14 181.355 54.49 181.155 56.83H181.165ZM199.915 75.03C199.915 75.03 199.915 75.03 199.925 75.03H199.915ZM178.745 87.21C179.385 89.15 180.725 90.82 182.565 91.73C184.315 92.6 186.425 92.68 188.115 91.62C189.435 90.78 190.175 89.6 190.625 88.22C190.595 87.94 190.585 87.66 190.595 87.37C190.635 86.56 191.835 86.33 192.055 87.17C192.915 90.51 195.735 93.16 199.355 91.77C201.025 91.12 202.215 89.76 202.665 88.03C203.065 86.51 202.805 85.07 202.585 83.6C200.905 84.51 198.735 84.83 196.925 85.09C194.635 85.43 192.285 85.5 189.975 85.33C186.145 85.06 181.805 84.27 178.335 82.37C178.235 84 178.225 85.61 178.755 87.21H178.745ZM185.065 13.42C184.945 14.05 184.705 14.17 184.335 13.79C184.015 13.67 183.785 13.42 183.555 13.19C183.145 12.79 182.785 12.35 182.435 11.9C181.975 11.3 181.575 10.65 181.215 9.97996C182.645 10.54 183.985 11.31 185.075 12.42C185.565 12.72 185.555 13.05 185.075 13.42H185.065Z" fill="black"/>
        <path d="M185.265 39.13C185.265 39.13 185.235 39.09 185.265 39.09C185.295 39.09 185.295 39.13 185.265 39.13Z" fill="black"/>
        <path d="M203.085 35.2699C202.065 35.4199 201.045 35.2099 200.015 35.2399C199.025 35.2699 198.005 35.4099 197.065 35.6999C196.805 35.7799 196.575 35.4199 196.795 35.2299C198.385 33.8599 201.315 33.2299 203.215 34.3299C203.565 34.5299 203.545 35.1999 203.095 35.2599L203.085 35.2699Z" fill="black"/>
        <path d="M214.935 33.4399C216.515 32.3199 219.215 33.0099 220.465 34.3399C220.645 34.5299 220.465 34.9099 220.195 34.8099C219.405 34.5299 218.535 34.3799 217.685 34.3499C216.805 34.3199 215.925 34.5299 215.055 34.3799C214.585 34.2899 214.615 33.6699 214.935 33.4499V33.4399Z" fill="black"/>
        <path d="M208.775 49.33C209.445 49.26 210.155 49.35 210.635 48.76C211.365 47.86 210.315 46.98 209.405 46.91C209.055 46.89 208.735 46.63 208.745 46.25C208.835 43.42 208.875 40.6 209.215 37.79C209.265 37.37 209.835 37.36 209.875 37.79C210.105 40.42 210.075 43.05 210.065 45.69C211.465 46.04 212.705 47.27 212.345 48.83C211.975 50.39 209.835 51.52 208.415 50.66C207.765 50.27 208.105 49.4 208.775 49.33Z" fill="black"/>
        <path d="M201.475 55.08C200.645 54.17 200.225 53.07 200.265 51.84C200.285 51.23 201.165 51.09 201.335 51.69C201.695 52.92 202.465 53.88 203.605 54.46C204.095 54.71 204.855 54.81 205.035 55.4C205.155 55.79 204.955 56.16 204.585 56.32C203.575 56.74 202.125 55.78 201.475 55.08Z" fill="black"/>
        <path d="M182.745 40.9699C182.425 41.0999 181.995 41.0599 181.645 41.1399C181.245 41.2299 180.905 41.3599 180.595 41.6499C179.895 42.3199 180.135 43.0299 180.185 43.8799C180.215 44.3499 179.515 44.6699 179.205 44.2899C178.385 43.2999 178.825 41.5899 179.725 40.7899C180.175 40.3899 180.805 40.1099 181.415 40.0999C181.885 40.0899 182.635 40.2499 182.845 40.7299C182.895 40.8399 182.845 40.9299 182.745 40.9799V40.9699Z" fill="black"/>
        <path d="M332.645 282.26C333.095 282.6 333.265 283.33 333.135 283.87C333.135 283.91 333.115 283.95 333.095 283.99C333.075 284.35 332.915 284.67 332.605 284.88C331.985 285.29 331.195 285.08 330.845 284.43C330.575 283.93 330.625 283.13 330.915 282.64C331.275 282.05 332.085 281.84 332.645 282.27V282.26Z" fill="black"/>
        <path d="M349.265 282.27C349.705 282.54 349.875 283.11 349.865 283.6C349.865 283.73 349.835 283.86 349.785 283.98C349.765 284.23 349.665 284.47 349.485 284.65C348.945 285.19 348.025 285.07 347.645 284.41C347.365 283.93 347.395 283.15 347.685 282.69C348.015 282.17 348.725 281.93 349.265 282.27Z" fill="black"/>
        <path d="M270.005 340.55C270.505 338.96 271.125 337.41 271.865 335.93C273.185 333.29 274.955 330.85 277.115 328.83C282.245 324.02 289.415 321.8 296.345 321.65C298.555 321.6 300.745 321.78 302.935 322.14C304.825 322.45 306.985 322.88 308.785 323.76C308.585 321.38 309.155 318.77 309.385 316.45C309.665 313.64 309.955 310.83 310.255 308.02C310.365 307.01 310.465 305.99 310.565 304.97C308.395 304.21 306.255 303.37 304.165 302.43C304.515 300.62 304.595 298.71 304.795 296.91C304.845 296.48 304.125 296.39 304.055 296.81C303.765 298.49 303.345 300.24 303.155 301.97C303.015 301.91 302.875 301.84 302.745 301.78C302.135 301.49 301.525 301.18 300.915 300.87C300.935 300.4 300.955 299.93 300.995 299.45C301.185 296.8 301.795 294.3 302.375 291.73C302.445 291.4 301.995 291.29 301.885 291.6C300.995 293.94 300.555 296.51 300.285 298.99C300.225 299.48 300.185 299.97 300.155 300.47C299.795 300.28 299.435 300.07 299.085 299.87C297.935 299.2 296.515 298.51 295.635 297.49C295.425 297.24 295.435 296.9 295.605 296.67C295.975 294.81 296.455 292.97 296.885 291.13C297.295 289.35 297.635 287.51 298.305 285.8C298.855 284.41 299.635 283.22 300.875 282.37C302.425 281.3 304.265 280.84 304.975 278.9C305.515 277.41 305.465 275.77 305.675 274.22C305.825 273.08 306.215 272.05 306.745 271.03C308.095 268.43 310.105 266.14 312.155 264.09C313.385 262.85 314.685 261.66 316.085 260.6C316.595 260.21 317.105 259.83 317.645 259.47C318.535 258.62 319.485 257.83 320.505 257.12C328.695 251.42 340.035 252.08 347.995 257.92C350.305 259.61 352.235 261.75 353.565 264.25C353.605 264.28 353.635 264.31 353.665 264.36C357.415 270.63 358.645 278.39 358.265 285.61C358.145 287.88 357.945 290.18 358.285 292.44C358.545 294.13 359.125 295.71 359.665 297.33C360.805 300.72 360.865 304.14 360.665 307.68C360.645 307.95 360.525 308.14 360.355 308.27C360.315 308.36 360.235 308.44 360.115 308.48C358.805 308.97 357.395 309.21 355.985 309.38C355.935 307.76 355.965 306.1 355.715 304.5C355.665 304.13 355.145 304.27 355.115 304.58C354.945 306.2 355.045 307.86 355.085 309.48C354.695 309.52 354.315 309.56 353.935 309.6C351.965 309.82 349.985 309.94 347.995 310.04C344.255 312.98 339.765 314.54 335.185 314.8C335.395 316.39 335.325 318.14 335.385 319.65C335.445 321.43 335.745 323.42 335.565 325.24C337.265 324.58 339.385 324.42 341.075 324.14C343.365 323.76 345.695 323.57 348.015 323.59C352.255 323.64 356.515 324.63 360.175 326.83C363.305 328.71 365.925 331.32 368.065 334.26C370.395 337.48 372.565 341.52 373.315 345.46C373.575 346.83 371.725 347.33 371.235 346.03C370.505 344.11 369.955 342.18 369.055 340.33C368.275 338.72 367.365 337.16 366.335 335.7C364.365 332.91 361.845 330.42 358.905 328.67C355.345 326.55 351.255 325.74 347.135 325.72C345.045 325.71 342.975 325.9 340.895 326.12C339.045 326.31 336.865 326.96 334.975 326.72C333.515 329.55 331.875 332.31 330.165 334.98C328.565 337.48 326.845 340 324.795 342.16C324.835 342.19 324.885 342.22 324.925 342.26C325.065 342.37 325.155 342.51 325.215 342.65C325.405 342.87 325.515 343.14 325.525 343.43C325.545 344.15 325.055 344.8 324.385 345.03C322.915 345.52 321.575 343.76 322.495 342.5C322.645 342.29 322.845 342.13 323.065 342.02C322.105 340.92 321.245 339.71 320.335 338.59C319.025 336.95 317.695 335.33 316.375 333.7C314.155 330.95 311.865 328.24 309.825 325.35C309.785 325.32 309.745 325.28 309.715 325.25C309.555 325.3 309.385 325.29 309.245 325.22C306.905 325.03 304.575 324.33 302.245 324.07C299.875 323.81 297.465 323.73 295.085 323.9C290.455 324.23 285.835 325.54 281.885 328C279.145 329.71 276.845 332.07 275.115 334.8C274.075 336.44 273.225 338.2 272.575 340.03C272.215 341.04 271.915 342.06 271.655 343.1C271.395 344.14 271.335 345.3 270.735 346.2C270.325 346.81 269.305 346.76 269.115 345.99C268.685 344.31 269.535 342.16 270.045 340.55H270.005ZM300.165 285.54C300.165 285.54 300.165 285.54 300.165 285.53C300.165 285.51 300.185 285.5 300.185 285.48C300.175 285.5 300.165 285.52 300.155 285.54H300.165ZM356.015 274.81C356.015 274.81 356.045 274.81 356.065 274.81C356.045 274.7 356.015 274.59 355.995 274.48C355.995 274.59 356.005 274.7 356.015 274.81ZM308.095 281.3C308.095 281.3 308.095 281.33 308.085 281.35C308.085 281.35 308.105 281.34 308.105 281.33C308.105 281.33 308.105 281.32 308.095 281.31V281.3ZM310.025 268.7C310.025 268.7 310.035 268.7 310.045 268.7C310.085 268.64 310.125 268.58 310.165 268.52C310.115 268.58 310.075 268.64 310.035 268.7H310.025ZM321.425 270.38C321.425 270.38 321.425 270.41 321.425 270.42C321.435 270.42 321.445 270.42 321.455 270.42C321.455 270.4 321.435 270.39 321.435 270.37L321.425 270.38ZM322.975 260.86C322.975 260.86 322.945 260.9 322.925 260.92C322.975 260.89 323.025 260.85 323.075 260.82C323.045 260.83 323.005 260.85 322.975 260.87V260.86ZM317.085 333.55C318.355 335.13 319.615 336.72 320.865 338.32C321.765 339.48 322.755 340.64 323.555 341.89C323.785 341.86 324.005 341.89 324.225 341.96C326.205 339.49 328.145 337.03 329.865 334.36C331.455 331.89 332.885 329.33 334.455 326.85C330.765 329.07 325.705 329.69 321.565 329.45C319.225 329.31 316.885 328.84 314.685 328C313.735 327.64 312.605 327.2 311.565 326.62C313.405 328.93 315.225 331.25 317.075 333.55H317.085ZM312.265 324.95C313.255 325.5 314.265 326.01 315.325 326.4C317.445 327.2 319.685 327.63 321.945 327.76C324.175 327.89 326.415 327.74 328.605 327.3C330.395 326.94 332.115 326.36 333.865 325.86C333.475 324.02 333.675 321.9 333.675 320.01C333.495 320.03 333.315 320.01 333.155 319.94C330.335 319.55 327.695 318.38 325.325 316.76C323.935 315.8 322.665 314.69 321.535 313.43C320.815 312.62 319.485 311.31 319.155 310.1C318.665 309.36 319.455 308.21 320.355 308.77C328.115 313.57 337.905 314.62 345.685 309.27C349.425 306.7 352.135 302.93 353.325 298.55C354.615 293.8 354.385 288.81 354.305 283.94C354.265 281.58 354.325 279.09 354.235 276.59C351.695 276.78 348.795 275.58 346.655 274.53C344.315 273.38 341.755 271.78 340.085 269.67C340.275 268.06 339.895 266.16 339.565 264.8C339.045 262.63 338.125 260.33 336.575 258.7C336.245 258.36 335.685 258.8 335.925 259.2C336.025 259.37 336.125 259.53 336.215 259.7C336.215 259.7 336.205 259.7 336.195 259.7C336.205 259.7 336.215 259.7 336.225 259.71C337.235 261.42 338.155 263.08 338.655 265.05C338.925 266.13 339.085 267.23 339.125 268.35C339.145 268.84 339.105 269.34 339.095 269.84C336.855 272.26 333.975 273.88 330.725 274.79C328.775 275.34 326.725 275.65 324.695 275.64C323.445 275.64 321.405 275.7 320.095 275.01C319.945 275.93 319.475 276.82 319.135 277.66C318.605 278.99 318.045 280.32 317.455 281.63C317.355 281.85 317.185 281.97 316.995 282.02C316.925 282.1 316.815 282.13 316.715 282.11C314.935 281.66 313.515 280.86 311.605 281.3C309.715 281.74 308.365 283.24 307.985 285.13C307.605 287.03 308.295 288.95 309.905 290.07C310.605 290.56 311.445 290.88 312.295 290.98C313.145 291.08 314.035 290.7 314.845 290.98C315.405 291.18 315.515 291.76 315.165 292.21C314.725 292.76 313.965 292.93 313.205 292.93C313.145 298.05 312.505 303.19 312.065 308.28C311.835 311.01 311.575 313.74 311.325 316.47C311.205 317.82 311.085 319.18 310.945 320.53C310.825 321.64 310.775 322.79 310.505 323.88C311.115 324.21 311.685 324.63 312.285 324.96L312.265 324.95Z" fill="black"/>
        <path d="M316.915 282.44C316.915 282.44 316.885 282.4 316.915 282.4C316.945 282.4 316.945 282.44 316.915 282.44Z" fill="black"/>
        <path d="M334.735 278.58C333.715 278.73 332.695 278.52 331.665 278.55C330.675 278.58 329.655 278.72 328.715 279.01C328.455 279.09 328.225 278.73 328.445 278.54C330.035 277.17 332.965 276.54 334.865 277.64C335.215 277.84 335.195 278.51 334.745 278.57L334.735 278.58Z" fill="black"/>
        <path d="M346.595 277.75C348.175 276.63 350.875 277.32 352.125 278.65C352.305 278.84 352.125 279.22 351.855 279.12C351.065 278.84 350.195 278.69 349.345 278.66C348.465 278.63 347.585 278.84 346.715 278.69C346.245 278.6 346.275 277.98 346.595 277.76V277.75Z" fill="black"/>
        <path d="M340.435 292.64C341.105 292.57 341.815 292.66 342.295 292.07C343.025 291.17 341.975 290.29 341.065 290.22C340.715 290.2 340.395 289.94 340.405 289.56C340.495 286.73 340.535 283.91 340.875 281.1C340.925 280.68 341.495 280.67 341.535 281.1C341.765 283.73 341.735 286.36 341.725 289C343.125 289.35 344.365 290.58 344.005 292.14C343.635 293.7 341.495 294.83 340.075 293.97C339.425 293.58 339.765 292.71 340.435 292.64Z" fill="black"/>
        <path d="M333.125 298.4C332.295 297.49 331.875 296.39 331.915 295.15C331.935 294.54 332.815 294.4 332.985 295C333.345 296.23 334.115 297.19 335.255 297.77C335.745 298.02 336.505 298.12 336.685 298.71C336.805 299.1 336.605 299.47 336.235 299.63C335.225 300.05 333.775 299.09 333.125 298.39V298.4Z" fill="black"/>
        <path d="M314.275 284.08C314.095 284.31 313.715 284.19 313.455 284.26C313.035 284.37 312.615 284.63 312.335 284.96C312.005 285.34 311.855 285.85 311.745 286.33C311.645 286.79 311.655 287.21 311.305 287.57C311.115 287.75 310.745 287.79 310.565 287.57C309.815 286.64 310.555 284.93 311.265 284.15C312.015 283.33 313.215 283.05 314.175 283.67C314.285 283.74 314.345 283.87 314.315 284.01C314.315 284.04 314.295 284.07 314.275 284.09V284.08Z" fill="black"/>
        <path d="M336.215 259.69C336.215 259.69 336.215 259.69 336.215 259.7C336.215 259.7 336.215 259.7 336.225 259.7C336.225 259.7 336.235 259.7 336.245 259.7H336.215V259.69Z" fill="white"/>
        <path d="M340.225 50.01C340.665 49.92 341.145 50 341.565 49.85C342.355 49.57 342.595 48.71 342.675 47.97C342.815 46.67 342.765 45.34 342.795 44.04C342.855 41.38 343.015 38.75 343.245 36.09C343.275 35.78 343.715 35.77 343.735 36.09C344.005 39.79 344.085 43.46 344.135 47.17C344.155 48.4 344.105 49.73 343.225 50.69C342.435 51.54 341.095 52.05 340.035 51.46C339.465 51.14 339.545 50.15 340.225 50.01Z" fill="black"/>
        <path d="M332.565 51.4999C332.815 52.6099 332.835 53.6399 333.415 54.6599C333.875 55.4699 334.775 56.0799 335.105 56.9299C335.175 57.1099 334.995 57.2599 334.845 57.2799C333.745 57.3899 332.645 56.0699 332.135 55.2299C331.475 54.1599 330.965 52.7499 331.295 51.4999C331.455 50.8899 332.415 50.8599 332.565 51.4999Z" fill="black"/>
        <path d="M333.575 41.55C332.955 41.96 332.165 41.75 331.815 41.1C331.545 40.6 331.595 39.8 331.885 39.31C332.245 38.72 333.055 38.51 333.615 38.94C334.065 39.28 334.235 40.01 334.105 40.55C334.105 40.59 334.085 40.63 334.065 40.67C334.045 41.03 333.885 41.35 333.575 41.56V41.55Z" fill="black"/>
        <path d="M351.125 38.9599C351.565 39.2299 351.735 39.7999 351.725 40.2899C351.725 40.4199 351.695 40.5499 351.655 40.6699C351.635 40.9199 351.535 41.1599 351.355 41.3399C350.815 41.8799 349.895 41.7599 349.515 41.1099C349.235 40.6299 349.265 39.8499 349.555 39.3899C349.885 38.8699 350.595 38.6299 351.135 38.9699L351.125 38.9599Z" fill="black"/>
        <path d="M316.045 40.64C315.465 39.72 313.775 39.75 313.305 40.75C312.935 41.53 313.775 42.89 312.395 42.96C312.075 42.98 311.785 42.77 311.615 42.51C310.675 41.05 311.655 39.09 313.175 38.51C314.635 37.95 316.545 38.64 316.815 40.31C316.885 40.76 316.315 41.06 316.045 40.63V40.64Z" fill="black"/>
        <path d="M330.925 31.26C331.645 31.09 332.555 30.94 333.425 30.98C334.105 30.93 334.765 31.01 335.325 31.27C336.675 31.91 336.775 33.5 335.645 34.4C334.205 35.54 327.355 37.05 327.635 33.67C327.755 32.19 329.735 31.55 330.935 31.26H330.925Z" fill="black"/>
        <path d="M348.235 31.6C348.845 31.29 349.605 31.27 350.345 31.38C350.685 31.38 351.015 31.43 351.305 31.47C352.375 31.63 354.185 32.11 354.415 33.39C354.945 36.34 349.245 35.37 347.995 34.39C346.995 33.61 347.065 32.19 348.235 31.61V31.6Z" fill="black"/>
        <path d="M338.585 14.67C338.715 14.36 338.925 14.08 339.125 13.82C339.465 13.36 339.845 12.93 340.245 12.53C340.735 12.03 341.275 11.57 341.835 11.15C341.725 11.64 341.595 12.13 341.425 12.6C341.115 13.45 340.385 15.53 339.455 15.92C338.065 16.51 338.395 15.15 338.585 14.67ZM264.805 97C265.415 95.35 266.155 93.74 267.055 92.22C268.695 89.46 270.845 87.01 273.385 85.04C279.485 80.3 287.525 78.39 295.135 78.33C297.605 78.31 300.065 78.51 302.505 78.89C304.485 79.2 306.615 79.61 308.525 80.38C308.575 78.34 308.985 76.22 309.175 74.28C309.475 71.31 309.775 68.34 310.095 65.38C310.685 59.95 311.065 54.44 312.075 49.06C311.235 48.77 310.445 48.34 309.745 47.79C307.605 46.09 306.695 43.4 307.175 40.73C307.625 38.22 309.305 36.08 311.675 35.17C311.325 31.87 311.285 28.55 311.255 25.23C311.235 21.83 311.175 18.31 311.635 14.94C312.035 12.03 313.625 8.77998 316.805 8.16998C318.805 7.78998 321.285 9.17998 321.785 11.13C324.665 7.66998 329.115 5.66998 333.595 5.33998C335.985 5.15998 338.895 5.33998 340.725 7.08998C341.525 7.85998 341.985 8.92998 342.035 9.98998C342.015 10.11 342.005 10.23 341.985 10.36C340.555 11.04 339.325 12 338.335 13.29C337.585 14.27 336.745 16.05 338.165 16.92C339.735 17.87 341.075 15.93 341.705 14.78C342.415 13.48 342.905 12.07 343.115 10.61C343.555 10.43 343.985 10.26 344.395 10.09C346.095 9.40998 347.825 8.93998 349.645 8.71998C353.045 8.30998 356.925 8.66998 359.735 10.81C362.235 12.72 363.485 15.85 362.485 18.91C361.655 21.46 359.695 23.34 357.305 24.36C357.595 29 357.725 33.66 357.855 38.31C358.005 43.69 358.405 49.19 357.285 54.49C355.295 63.95 347.005 70.62 337.455 71.34C337.305 71.35 337.165 71.36 337.015 71.36C337.255 72.99 337.175 74.78 337.235 76.34C337.305 78.15 337.605 80.16 337.405 82C338.765 81.53 340.295 81.37 341.685 81.13C343.495 80.82 345.315 80.56 347.145 80.43C350.985 80.13 354.875 80.27 358.605 81.24C364.825 82.86 370.015 86.84 373.765 91.99C375.915 94.95 377.935 98.56 378.735 102.16C379.045 103.54 377.165 104 376.655 102.73C375.165 99 373.725 95.49 371.195 92.3C368.885 89.39 366.025 86.89 362.725 85.17C358.755 83.1 354.295 82.41 349.865 82.42C347.595 82.42 345.325 82.62 343.065 82.84C341.075 83.03 338.895 83.6 336.885 83.41C334.555 89.19 328.115 92.97 321.935 92.45C318.795 92.19 315.875 90.94 313.425 88.98C312.205 88 311.135 86.86 310.215 85.59C309.505 84.61 308.425 83.13 308.395 81.81C306.795 81.61 305.195 81.26 303.605 81.04C301.455 80.74 299.295 80.56 297.125 80.51C293.115 80.41 289.085 80.82 285.215 81.85C279.025 83.5 273.375 86.78 269.755 92.17C268.725 93.7 267.855 95.34 267.185 97.05C266.825 97.97 266.515 98.91 266.245 99.87C265.965 100.89 265.845 101.99 265.265 102.89C264.885 103.49 263.795 103.47 263.645 102.68C263.295 100.85 264.195 98.7 264.815 97H264.805ZM335.355 7.54998C335.355 7.54998 335.395 7.56998 335.405 7.57998C335.415 7.57998 335.425 7.55998 335.445 7.55998C335.415 7.55998 335.385 7.55998 335.355 7.55998V7.54998ZM345.595 18.12C345.535 18.19 345.475 18.26 345.415 18.33C345.445 18.32 345.475 18.31 345.495 18.3C345.535 18.29 345.585 18.28 345.625 18.27C345.615 18.22 345.595 18.17 345.595 18.11V18.12ZM346.795 20.33C346.795 20.33 346.845 20.34 346.865 20.35C346.865 20.33 346.865 20.31 346.865 20.29C346.835 20.3 346.815 20.31 346.785 20.32L346.795 20.33ZM311.775 83.82C312.525 84.97 313.445 86 314.475 86.89C316.535 88.67 319.175 89.92 321.885 90.25C327.625 90.94 332.725 87.58 335.925 83.07C335.865 83 335.815 82.91 335.785 82.8C335.275 80.78 335.555 78.4 335.535 76.32C335.535 76.05 335.525 75.77 335.515 75.48C334.545 75.75 333.425 75.52 332.465 75.32C331.015 75.02 329.625 74.52 328.275 73.91C325.555 72.67 322.975 70.82 321.125 68.46C321.035 68.35 320.985 68.24 320.965 68.13C320.775 67.5 321.355 66.71 322.145 66.89C324.275 67.37 326.345 68.07 328.495 68.48C330.795 68.92 333.135 69.17 335.475 69.17C339.895 69.16 344.165 68.06 347.865 65.59C351.805 62.97 354.395 59 355.495 54.43C356.695 49.42 356.385 44.16 356.305 39.05C356.225 34.29 356.135 29.51 356.205 24.74C355.985 24.81 355.765 24.87 355.545 24.92C353.595 25.39 351.595 25.37 349.625 25.07C347.675 24.78 345.115 24.31 343.445 23.16C342.715 24.3 341.515 25.19 340.395 25.84C338.645 26.85 336.565 27.35 334.555 27.41C332.505 27.46 330.465 26.95 328.615 26.09C327.345 25.5 325.765 24.58 324.795 23.37C324.455 25.45 323.355 27.6 322.395 29.26C321.085 31.51 319.405 33.66 317.385 35.34C318.155 35.72 318.795 36.29 319.165 37.07C319.255 37.27 319.105 37.55 318.855 37.47C316.785 36.83 315.125 35.95 312.885 36.55C310.765 37.11 309.295 38.9 308.915 41.03C308.555 43.07 309.295 45.15 310.965 46.39C311.795 47.01 312.805 47.43 313.835 47.55C314.785 47.67 315.825 47.23 316.715 47.53C317.275 47.72 317.385 48.32 317.035 48.76C316.285 49.73 314.495 49.56 313.415 49.4C313.315 49.38 313.215 49.36 313.105 49.34C313.055 54.77 312.365 60.22 311.895 65.62C311.645 68.51 311.375 71.39 311.105 74.27C310.975 75.67 310.855 77.08 310.705 78.47C310.605 79.41 310.545 80.37 310.375 81.31C310.955 82.05 311.285 83.06 311.785 83.81L311.775 83.82ZM339.465 15.92C338.075 16.51 338.405 15.15 338.595 14.67C338.725 14.36 338.935 14.08 339.135 13.82C339.475 13.36 339.855 12.93 340.255 12.53C340.745 12.03 341.285 11.57 341.845 11.15C341.735 11.64 341.605 12.13 341.435 12.6C341.125 13.45 340.395 15.53 339.465 15.92Z" fill="black"/>
        <path d="M333.095 164.54C333.075 164.9 332.915 165.22 332.605 165.43C331.985 165.84 331.195 165.63 330.845 164.98C330.575 164.48 330.625 163.68 330.915 163.19C331.275 162.6 332.085 162.39 332.645 162.82C333.095 163.16 333.265 163.89 333.135 164.43C333.135 164.47 333.115 164.51 333.095 164.55V164.54Z" fill="black"/>
        <path d="M349.485 165.21C348.945 165.75 348.025 165.63 347.645 164.97C347.365 164.49 347.395 163.71 347.685 163.25C348.015 162.73 348.725 162.49 349.265 162.83C349.705 163.1 349.875 163.67 349.865 164.16C349.865 164.29 349.835 164.42 349.785 164.54C349.765 164.79 349.665 165.03 349.485 165.21Z" fill="black"/>
        <path d="M270.005 221.12C270.505 219.54 271.125 217.98 271.865 216.5C273.185 213.86 274.955 211.42 277.115 209.4C281.065 205.7 286.215 203.54 291.545 202.66C291.555 202.64 291.565 202.63 291.585 202.61C292.915 201.26 294.105 199.94 294.985 198.24C295.825 196.62 296.385 194.85 296.785 193.07C297.675 189.12 297.655 185.06 297.845 181.03C298.045 176.79 298.465 172.47 300.245 168.56C301.965 164.79 304.875 161.87 307.165 158.48C309.195 155.48 310.725 152.13 312.285 148.85C312.355 148.59 312.435 148.34 312.515 148.09C313.905 143.79 316.805 140.25 320.495 137.68C328.685 131.98 340.025 132.64 347.985 138.48C350.055 140 351.825 141.88 353.125 144.06C355.525 147.72 356.975 151.77 357.685 156.1C358.285 159.76 358.365 163.56 359.405 167.14C360.765 171.82 362.635 176.3 363.685 181.08C364.655 185.5 365.085 190.04 364.455 194.53C363.845 198.93 362.215 203.52 359.155 206.84C359.485 207.02 359.815 207.19 360.135 207.39C363.265 209.27 365.885 211.88 368.025 214.82C370.355 218.04 372.525 222.08 373.275 226.02C373.535 227.39 371.685 227.89 371.195 226.59C370.465 224.67 369.915 222.74 369.015 220.89C368.235 219.28 367.325 217.72 366.295 216.26C364.325 213.47 361.805 210.98 358.865 209.23C355.305 207.11 351.215 206.3 347.095 206.28C345.005 206.27 342.935 206.46 340.855 206.68C339.265 206.85 337.415 207.35 335.735 207.33C332.635 209.18 328.735 209.88 325.215 210.27C321.425 210.7 317.565 210.61 313.805 209.99C308.625 209.14 303.295 207.27 298.765 204.37C297.535 204.34 296.295 204.35 295.065 204.44C290.435 204.77 285.815 206.08 281.865 208.54C279.125 210.25 276.825 212.61 275.095 215.34C274.055 216.98 273.205 218.74 272.555 220.57C272.195 221.58 271.895 222.6 271.635 223.64C271.375 224.67 271.315 225.84 270.715 226.74C270.305 227.35 269.285 227.3 269.095 226.53C268.665 224.85 269.515 222.7 270.025 221.08L270.005 221.12ZM354.305 164.5C354.245 160.81 354.405 156.78 353.925 152.94C351.835 153.6 349.695 154.09 347.535 154.43C347.445 153.47 347.165 152.47 346.975 151.67C346.605 150.11 346.135 148.45 345.325 147.06C345.225 146.88 344.945 147 344.995 147.2C345.385 148.69 345.905 150.13 346.175 151.65C346.335 152.55 346.295 153.6 346.395 154.59C345.495 154.71 344.595 154.8 343.695 154.87C343.765 153.4 343.575 151.84 343.395 150.47C343.095 148.13 342.475 145.86 341.665 143.65C341.585 143.44 341.275 143.52 341.325 143.75C341.825 145.93 342.135 148.15 342.275 150.39C342.375 151.9 342.255 153.45 342.275 154.97C340.585 155.06 338.895 155.08 337.205 155.03C334.315 154.95 331.435 154.7 328.565 154.3C327.425 154.14 326.215 153.99 325.005 153.79C325.745 151.73 325.965 149.4 325.875 147.32C325.855 146.92 325.315 146.94 325.275 147.32C325.085 148.93 324.765 150.54 324.295 152.1C324.145 152.6 323.975 153.09 323.785 153.57C322.805 153.37 321.845 153.12 320.935 152.78C320.845 154.61 320.115 156.49 319.435 158.13C319.045 159.06 318.635 159.98 318.145 160.85C317.915 161.26 317.695 161.76 317.375 162.13C317.965 162.39 318.555 162.64 319.145 162.89C321.575 163.9 324.075 164.84 326.425 166.03C326.455 164.85 326.865 163.67 327.695 162.69C329.515 160.55 332.705 160.2 334.935 161.92C336.065 162.79 336.735 164.01 336.935 165.31C337.825 164.74 338.965 164.51 340.115 164.56C340.115 164.49 340.095 164.41 340.095 164.33C340.005 163.4 339.815 162.37 340.085 161.45C340.155 161.22 340.475 161.18 340.595 161.39C341.145 162.32 341.265 163.59 341.395 164.74C342.165 164.92 342.895 165.23 343.475 165.66C343.565 164.6 343.975 163.56 344.715 162.68C346.535 160.54 349.725 160.19 351.955 161.91C353.225 162.9 353.915 164.32 354.015 165.8C354.115 165.75 354.205 165.71 354.295 165.66C354.305 165.66 354.315 165.65 354.325 165.64C354.325 165.26 354.315 164.87 354.305 164.48V164.5ZM328.795 169.46C330.675 171.17 333.525 170.77 335.165 168.95C336.545 167.04 336.435 164.44 334.625 162.83C332.875 161.27 330.195 161.35 328.565 163.05C326.805 164.88 326.925 167.75 328.795 169.45V169.46ZM345.825 169.46C347.715 171.17 350.555 170.77 352.195 168.95C353.575 167.04 353.465 164.44 351.655 162.83C349.905 161.27 347.225 161.35 345.595 163.05C343.835 164.88 343.955 167.75 345.825 169.45V169.46ZM342.215 199.38C342.215 199.38 342.245 199.32 342.265 199.29C342.235 199.32 342.205 199.34 342.175 199.37C342.195 199.37 342.205 199.37 342.215 199.37V199.38ZM338.685 205.06C338.685 205.06 338.675 205.06 338.665 205.04C338.665 205.04 338.665 205.05 338.665 205.06H338.685ZM313.925 208.03C317.505 208.68 321.155 208.84 324.785 208.53C327.925 208.26 330.925 207.42 333.985 206.79C333.975 206.76 333.965 206.73 333.955 206.71C333.475 204.8 333.695 202.57 333.705 200.58C333.525 200.6 333.345 200.58 333.185 200.51C330.365 200.12 327.725 198.95 325.355 197.33C323.965 196.37 322.695 195.26 321.565 194C320.845 193.2 319.515 191.89 319.185 190.67C318.695 189.93 319.485 188.78 320.385 189.34C328.145 194.15 337.935 195.19 345.715 189.84C349.455 187.27 352.165 183.5 353.355 179.12C354.475 174.98 354.445 170.66 354.365 166.39C354.265 166.44 354.145 166.48 354.045 166.53C353.975 167.56 353.615 168.59 352.955 169.48C352.955 169.48 352.945 169.49 352.935 169.5C352.925 169.52 352.905 169.55 352.885 169.57C350.925 171.77 347.445 172.16 345.215 170.1C344.085 169.05 343.495 167.63 343.485 166.2C342.835 165.94 342.195 165.7 341.525 165.55V165.59C341.765 167.12 341.975 168.65 342.175 170.18C342.335 171.43 342.775 172.98 341.895 174.06C341.175 174.95 339.955 174.91 338.915 174.76C337.945 174.61 338.365 173.15 339.315 173.29C340.065 173.4 340.955 173.31 340.975 172.37C340.985 171.89 340.895 171.4 340.835 170.93C340.705 169.83 340.555 168.73 340.445 167.62C340.365 166.88 340.295 166.14 340.225 165.4C339.045 165.38 338.105 165.81 337.035 166.16C337.035 167.32 336.685 168.49 335.935 169.49C335.935 169.49 335.925 169.5 335.915 169.51C335.905 169.53 335.885 169.56 335.865 169.58C333.905 171.78 330.425 172.17 328.195 170.11C327.135 169.13 326.555 167.84 326.465 166.51C323.745 165.71 321.105 164.6 318.475 163.56C317.985 163.37 317.475 163.18 316.965 162.99C316.965 163 316.965 163.02 316.945 163.02C316.925 163.02 316.925 162.99 316.945 162.98C315.995 162.63 315.035 162.28 314.085 161.89C313.315 161.72 312.525 161.65 311.635 161.86C309.745 162.3 308.395 163.8 308.015 165.69C307.635 167.59 308.325 169.51 309.935 170.63C310.635 171.11 311.475 171.44 312.325 171.54C313.175 171.64 314.065 171.26 314.875 171.54C315.435 171.73 315.545 172.32 315.195 172.77C314.755 173.33 313.995 173.49 313.235 173.5C313.175 178.62 312.535 183.76 312.095 188.85C311.865 191.58 311.605 194.31 311.355 197.04C311.235 198.39 311.115 199.75 310.975 201.1C310.815 202.55 310.775 204.07 310.215 205.42C310.065 205.79 309.575 205.99 309.255 205.82C307.665 205.69 306.085 205.33 304.505 205.02C307.485 206.39 310.605 207.44 313.965 208.05L313.925 208.03Z" fill="black"/>
        <path d="M314.095 164.51C313.285 164.58 312.335 164.84 311.785 165.47C311.465 165.83 311.275 166.29 311.225 166.77C311.185 167.17 311.295 167.55 311.195 167.95C311.105 168.3 310.715 168.33 310.465 168.14C309.435 167.32 310.075 165.31 310.835 164.52C311.725 163.59 313.135 163.26 314.235 163.98C314.485 164.14 314.375 164.49 314.095 164.51Z" fill="black"/>
        <path d="M334.855 158.21C335.205 158.41 335.185 159.08 334.735 159.14C333.715 159.29 332.695 159.08 331.665 159.11C330.675 159.14 329.655 159.28 328.715 159.57C328.455 159.65 328.225 159.29 328.445 159.1C330.035 157.73 332.965 157.1 334.865 158.2L334.855 158.21Z" fill="black"/>
        <path d="M346.595 157.32C348.175 156.2 350.875 156.89 352.125 158.22C352.305 158.41 352.125 158.79 351.855 158.69C351.065 158.41 350.195 158.26 349.345 158.23C348.465 158.2 347.585 158.41 346.715 158.26C346.245 158.17 346.275 157.55 346.595 157.33V157.32Z" fill="black"/>
        <path d="M332.485 175.43C332.805 176.42 333.085 177.37 333.755 178.19C334.275 178.83 335.275 179.27 335.565 180.03C335.635 180.2 335.485 180.36 335.345 180.42C334.365 180.83 333.075 179.62 332.495 178.95C331.705 178.03 331.105 176.84 331.185 175.61C331.235 174.87 332.245 174.71 332.475 175.43H332.485Z" fill="black"/>
        <path d="M70.765 283.98C70.745 284.34 70.585 284.66 70.275 284.87C69.655 285.28 68.865 285.07 68.515 284.42C68.245 283.92 68.295 283.12 68.585 282.63C68.945 282.04 69.755 281.83 70.315 282.26C70.765 282.6 70.935 283.33 70.805 283.87C70.805 283.91 70.785 283.95 70.765 283.99V283.98Z" fill="black"/>
        <path d="M88.0451 284.65C87.5051 285.19 86.5851 285.07 86.2051 284.41C85.9251 283.93 85.9551 283.15 86.2451 282.69C86.5751 282.17 87.2851 281.93 87.8251 282.27C88.2651 282.54 88.4351 283.11 88.4251 283.6C88.4251 283.73 88.3951 283.86 88.3451 283.98C88.3251 284.23 88.2251 284.47 88.0451 284.65Z" fill="black"/>
        <path d="M72.0351 274.73C70.5951 275.87 63.7451 277.38 64.0251 274C64.1451 272.52 66.1251 271.88 67.3251 271.59C68.0451 271.42 68.9551 271.27 69.8251 271.31C70.5051 271.26 71.1651 271.34 71.7251 271.6C73.0751 272.24 73.1751 273.83 72.0451 274.73H72.0351Z" fill="black"/>
        <path d="M84.8351 277.99C83.8351 277.21 83.9051 275.79 85.0751 275.21C85.6851 274.9 86.4451 274.88 87.1851 274.99C87.5251 274.99 87.8551 275.04 88.1451 275.08C89.2151 275.24 91.0251 275.72 91.2551 277C91.7851 279.95 86.0851 278.98 84.8351 278V277.99Z" fill="black"/>
        <path d="M60.185 257.96C60.915 259.11 61.485 260.35 61.785 261.71C61.865 262.02 61.915 262.34 61.935 262.66C60.945 263.4 60.405 263.32 60.305 262.43C60.125 261.77 60.085 261.07 60.055 260.39C60.025 259.58 60.075 258.76 60.185 257.96ZM1.49503 340.31C2.10503 338.66 2.84503 337.05 3.74503 335.53C5.38503 332.77 7.53505 330.32 10.0751 328.35C16.175 323.61 24.215 321.69 31.8251 321.64C34.2951 321.62 36.755 321.82 39.195 322.2C41.265 322.52 43.495 322.95 45.465 323.79C45.505 322.91 45.785 322.02 45.945 321.17C46.205 319.84 46.445 318.51 46.695 317.18C47.215 314.35 47.705 311.51 48.215 308.67C49.155 303.5 49.8351 298.16 51.355 293.12C50.3351 292.95 49.355 292.59 48.665 292.18C46.685 291 45.5351 288.79 45.6451 286.49C45.7951 283.38 48.2451 281.16 50.9251 280.92C50.3051 278.35 50.4851 275.47 50.4551 272.85C50.4351 271.11 50.285 269.3 50.375 267.53C49.295 265.81 48.8351 263.71 49.2351 261.7C49.7651 259.02 51.915 256.59 54.615 256C56.455 255.59 58.405 256.06 59.715 257.28C59.145 258.9 58.975 260.59 59.285 262.32C59.505 263.56 60.465 265.18 61.965 264.48C63.615 263.71 62.945 261.36 62.4851 260.07C62.105 258.97 61.5851 257.93 60.9251 256.99C62.5551 253.51 65.925 250.73 69.495 249.61C71.885 248.86 74.785 248.59 77.185 249.44C78.745 249.99 80.685 251.61 80.665 253.37C85.475 249.38 93.085 246.28 98.445 250.56C103.585 254.67 102.365 262.62 96.975 265.94C96.055 266.5 95.035 266.99 93.965 267.35C94.265 272.1 94.395 276.87 94.535 281.62C94.685 287 95.085 292.5 93.965 297.8C91.975 307.26 83.685 313.93 74.125 314.65C73.975 314.66 73.825 314.67 73.685 314.68C73.925 316.31 73.845 318.1 73.905 319.66C73.975 321.47 74.275 323.48 74.075 325.32C75.435 324.84 76.975 324.69 78.355 324.45C80.165 324.13 81.985 323.88 83.815 323.74C87.655 323.44 91.545 323.59 95.275 324.56C101.495 326.18 106.685 330.16 110.435 335.31C112.585 338.27 114.605 341.88 115.405 345.48C115.715 346.86 113.835 347.32 113.325 346.05C111.825 342.32 110.395 338.81 107.865 335.62C105.555 332.71 102.695 330.21 99.3951 328.49C95.4251 326.42 90.965 325.73 86.535 325.74C84.265 325.74 81.995 325.94 79.7351 326.16C77.585 326.37 75.215 327.02 73.075 326.67C73.015 326.66 72.9751 326.64 72.9251 326.61C72.7151 326.53 72.535 326.37 72.475 326.13C72.225 325.14 72.165 324.06 72.165 322.97C70.655 323.6 68.845 323.79 67.315 323.96C64.925 324.22 62.515 324.19 60.125 323.92C56.025 323.45 51.455 322.4 47.865 320.18C47.815 320.45 47.765 320.73 47.715 321.01C47.495 322.21 47.455 323.74 46.785 324.78C46.775 324.8 46.7551 324.83 46.7351 324.85C46.6851 325.07 46.515 325.27 46.245 325.25C44.255 325.11 42.2451 324.64 40.2651 324.36C38.1151 324.06 35.945 323.88 33.775 323.83C29.765 323.73 25.735 324.14 21.855 325.17C15.665 326.82 10.0151 330.1 6.39506 335.49C5.37506 337.02 4.49505 338.66 3.82505 340.37C3.46505 341.29 3.15504 342.23 2.88505 343.19C2.60505 344.21 2.48504 345.31 1.90504 346.21C1.52504 346.8 0.435043 346.79 0.285042 346C-0.0649567 344.17 0.835052 342.02 1.45506 340.32L1.49503 340.31ZM53.285 259.23L53.355 259.18C53.355 259.18 53.375 259.16 53.385 259.14C53.355 259.17 53.315 259.2 53.285 259.22V259.23ZM60.375 269.15C60.375 269.15 60.325 269.2 60.305 269.22H60.465C60.465 269.22 60.405 269.17 60.375 269.15ZM68.4851 260.6C68.4851 260.6 68.475 260.63 68.465 260.65C68.475 260.64 68.495 260.62 68.515 260.61C68.5051 260.61 68.495 260.61 68.4851 260.61V260.6ZM76.865 251.46C77.015 251.54 77.155 251.62 77.295 251.71C77.315 251.71 77.325 251.71 77.345 251.71C77.195 251.62 77.035 251.54 76.875 251.47L76.865 251.46ZM93.005 282.37C92.925 277.47 92.825 272.56 92.915 267.65C90.615 268.23 88.175 268.22 86.075 267.25C84.965 268.95 83.2051 270.31 81.1751 270.94C78.6851 271.72 75.945 271.53 73.525 270.61C71.945 270.01 70.075 269 68.725 267.68C67.935 269.18 66.125 270.24 64.715 270.91C62.295 272.07 59.565 272.73 56.905 272.11C55.665 271.82 54.475 271.26 53.495 270.45C52.955 270.15 52.475 269.82 52.065 269.47C51.915 269.35 51.775 269.22 51.635 269.08C51.615 270.68 51.675 272.31 51.665 273.9C51.665 275.6 51.7751 277.38 51.7351 279.11C54.015 279.61 56.295 280.84 58.445 281.71C60.465 282.52 62.4951 283.34 64.4551 284.29C64.6651 283.62 65.0051 282.97 65.4851 282.4C67.305 280.26 70.495 279.91 72.725 281.64C73.885 282.54 74.555 283.79 74.745 285.12C75.845 284.4 77.345 284.15 78.795 284.3C78.845 283.68 78.905 283.05 78.975 282.43C79.025 282.01 79.595 282 79.635 282.43C79.695 283.11 79.7351 283.78 79.765 284.46C80.605 284.65 81.385 284.97 82.015 285.41C82.105 284.34 82.515 283.29 83.265 282.41C85.085 280.27 88.275 279.92 90.505 281.65C91.725 282.6 92.415 283.95 92.555 285.37C92.665 285.35 92.775 285.34 92.885 285.32C92.945 285.31 93.015 285.3 93.085 285.29C93.065 284.31 93.045 283.34 93.025 282.37H93.005ZM66.595 289.2C68.475 290.91 71.325 290.51 72.965 288.69C74.345 286.78 74.2351 284.18 72.4251 282.57C70.6751 281.01 67.995 281.09 66.355 282.79C64.595 284.62 64.715 287.49 66.585 289.2H66.595ZM84.365 289.2C86.255 290.91 89.0951 290.51 90.7351 288.69C92.1151 286.78 92.005 284.18 90.195 282.57C88.445 281.01 85.765 281.09 84.125 282.79C82.365 284.62 82.485 287.49 84.355 289.2H84.365ZM53.935 320.71C56.075 321.39 58.295 321.85 60.525 322.08C62.645 322.3 64.795 322.33 66.915 322.19C68.655 322.08 70.435 321.62 72.185 321.53C72.205 320.89 72.225 320.26 72.215 319.65C72.215 319.38 72.205 319.1 72.195 318.81C71.225 319.08 70.1051 318.85 69.1451 318.65C67.6951 318.34 66.2951 317.85 64.9551 317.24C62.2351 316 59.655 314.15 57.805 311.79C57.715 311.68 57.665 311.57 57.635 311.46C57.445 310.83 58.025 310.04 58.815 310.21C60.945 310.69 63.015 311.39 65.165 311.8C67.465 312.24 69.8051 312.49 72.1451 312.48C76.5651 312.47 80.835 311.37 84.535 308.9C88.475 306.28 91.065 302.31 92.165 297.74C93.095 293.88 93.125 289.88 93.045 285.91C93.005 285.91 92.965 285.91 92.915 285.92C92.785 285.93 92.665 285.95 92.525 285.96C92.505 287.08 92.1451 288.22 91.4251 289.19C91.4251 289.19 91.415 289.2 91.405 289.21C91.385 289.23 91.375 289.26 91.355 289.28C89.395 291.48 85.915 291.87 83.685 289.81C82.555 288.76 81.965 287.34 81.945 285.92C81.205 285.65 80.495 285.4 79.745 285.25C79.795 286.94 79.785 288.64 79.775 290.33C81.175 290.68 82.415 291.91 82.045 293.46C81.685 295.02 79.535 296.15 78.115 295.29C77.465 294.9 77.805 294.03 78.475 293.96C79.145 293.89 79.855 293.98 80.335 293.39C81.065 292.49 80.015 291.61 79.105 291.55C78.755 291.53 78.435 291.27 78.445 290.89C78.505 288.96 78.5451 287.03 78.6751 285.11C78.5751 285.11 78.475 285.1 78.375 285.1C77.015 285.08 75.965 285.55 74.7351 285.9C74.7351 287.05 74.375 288.2 73.635 289.19L73.615 289.21C73.615 289.21 73.585 289.26 73.565 289.28C71.605 291.48 68.1251 291.87 65.8951 289.81C64.4451 288.47 63.885 286.51 64.275 284.71C62.055 284.02 59.8751 283.16 57.7051 282.32C55.7451 281.56 53.495 280.94 51.635 279.89C51.615 280.23 51.585 280.56 51.545 280.89C52.815 280.94 54.095 281.44 55.165 282.51C55.475 282.81 55.055 283.4 54.685 283.12C51.625 280.8 47.1351 282.95 47.2051 286.82C47.2251 288.56 48.175 290.1 49.725 290.89C50.495 291.28 51.3751 291.48 52.2351 291.46C53.0251 291.44 53.755 291.09 54.535 291.11C55.145 291.12 55.465 291.87 55.035 292.32C54.355 293.02 53.3251 293.26 52.2351 293.22C51.745 298.4 50.635 303.55 49.7951 308.67C49.3351 311.45 48.855 314.22 48.365 317C48.295 317.41 48.2151 317.81 48.1451 318.22C50.0351 319.14 51.845 320.07 53.865 320.7L53.935 320.71ZM61.915 262.67C60.925 263.41 60.385 263.33 60.285 262.44C60.105 261.78 60.065 261.08 60.035 260.4C60.005 259.59 60.055 258.77 60.165 257.97C60.895 259.12 61.465 260.36 61.765 261.72C61.8451 262.03 61.895 262.35 61.915 262.67Z" fill="black"/>
        <path d="M71.5251 296.72C71.8851 296.91 71.9651 297.2 72.1251 297.55C72.2851 297.91 72.4951 298.24 72.7651 298.53C73.2951 299.11 74.0151 299.55 74.7751 299.78C75.2051 299.91 75.1151 300.53 74.6751 300.55C73.6251 300.59 72.6851 300.24 71.8951 299.54C71.2751 298.99 70.2651 297.78 70.7951 296.92C70.9551 296.67 71.2751 296.59 71.5351 296.73L71.5251 296.72Z" fill="black"/>
        <path d="M53.4451 285.79C52.8551 285.59 52.1551 285.27 51.6151 285.77C50.9951 286.35 51.6251 286.94 51.6151 287.6C51.6151 288.13 51.1251 288.46 50.6251 288.36C49.8151 288.19 49.4851 287.22 49.4751 286.47C49.4751 285.68 49.8151 284.95 50.4151 284.45C51.4551 283.61 53.6851 283.64 53.9351 285.29C53.9751 285.57 53.7651 285.89 53.4451 285.78V285.79Z" fill="black"/>
        <path d="M79.665 49.78C78.855 50.45 77.675 50.77 76.735 50.27C76.145 49.96 76.265 48.96 76.925 48.82C78.165 48.56 79.175 48.71 79.385 47.09C79.515 46.05 79.465 44.96 79.495 43.92C79.555 41.44 79.715 39.01 79.945 36.54C79.975 36.23 80.405 36.22 80.435 36.54C80.715 39.99 80.895 43.45 80.835 46.91C80.815 48 80.545 49.05 79.665 49.77V49.78Z" fill="black"/>
        <path d="M70.3051 38.94C70.7551 39.28 70.9251 40.01 70.7951 40.55C70.7951 40.59 70.7751 40.63 70.7551 40.67C70.7351 41.03 70.5751 41.35 70.2651 41.56C69.6451 41.97 68.8551 41.76 68.5051 41.11C68.2351 40.61 68.2851 39.81 68.5751 39.32C68.9351 38.73 69.7451 38.52 70.3051 38.95V38.94Z" fill="black"/>
        <path d="M87.8251 38.9599C88.2651 39.2299 88.4351 39.7999 88.4251 40.2899C88.4251 40.4199 88.3951 40.5499 88.3451 40.6699C88.3251 40.9199 88.2251 41.1599 88.0451 41.3399C87.5051 41.8799 86.5851 41.7599 86.2051 41.1099C85.9251 40.6299 85.9551 39.8499 86.2451 39.3899C86.5751 38.8699 87.2851 38.6299 87.8251 38.9699V38.9599Z" fill="black"/>
        <path d="M72.015 34.93C70.415 35.78 63.625 36.41 64.295 33.1C64.585 31.68 66.595 31.31 67.765 31.16C68.525 31.06 69.515 31.02 70.425 31.18C71.175 31.23 71.885 31.42 72.425 31.85C73.585 32.78 73.265 34.28 72.025 34.93H72.015Z" fill="black"/>
        <path d="M84.835 34.6699C83.805 34.0399 83.6451 32.7099 84.6451 31.9499C85.2151 31.5199 85.9951 31.3899 86.7751 31.4199C87.2151 31.3899 87.6551 31.3999 88.0151 31.4199C89.0751 31.5099 90.8651 31.8499 91.1351 33.1099C91.7251 35.9299 86.195 35.4799 84.835 34.6499V34.6699Z" fill="black"/>
        <path d="M1.49503 97C2.10503 95.35 2.84503 93.74 3.74503 92.22C5.38503 89.46 7.53505 87.01 10.0751 85.04C16.175 80.3 24.215 78.39 31.8251 78.33C34.2951 78.31 36.755 78.51 39.195 78.89C41.235 79.21 43.4451 79.63 45.3951 80.45C45.1951 78.06 45.755 75.46 45.995 73.14C46.275 70.33 46.565 67.52 46.865 64.71C47.425 59.51 47.785 54.21 48.7651 49.06C47.9251 48.77 47.145 48.34 46.445 47.79C44.305 46.09 43.395 43.4 43.875 40.73C44.355 38.08 46.2051 35.83 48.7951 35.02C49.0451 34.94 49.3251 34.88 49.605 34.83C48.485 25.57 53.315 16.49 61.695 12.26C70.095 8.00998 80.805 9.60998 87.905 15.71C90.925 18.31 92.975 21.78 93.785 25.68C94.615 29.7 94.7051 33.75 94.7651 37.84C94.8351 42.98 95.195 48.18 94.345 53.28C93.555 58.02 91.425 62.35 87.865 65.62C83.875 69.3 78.8951 71.15 73.7351 71.53C73.945 73.12 73.8751 74.85 73.9251 76.36C73.9951 78.17 74.295 80.18 74.095 82.02C75.455 81.55 76.995 81.39 78.375 81.15C80.185 80.84 82.005 80.58 83.835 80.45C87.675 80.15 91.5651 80.29 95.295 81.26C101.515 82.88 106.705 86.86 110.455 92.01C112.605 94.97 114.625 98.58 115.425 102.18C115.735 103.56 113.855 104.02 113.345 102.75C111.845 99.02 110.415 95.51 107.885 92.32C105.575 89.41 102.715 86.91 99.415 85.19C95.445 83.12 90.985 82.43 86.555 82.44C84.285 82.44 82.015 82.64 79.755 82.86C77.815 83.05 75.695 83.59 73.725 83.44C73.275 84.79 72.545 86.07 71.885 87.33C71.125 88.79 70.365 90.26 69.585 91.71L67.365 95.85C66.635 97.2 66.005 98.97 64.865 100.03C64.745 100.14 64.625 100.2 64.495 100.22C64.395 100.28 64.265 100.29 64.155 100.22C62.495 99.23 61.0751 97.83 59.6751 96.5C57.9451 94.87 56.255 93.21 54.575 91.53C52.925 89.88 51.295 88.21 49.685 86.53C48.275 85.05 46.735 83.59 45.595 81.89C43.825 81.71 42.0451 81.31 40.2951 81.06C38.1451 80.76 35.975 80.58 33.805 80.53C29.795 80.43 25.765 80.84 21.885 81.87C15.695 83.52 10.0451 86.8 6.42506 92.19C5.40506 93.72 4.52505 95.36 3.85505 97.07C3.49505 97.99 3.18504 98.93 2.91505 99.89C2.63505 100.91 2.51504 102.01 1.93504 102.91C1.55504 103.51 0.465042 103.49 0.315041 102.7C-0.0349579 100.87 0.865051 98.72 1.48505 97.02L1.49503 97ZM80.565 65.11C80.565 65.11 80.545 65.11 80.535 65.1C80.535 65.12 80.515 65.13 80.515 65.15C80.535 65.14 80.545 65.13 80.565 65.12V65.11ZM74.1751 57.43C74.2851 57.36 74.365 57.18 74.275 57.05C74.015 56.7 73.695 56.62 73.305 56.43C72.795 56.19 72.315 55.9 71.885 55.54C71.145 54.94 70.755 54.21 70.295 53.45C74.005 53.3 77.505 51.79 81.255 52.86C83.525 53.51 85.685 54.76 88.065 54.95C89.865 55.09 91.445 54.4 92.365 53.08C93.025 49.45 92.965 45.7 92.885 42.02C92.745 34.8 93.735 26.03 89.225 19.84C84.245 12.99 74.015 10.1 66.045 12.25C56.085 14.95 49.885 24.68 50.135 34.74C52.295 34.51 54.935 35.1 55.855 37.07C55.945 37.27 55.795 37.55 55.545 37.47C53.475 36.83 51.8151 35.95 49.5751 36.55C47.455 37.11 45.985 38.9 45.605 41.03C45.245 43.07 45.985 45.15 47.665 46.39C48.495 47.01 49.505 47.43 50.535 47.55C51.395 47.66 52.315 47.31 53.135 47.46C53.295 47.11 53.445 46.74 53.545 46.36C53.935 45.01 53.795 43.6 54.125 42.27C54.315 41.5 54.935 40.93 55.685 40.67C55.965 40.57 56.515 40.5 56.785 40.72C56.985 40.81 57.1451 40.99 57.2051 41.28C58.0051 44.71 59.365 48.21 62.035 50.63C63.895 52.31 66.285 53.22 68.765 53.4C68.955 54.64 69.855 55.7 70.825 56.45C71.565 57.03 73.2551 58.02 74.1751 57.4V57.43ZM57.335 47.52C57.335 47.52 57.335 47.58 57.335 47.62C57.345 47.62 57.365 47.62 57.385 47.62C57.365 47.59 57.355 47.55 57.335 47.52ZM51.0751 85.4C52.675 87.1 54.295 88.79 55.915 90.46C57.485 92.07 59.055 93.67 60.625 95.27C61.725 96.39 62.885 97.5 63.875 98.73C64.275 97.49 65.145 96.29 65.745 95.2C66.535 93.75 67.325 92.31 68.115 90.86C69.505 88.31 70.805 85.39 72.625 83.09C72.565 83.02 72.515 82.93 72.4851 82.83C71.9751 80.81 72.2551 78.43 72.2351 76.35C72.215 74.86 72.065 73.17 72.195 71.59C67.385 71.68 62.485 70.55 58.115 68.49C58.015 68.44 57.945 68.38 57.875 68.31C56.635 67.7 55.5151 66.61 54.6451 65.67C53.2451 64.15 52.025 62.41 51.115 60.55C50.405 59.1 49.855 57.57 49.475 55.99C49.235 58.99 48.905 61.98 48.655 64.96C48.415 67.69 48.165 70.43 47.915 73.16C47.785 74.51 47.675 75.87 47.525 77.22C47.385 78.51 47.335 79.85 46.935 81.09C48.435 82.39 49.715 83.98 51.065 85.42L51.0751 85.4Z" fill="black"/>
        <path d="M54.6551 33.1199C53.8951 33.1199 53.8951 31.9399 54.6551 31.9399C55.4151 31.9399 55.4151 33.1199 54.6551 33.1199Z" fill="black"/>
        <path d="M52.835 30.17C51.975 30.17 51.975 28.84 52.835 28.84C53.695 28.84 53.695 30.17 52.835 30.17Z" fill="black"/>
        <path d="M55.645 29.01C54.935 29.01 54.935 27.9 55.645 27.9C56.355 27.9 56.355 29.01 55.645 29.01Z" fill="black"/>
        <path d="M53.645 26.66C53.035 26.66 53.035 25.71 53.645 25.71C54.255 25.71 54.255 26.66 53.645 26.66Z" fill="black"/>
        <path d="M51.855 33.23C51.245 33.23 51.245 32.28 51.855 32.28C52.465 32.28 52.465 33.23 51.855 33.23Z" fill="black"/>
        <path d="M52.7951 39.76C51.7451 39.66 50.4251 39.54 49.7751 40.55C49.4851 41 49.4451 41.51 49.5751 42.02C49.6951 42.48 49.9351 42.77 49.8351 43.25C49.7951 43.45 49.5851 43.58 49.3951 43.58C48.6251 43.59 48.2351 42.72 48.1151 42.06C47.9551 41.21 48.1451 40.35 48.6551 39.65C49.7651 38.15 51.6451 38.01 53.0551 39.14C53.2951 39.33 53.1051 39.79 52.7951 39.76Z" fill="black"/>
        <path d="M75.055 172.7C76.295 172.44 77.305 172.59 77.515 170.97C77.645 169.93 77.595 168.84 77.625 167.8C77.685 165.32 77.845 162.89 78.075 160.42C78.105 160.11 78.535 160.1 78.565 160.42C78.845 163.87 79.025 167.33 78.965 170.79C78.945 171.88 78.675 172.93 77.795 173.65C76.985 174.32 75.805 174.64 74.865 174.14C74.275 173.83 74.395 172.83 75.055 172.69V172.7Z" fill="black"/>
        <path d="M85.955 162.83C86.395 163.1 86.565 163.67 86.555 164.16C86.555 164.29 86.525 164.42 86.475 164.54C86.455 164.79 86.355 165.03 86.175 165.21C85.635 165.75 84.715 165.63 84.335 164.97C84.055 164.49 84.085 163.71 84.375 163.25C84.705 162.73 85.415 162.49 85.955 162.83Z" fill="black"/>
        <path d="M6.69506 221.12C7.19506 219.54 7.81505 217.98 8.55505 216.5C9.87505 213.86 11.645 211.42 13.805 209.4C18.945 204.59 26.1051 202.37 33.0451 202.22C35.2551 202.17 37.4451 202.35 39.6251 202.71C41.5151 203.02 43.6751 203.45 45.4751 204.33C45.2751 201.95 45.8451 199.34 46.0751 197.02C46.0851 196.91 46.1051 196.79 46.1051 196.68C44.7551 196.95 43.2951 196.88 41.9051 196.76C42.1451 196.01 42.345 195.24 42.525 194.48C42.8251 193.21 43.0251 191.93 43.1451 190.63C43.2651 189.33 43.4651 187.85 43.1451 186.58C43.0751 186.31 42.655 186.31 42.585 186.58C42.275 187.84 42.355 189.21 42.1551 190.5C41.965 191.74 41.7051 192.96 41.3751 194.17C41.1451 195 40.8851 195.83 40.5951 196.64C38.4951 196.41 36.4251 196.02 34.3851 195.45C33.6251 195.24 32.865 195.01 32.115 194.75C32.665 193.29 33.1751 191.58 33.0351 190.03C33.0151 189.84 32.715 189.69 32.615 189.92C31.995 191.36 31.675 192.92 31.055 194.37C30.185 194.05 29.3351 193.7 28.4851 193.32C28.4451 193.3 28.405 193.28 28.365 193.26C28.555 192.81 28.7451 192.36 28.9151 191.91C29.7551 189.69 30.735 186.94 30.585 184.54C30.575 184.29 30.2651 184.27 30.1751 184.48C29.7451 185.56 29.5651 186.76 29.2051 187.87C28.8451 188.99 28.4551 190.11 28.0051 191.2C27.7851 191.73 27.555 192.26 27.305 192.79C25.815 192.12 24.215 191.3 23.275 190.08C23.065 189.81 23.1051 189.52 23.2651 189.28C23.2851 189.23 23.305 189.18 23.335 189.13C25.035 186.06 25.4351 182.88 25.2651 179.41C25.0951 176.05 24.495 172.71 24.775 169.34C25.035 166.23 26.0051 163.21 28.2551 160.97C30.1551 159.07 32.635 157.96 35.085 156.98C37.735 155.91 40.5951 155.03 42.8551 153.23C45.4351 151.18 46.6751 148.06 47.5151 144.97C49.0551 139.32 49.6751 132.54 54.9051 128.89C60.1751 125.2 67.4351 127.19 70.1751 132.7C69.8051 132.73 69.445 132.77 69.115 132.81C67.595 133 65.695 133.32 64.585 134.47C64.445 134.62 64.5351 134.9 64.7551 134.89C66.3651 134.81 67.9151 134.06 69.5451 133.9C70.7051 133.79 71.9051 133.99 73.0651 133.98C77.2051 134.49 81.2351 136.03 84.6451 138.54C87.9351 140.95 90.4651 144.27 91.5651 148.23C92.6851 152.23 92.7951 156.46 92.8451 160.58C92.9151 165.89 93.3151 171.28 92.5351 176.55C91.8051 181.53 89.6851 186.09 85.9551 189.52C81.9751 193.2 76.9551 195.11 71.8151 195.4C72.0351 197 71.9551 198.74 72.0151 200.26C72.0851 202.04 72.3751 204.03 72.1951 205.85C73.8951 205.19 76.0151 205.03 77.7051 204.75C79.9951 204.37 82.3251 204.17 84.6451 204.2C88.8951 204.25 93.145 205.24 96.805 207.44C99.945 209.32 102.555 211.93 104.695 214.87C107.025 218.09 109.195 222.13 109.945 226.07C110.205 227.44 108.355 227.94 107.865 226.64C107.135 224.72 106.585 222.79 105.685 220.94C104.905 219.33 103.995 217.77 102.955 216.31C100.985 213.52 98.465 211.03 95.525 209.28C91.955 207.16 87.8651 206.35 83.7551 206.33C81.6651 206.32 79.5851 206.51 77.5151 206.73C75.5351 206.93 73.1551 207.67 71.1851 207.27C71.1351 207.26 71.0851 207.24 71.0451 207.21C70.8351 207.13 70.6551 206.97 70.5951 206.72C70.4051 205.95 70.3251 205.12 70.2951 204.27C68.6451 204.89 66.7851 205.03 65.0451 205.11C62.8751 205.22 60.7251 205.11 58.5751 204.8C56.3751 204.49 54.2051 203.98 52.1051 203.24C50.7751 202.77 48.8251 202.23 47.5651 201.24C47.4151 202.64 47.3651 204.11 46.8251 205.42C46.6751 205.79 46.1851 205.99 45.8551 205.82C43.5151 205.63 41.1851 204.93 38.8551 204.67C36.4851 204.41 34.0751 204.33 31.6951 204.5C27.0651 204.83 22.445 206.14 18.495 208.6C15.7551 210.31 13.4551 212.67 11.7251 215.4C10.6851 217.04 9.83505 218.8 9.18505 220.63C8.82505 221.64 8.52507 222.66 8.26507 223.7C8.00507 224.73 7.94505 225.9 7.34505 226.8C6.94505 227.41 5.92506 227.36 5.72506 226.59C5.29506 224.91 6.14505 222.76 6.65505 221.14L6.69506 221.12ZM34.4451 164.51C34.4451 164.57 34.455 164.64 34.465 164.71C34.4751 164.62 34.4951 164.54 34.5151 164.45C34.4951 164.47 34.4651 164.49 34.4451 164.51ZM48.0151 154.02C48.0151 154.02 48.015 154.02 48.025 154.02V154C48.025 154 48.0251 154.01 48.0151 154.02ZM53.275 161.56C53.275 161.56 53.295 161.58 53.305 161.59C53.305 161.58 53.3151 161.56 53.3151 161.55C53.3051 161.55 53.285 161.56 53.275 161.56ZM59.1651 131.63C59.1651 131.63 59.1751 131.67 59.1851 131.69C59.2051 131.66 59.2151 131.63 59.2351 131.61C59.2151 131.61 59.1851 131.63 59.1651 131.63ZM71.7951 137.09C71.7251 137.09 71.655 137.08 71.585 137.08V137.1C71.655 137.1 71.7251 137.12 71.7951 137.12V137.1V137.09ZM46.585 170.6C47.285 171.08 48.1251 171.41 48.9751 171.51C49.8251 171.61 50.715 171.23 51.525 171.51C52.085 171.7 52.1951 172.29 51.8551 172.74C51.4151 173.3 50.6551 173.46 49.8951 173.47C49.8351 178.59 49.1951 183.73 48.7551 188.82C48.5151 191.55 48.2651 194.28 48.0151 197.01C47.9451 197.81 47.8651 198.61 47.7951 199.41C48.5251 199.53 49.1951 199.91 49.8851 200.21C50.8051 200.61 51.7351 200.99 52.6851 201.32C54.6451 202.01 56.6651 202.54 58.715 202.88C60.745 203.22 62.8251 203.37 64.8851 203.36C66.6951 203.36 68.535 203.06 70.335 203.1C70.345 202.24 70.3851 201.38 70.3951 200.56C70.2151 200.58 70.0351 200.56 69.8751 200.49C67.0551 200.1 64.4151 198.93 62.0451 197.31C60.6551 196.35 59.375 195.24 58.245 193.98C57.525 193.18 56.195 191.87 55.865 190.65C55.375 189.91 56.1651 188.76 57.0651 189.32C64.8251 194.13 74.6151 195.17 82.3951 189.82C86.1351 187.25 88.8451 183.48 90.0351 179.1C91.3251 174.35 91.0951 169.36 91.0151 164.49C90.9751 161.77 91.0451 158.87 90.8951 156C86.6151 155.64 82.5551 154.3 78.8751 152.07C76.5151 150.64 73.9351 148.68 72.1751 146.32C71.8351 146.81 71.4751 147.28 71.0951 147.73C69.6751 149.41 67.905 150.89 66.025 152.04C64.195 153.15 62.185 154.01 60.115 154.54C59.215 154.77 58.1651 155.01 57.1051 155.13C56.7651 156.45 56.3351 157.72 55.8151 158.99C55.3451 160.14 54.8851 161.78 53.8851 162.57C53.7851 162.65 53.635 162.68 53.495 162.66C53.465 162.66 53.4351 162.66 53.4051 162.66C51.6151 162.22 50.2051 161.41 48.2951 161.85C46.4051 162.29 45.0551 163.79 44.6751 165.68C44.2951 167.58 44.9851 169.5 46.5951 170.62L46.585 170.6ZM68.245 198.89C68.245 198.89 68.2451 198.89 68.2551 198.89H68.245Z" fill="black"/>
        <path d="M53.6051 162.96C53.6051 162.96 53.6351 163 53.6051 163C53.5751 163 53.5751 162.96 53.6051 162.96Z" fill="black"/>
        <path d="M71.5551 156.87C71.9051 157.07 71.8851 157.74 71.4351 157.8C70.4151 157.95 69.3951 157.74 68.3651 157.77C67.3751 157.8 66.3551 157.94 65.4151 158.23C65.1551 158.31 64.9251 157.95 65.1451 157.76C66.7351 156.39 69.6651 155.76 71.5651 156.86L71.5551 156.87Z" fill="black"/>
        <path d="M83.285 157.61C84.865 156.49 87.565 157.18 88.815 158.51C88.995 158.7 88.815 159.08 88.545 158.98C87.755 158.7 86.885 158.55 86.035 158.52C85.155 158.49 84.275 158.7 83.405 158.55C82.935 158.46 82.965 157.84 83.285 157.62V157.61Z" fill="black"/>
        <path d="M68.9151 174.49C69.1951 175.2 69.4151 175.95 69.9051 176.56C70.3451 177.11 71.0951 177.48 71.4451 178.08C71.5851 178.32 71.4451 178.6 71.1951 178.69C70.2951 179 69.1851 178.18 68.6151 177.56C67.8951 176.78 67.3351 175.78 67.4551 174.69C67.5551 173.85 68.5951 173.69 68.9151 174.49Z" fill="black"/>
        <path d="M51.0251 165.24C50.1451 165.29 49.2651 165.76 48.8651 166.56C48.6851 166.91 48.6151 167.29 48.6051 167.68C48.6051 168.07 48.6751 168.41 48.4551 168.74C48.3151 168.95 48.0951 168.99 47.8751 168.89C46.7351 168.39 47.3651 166.36 47.8951 165.64C48.6651 164.59 49.8751 164.18 51.1351 164.4C51.6251 164.49 51.4751 165.2 51.0251 165.23V165.24Z" fill="black"/>
        <path d="M69.1651 162.95C70.0151 163.16 70.9851 163.79 71.1951 164.68C71.3051 165.13 70.8451 165.44 70.4551 165.25C69.8751 164.97 69.4151 164.62 68.7551 164.57C68.1351 164.52 67.4851 164.9 66.9251 164.54C66.6551 164.37 66.5651 164.09 66.6151 163.79C66.7951 162.74 68.3651 162.75 69.1651 162.95Z" fill="black"/>
    </g>
    <defs>
        <clipPath id="clip0_137_9370">
            <rect width="378.51" height="346.6" fill="white" transform="matrix(-1 0 0 1 378.755 0.199951)"/>
        </clipPath>
    </defs>
</svg>
