<svg width="479" height="385" viewBox="0 0 479 385" fill="none" xmlns="http://www.w3.org/2000/svg">
    <path d="M117.237 147.027C115.958 145.74 116.417 144.389 116.988 142.957C120.897 133.145 124.709 123.293 130.282 114.253C132.22 111.109 133.025 108.479 129.792 105.101C126.55 101.723 125.545 96.8252 124.942 92.1203C121.25 63.3602 129.623 38.0744 149.239 17.3085C163.562 2.16439 182.897 -0.899822 203.043 1.00626C209.172 1.58533 215.147 3.08928 221.01 5.04362C240.481 11.55 252.618 26.8792 254.202 47.4359C255.022 58.1003 253.912 68.9417 256.462 79.4292C262.454 104.096 275.788 122.964 299.996 132.856C307.114 135.767 314.593 136.314 322.121 135.212C332.303 133.716 342.107 134.714 351.694 138.453C360.782 141.992 366.814 148.362 369.773 157.595C372.773 166.932 373.899 176.664 375.5 186.291C378.443 203.992 386.18 212.332 403.625 216.394C424.423 221.235 435.079 237.506 431.307 258.649C429.449 269.048 435.368 281.273 445.381 287.201C449.29 289.517 453.408 291.495 457.51 293.442C482.586 305.345 483.945 333.936 468.061 351.806C461.185 359.535 452.845 365.39 443.138 368.913C430.39 373.545 417.144 376.216 403.608 377.205C397.93 377.615 396.04 375.307 397.134 369.645C397.408 368.213 397.705 366.661 398.461 365.471C400.987 361.514 403.431 357.718 402.852 352.578C402.619 350.511 404.469 348.686 406.222 347.359C408.595 345.557 409.214 343.354 407.943 340.659C406.174 336.895 407.043 333.686 409.857 330.791C412.672 327.904 413.147 324.494 411.836 320.77C410.541 317.095 410.356 313.339 411.78 309.744C416.581 297.64 419.428 284.973 422.758 272.45C424.117 267.335 423.731 266.917 418.487 267.086C401.22 267.633 383.96 268.783 366.669 268.212C339.083 267.295 311.481 267.102 283.887 266.644C279.367 266.571 277.212 268.228 275.515 272.217C265.421 295.967 255.666 319.861 244.406 343.096C240.216 351.75 235.712 360.235 230.468 368.696C245.178 371.68 259.606 373.441 274.155 374.309C305.344 376.159 336.582 375.073 367.787 376.071C372.741 376.232 377.703 376.296 382.641 376.642C385.432 376.835 387.258 376.312 387.95 373.224C388.408 371.165 389.429 369.218 390.298 367.256C390.756 366.219 391.585 365.447 392.847 365.849C394.199 366.283 394.649 367.361 394.4 368.704C394.183 369.886 393.901 371.06 393.628 372.226C391.496 381.162 390.66 381.95 381.427 381.918C353.286 381.821 325.145 381.853 297.012 381.379C274.879 381.009 252.722 380.55 230.991 375.355C225.659 374.076 221.493 371.277 218.927 366.782C215.356 360.533 212.3 353.946 210.29 346.981C208.906 342.179 209.952 340.611 214.818 339.767C221.034 338.689 227.316 338.142 233.621 338.239C238.189 338.311 241.012 336.453 242.894 332.158C251.202 313.178 259.719 294.286 268.22 275.386C269.861 271.743 270.568 267.971 270.19 264.046C268.309 244.438 265.325 225.032 258.746 206.357C257.145 201.813 254.805 197.59 252.32 193.448C246.368 183.516 237.851 176.889 226.592 174.396C210.82 170.905 194.856 168.195 180.017 161.391L180.058 161.455C179.784 161.198 179.511 160.949 179.237 160.691C178.103 156.284 173.993 156.38 170.785 155.118C170.728 153.035 171.605 151.7 173.825 151.804C178.851 152.037 177.806 147.485 178.916 144.968C180.033 142.451 177.267 141.847 175.441 141.124C168.782 138.454 163.2 134.046 157.45 129.928C156.646 129.349 155.496 128.682 156.404 127.363C157.185 126.229 158.254 126.502 159.268 126.977C159.991 127.315 160.659 127.757 161.351 128.167C166.184 131.014 170.994 133.909 175.867 136.692C183.99 141.341 191.872 140.89 199.625 135.631C204.652 132.221 208.906 128.014 212.984 123.575C214.214 124.081 215.437 124.62 216.683 125.079C224.123 127.829 231.586 128.376 237.892 122.867C245.83 115.934 250.325 106.911 251.427 96.3507C252.28 88.2036 251.323 80.5632 244.696 74.7163C245.444 72.8826 246.328 71.0891 246.907 69.2071C247.519 67.2447 247.374 66.159 244.68 67.1643C240.103 68.8774 235.262 68.9578 230.525 67.9123C222 66.0383 214.206 62.4835 207.386 56.9422C205.689 54.1756 203.469 51.8754 201.033 49.7683C198.121 43.7203 194.904 37.809 193.207 30.5063C183.87 42.8275 173.865 53.5804 164.029 64.4701C163.225 65.3628 162.436 66.2716 161.624 67.1563C160.772 68.0812 159.766 68.9256 158.487 68.1214C156.951 67.1563 157.619 65.781 158.214 64.5826C159.042 62.9098 159.967 61.2772 160.884 59.6445C162.477 56.7814 161.737 54.4892 159.115 52.7601C157.78 51.8835 156.364 51.1033 154.9 50.468C150.783 48.6745 149.126 49.4224 147.694 53.7413C145.048 61.7436 147.357 68.7246 152.343 75.054C153.742 76.8234 154.788 78.2791 153.541 80.7482C149.938 87.898 146.721 95.2409 142.684 102.174C137.705 110.715 132.631 119.2 128.32 128.119C127.234 130.371 127.218 131.971 129.116 133.773C133.564 138.003 137.553 142.764 143.102 145.7C144.622 146.504 145.249 147.622 144.694 149.311C142.193 149.214 140.086 148.129 138.092 146.721C134.151 143.939 130.628 140.681 127.234 137.271C126.575 136.612 125.722 135.092 124.733 136.258C123.317 137.939 121.307 140.054 122.489 142.314C125.803 148.668 128.127 155.544 132.365 161.423C133.346 162.782 135.807 164.27 133.7 166.08C131.955 167.576 130.298 165.476 128.835 164.495C127.982 163.924 127.226 163.032 126.743 162.115C124.524 157.876 121.741 153.847 120.929 149.021C120.502 146.488 119.304 146.158 117.245 146.987L117.237 147.027ZM363.227 177.001C359.937 169.136 360.701 159.388 355.715 151.297C353.592 147.863 350.688 145.402 346.707 144.485C340.796 143.118 335.054 144.485 329.319 145.748C328.346 145.965 327.622 146.552 327.638 147.678C327.655 148.925 328.378 149.761 329.504 149.946C330.671 150.139 331.901 150.075 333.083 149.946C348.396 148.193 351.332 150.316 354.372 165.324C355.273 169.763 356.206 174.211 358.039 178.377C358.642 179.752 359.592 180.991 361.417 180.428C362.696 180.033 363.38 179.093 363.227 177.001ZM471.962 327.019C471.407 325.097 472.171 322.403 469.429 322.057C466.485 321.679 466.767 324.333 466.34 326.199C465.898 328.145 465.52 330.116 464.885 331.998C461.386 342.413 453.368 347.922 443.596 351.549C441.778 352.225 439.47 352.868 440.443 355.643C441.473 358.586 443.741 357.838 445.743 356.97C451.148 354.637 456.271 351.798 460.791 347.962C467.322 342.429 470.772 335.295 471.954 327.011L471.962 327.019ZM237.562 342.75C230.685 343.145 224.452 343.547 218.211 343.844C215.943 343.949 215.919 344.809 216.732 346.611C218.268 350.005 219.474 353.56 221.018 356.946C222.184 359.511 222.924 362.39 225.305 364.449C229.769 357.525 233.685 350.584 237.57 342.742L237.562 342.75ZM139.756 46.5352C140.746 46.5834 141.333 46.2858 142.201 44.5889C146.48 36.2568 152.423 29.2678 159.292 22.9946C160.546 21.8445 161.688 20.5738 160.048 18.9653C158.584 17.5257 157.353 18.6275 156.219 19.6087C149.568 25.335 143.858 31.8334 139.917 39.7472C139.266 41.0582 138.759 42.4495 138.365 43.857C138.003 45.1518 138.365 46.2456 139.764 46.5432L139.756 46.5352ZM416.541 233.886C416.517 232.712 415.648 232.029 415.037 231.16C409.206 222.924 399.989 223.584 391.561 222.201C390.764 222.072 389.96 222.386 389.783 223.407C389.638 224.235 389.719 224.999 390.346 225.635C391.319 226.624 392.558 227.107 393.869 227.42C400.552 229.013 407.565 229.584 412.512 235.503C413.975 237.256 416.549 235.953 416.541 233.886ZM149.054 80.909C148.925 78.7295 148.563 75.8744 144.871 75.4562C142.024 75.1345 139.201 78.44 139.073 81.9385C138.952 85.3646 141.091 88.1312 143.922 88.1875C146.786 88.2438 148.82 85.6381 149.054 80.909ZM459.721 303.318C458.531 303.575 457.325 303.881 456.826 305.135C456.416 306.165 456.416 307.259 457.309 308.095C459.818 310.468 462.335 312.84 464.877 315.173C465.858 316.073 467.016 316.258 468.182 315.542C469.155 314.947 469.606 314.055 469.549 312.856C469.405 309.639 462.818 303.205 459.729 303.31L459.721 303.318ZM361.884 190.505C362.688 192.178 362.318 195.507 365.945 195.725C367.642 195.821 369.339 194.671 368.728 192.765C367.956 190.336 368.535 186.685 364.892 186.17C362.672 185.856 361.707 187.642 361.876 190.505H361.884ZM171.299 13.8341C171.098 11.9522 169.771 11.2766 168.484 11.4696C166.224 11.7994 164.005 12.6599 163.804 15.4507C163.683 17.1155 164.889 17.9198 166.385 17.6543C168.677 17.2442 170.527 16.0619 171.299 13.8341ZM421.664 243.151C421.238 241.511 421.543 239.227 418.849 239.186C416.975 239.162 416.235 240.514 416.396 242.106C416.581 243.883 416.726 245.999 419.275 246.151C421.326 246.272 421.519 244.736 421.664 243.151Z" fill="#050505"/>
    <path d="M117.238 147.027C119.296 146.198 120.495 146.528 120.921 149.062C121.741 153.879 124.516 157.916 126.736 162.155C127.218 163.072 127.974 163.964 128.827 164.535C130.291 165.525 131.947 167.616 133.693 166.12C135.808 164.31 133.339 162.83 132.358 161.463C128.119 155.584 125.795 148.708 122.481 142.354C121.307 140.094 123.31 137.979 124.725 136.298C125.714 135.132 126.567 136.652 127.226 137.311C130.62 140.721 134.143 143.979 138.084 146.761C140.086 148.169 142.186 149.255 144.687 149.351C147.582 150.927 150.888 151.651 153.574 153.67C149.239 158.27 143.875 161.608 139.001 165.549C137.609 166.675 136.668 167.865 137.658 169.634C138.767 171.621 140.36 170.825 141.84 170.133C145.274 168.517 148.033 165.935 150.912 163.562C152.665 162.115 153.509 162.396 154.523 164.254C156.115 167.19 157.885 170.029 159.582 172.908C160.989 175.288 162.839 175.884 165.308 174.444C169.57 171.951 172.908 168.589 175.289 164.254C175.932 163.088 176.254 161.97 175.096 161.013C173.881 160.016 172.868 160.659 171.959 161.616C170.117 163.554 168.227 165.452 166.434 167.439C165.043 168.975 163.892 169.248 162.734 167.206C160.289 162.919 157.249 158.962 155.609 154.233C160.659 154.531 165.662 155.785 170.769 155.15C173.978 156.412 178.079 156.316 179.222 160.723C179.326 161.158 179.382 161.648 180.042 161.487L180.002 161.423C179.953 161.801 179.744 162.227 179.865 162.541C188.913 185.728 190.441 210.185 192.057 234.618C192.741 244.905 192.982 255.215 193.537 265.502C193.939 272.877 192.291 280.187 192.966 287.562C185.68 292.565 177.621 296.079 169.498 299.377C156.324 304.725 143.657 311.368 129.76 314.867C126.897 310.821 127.138 305.948 126.326 301.404C121.605 274.952 119.602 248.138 116.128 221.525C113.731 203.148 111.254 184.69 111.608 166.023C111.744 159.034 112.243 152.456 117.221 147.035L117.238 147.027ZM170.19 278.828C170.061 276.641 169.587 274.718 166.9 274.767C164.552 274.815 163.724 276.351 163.788 278.474C163.86 280.783 164.536 282.729 167.335 282.729C170.021 282.729 169.852 280.549 170.19 278.828ZM148.676 189.282C148.837 191.792 149.834 193.376 152.359 193.199C154.845 193.022 155.633 191.349 155.568 189.033C155.512 186.87 154.627 185.205 152.416 185.229C149.914 185.261 148.748 187.022 148.676 189.29V189.282ZM165.557 248.009C165.469 245.556 164.849 243.618 162.203 243.827C159.71 244.028 159.019 246.031 159.131 248.162C159.236 250.124 159.96 251.934 162.38 251.886C165.026 251.837 165.557 249.955 165.557 248.001V248.009ZM159.163 217.488C159.332 215.614 159.083 213.868 156.944 214.005C155.005 214.126 153.365 215.469 153.574 217.56C153.694 218.783 153.783 220.866 156.131 220.648C158.166 220.463 159.847 219.989 159.163 217.488Z" fill="#E52028"/>
    <path d="M129.776 314.867C143.665 311.368 156.34 304.725 169.514 299.377C177.637 296.079 185.695 292.565 192.982 287.562C197.309 285.479 201.588 283.3 205.971 281.337C215.574 277.035 223.319 278.619 230.131 286.509C237.039 294.511 240.875 304.323 245.564 313.628C246.28 315.044 246.224 316.588 244.495 317.384C242.741 318.188 241.253 317.545 240.385 315.969C238.39 312.342 236.5 308.65 234.642 304.942C231.996 299.658 229.109 294.535 225.112 290.144C219.812 284.329 214.456 283.252 207.491 286.927C194.237 293.916 180.781 300.455 167.077 306.503C165.468 307.21 163.587 307.725 164.978 310.17C171.589 321.743 175.055 334.611 180.074 346.836C181.907 351.308 184.596 351.836 188.14 348.42C193.947 342.799 200.639 338.351 207.362 333.96C208.593 333.156 210.177 331.796 211.504 333.888C212.662 335.705 210.941 336.509 209.936 337.442C207.29 339.895 204.547 342.252 201.909 344.721C199.561 346.916 199.376 349.088 201.732 351.629C206.807 357.09 209.381 363.798 210.643 371.036C211.367 375.194 208.375 381.942 204.909 383.526C200.55 385.513 196.569 384.298 192.998 381.347C186.95 376.352 183.21 369.757 179.977 362.784C174.122 350.158 169.305 337.121 164.745 323.987C163.651 320.834 162.107 317.843 161.029 314.682C159.798 311.079 157.884 310.419 154.338 311.867C140.73 317.424 127.017 322.716 112.653 326.07C109.388 326.834 106.106 327.486 102.72 327.019C101.216 326.81 99.6804 326.408 98.8681 325.145C97.9512 323.698 97.9191 321.277 100.042 321.647C110.087 323.4 118.492 318.124 127.564 315.784C128.328 315.583 129.044 315.172 129.784 314.867H129.776Z" fill="#050505"/>
    <path d="M0.555833 248.275C2.11609 234.626 2.81579 220.833 7.68154 207.764C16.4157 184.336 31.9137 168.557 56.6285 161.632C72.0622 157.305 87.9623 156.26 103.444 152.681C104.9 152.343 106.171 152.431 106.701 154.072C107.2 155.624 106.396 156.614 105.085 157.329C100.525 159.814 95.5464 160.723 90.4635 161.246C78.1906 162.509 66.1268 164.93 54.3444 168.517C33.4338 174.886 21.008 189.934 13.5928 209.71C9.27396 221.227 8.45362 233.444 6.98183 245.516C6.64405 248.299 6.12128 251.065 5.67894 253.84C5.40549 255.529 4.49668 256.558 2.7032 256.397C0.982089 256.237 0.620174 254.886 0.563876 253.486C0.491493 251.749 0.547791 250.012 0.547791 248.275H0.555833Z" fill="#050505"/>
    <path d="M92.3779 165.38C94.5654 165.549 94.8711 166.884 94.5252 168.517C93.9703 171.155 92.8685 173.575 91.5575 175.932C88.3727 181.658 84.1905 186.789 81.4963 192.805C76.6225 203.695 77.9254 209.542 87.0457 217.174C90.2386 219.852 93.2063 222.715 95.7477 226.037C99.7449 231.257 100.573 236.991 97.2195 242.524C93.8577 248.065 94.9515 252.336 98.6511 257.105C103.332 263.121 107.49 269.539 111.752 275.861C112.975 277.678 114.696 279.97 112.163 281.852C109.943 283.501 108.181 281.764 106.702 280.075C99.6966 272.081 94.1794 263.041 88.807 253.945C86.9331 250.768 87.6891 247.004 89.386 243.578C94.0105 234.24 93.7371 232.769 86.3781 225.418C84.5766 223.616 82.8394 221.75 80.9655 220.037C72.7058 212.477 71.6522 203.333 75.022 193.223C76.3008 189.387 78.2873 185.905 80.5071 182.543C83.7563 177.637 87.2789 172.9 89.8927 167.6C90.4235 166.514 91.0589 165.46 92.3537 165.372L92.3779 165.38Z" fill="#050505"/>
    <path d="M223.061 196.095C222.94 199.585 220.906 202.44 218.823 205.231C216.338 208.552 213.7 211.761 211.15 215.027C209.453 217.198 209.574 218.911 211.97 220.729C219.056 226.109 220.512 230.694 218.002 239.251C215.815 246.722 211.536 253.333 208.979 260.66C208.456 262.156 207.145 263.073 205.44 262.438C203.687 261.778 203.18 260.539 203.662 258.593C204.901 253.607 207.338 249.135 209.413 244.503C210.676 241.688 211.89 238.881 212.574 235.857C213.523 231.667 212.63 228.377 208.818 225.788C203.317 222.048 202.472 218.043 206.059 212.389C208.56 208.448 211.729 204.933 214.415 201.105C218.606 195.121 217.729 191.374 211.448 187.61C208.014 185.551 204.25 184.023 201.201 181.336C200.148 180.412 198.427 179.551 199.472 177.806C200.614 175.908 202.287 176.897 203.727 177.605C207.804 179.599 211.898 181.586 215.927 183.677C220.841 186.226 222.699 190.634 223.069 196.103L223.061 196.095Z" fill="#050505"/>
    <path d="M316.298 316.845C316.443 314.36 316.556 310.966 320.754 309.792C324.277 308.811 326.923 309.43 328.716 313.025C331.322 318.269 332.561 318.478 337.032 314.947C338.874 313.5 340.804 312.438 343.249 312.639C346.892 312.953 348.806 315.896 347.101 319.121C344.23 324.566 340.917 329.754 336.228 333.879C332.641 337.032 329.593 337.225 325.724 334.499C319.95 330.429 316.363 325.065 316.307 316.853L316.298 316.845Z" fill="#050505"/>
    <path d="M354.718 343.362C346.925 343.185 343.04 338.576 345.574 332.882C346.627 330.502 348.694 329.295 350.89 328.258C356.672 325.539 362.962 324.968 369.171 324.156C380.623 322.66 391.513 318.961 402.563 315.888C404.099 315.462 406.006 314.055 406.81 316.773C407.469 318.993 405.796 319.918 404.148 320.593C392.743 325.29 380.937 328.523 368.752 330.494C363.895 331.282 358.94 331.74 354.3 333.614C353.182 334.064 351.791 334.306 351.968 335.874C352.145 337.434 353.657 336.727 354.557 337.064C354.807 337.161 355.072 337.209 355.329 337.273C357.34 337.772 360.211 337.7 359.881 340.635C359.536 343.643 356.632 343.185 354.71 343.362H354.718Z" fill="#050505"/>
    <path d="M363.589 356.527C358.578 356.785 354.284 356.769 350.077 355.844C348.284 355.45 346.169 354.669 346.651 352.208C347.15 349.691 349.209 349.482 351.396 349.771C366.251 351.766 380.719 349.876 394.923 345.38C395.807 345.099 396.692 344.753 397.601 344.6C398.662 344.423 399.82 344.367 400.303 345.67C400.834 347.109 399.845 347.922 398.855 348.646C394.432 351.911 389.253 353.286 384.001 354.332C377.036 355.707 369.991 356.511 363.589 356.527Z" fill="#050505"/>
    <path d="M361.023 361.795C370.739 361.361 379.409 360.822 387.902 358.723C389.438 358.345 391.336 357.734 392.1 359.736C392.936 361.932 391.135 362.672 389.486 363.468C384.17 366.042 378.363 366.379 372.693 367.031C366.46 367.747 360.163 368.229 353.858 367.875C352.667 367.811 351.461 367.602 350.311 367.296C348.606 366.83 347.464 365.776 347.721 363.838C347.994 361.835 349.426 361.248 351.212 361.321C354.823 361.465 358.426 361.667 361.023 361.795Z" fill="#050505"/>
    <path d="M371.012 344.005C368.921 343.844 366.878 343.933 366.758 341.544C366.645 339.284 368.527 338.785 370.313 338.568C380.382 337.346 390.29 335.319 400.134 332.93C401.63 332.569 403.569 332.038 404.268 334.105C405.024 336.349 403.319 337.048 401.542 337.668C391.521 341.126 381.098 342.573 371.012 344.005Z" fill="#050505"/>
    <path d="M217.632 298.331C219.45 298.356 220.632 299.216 221.541 300.414C226.616 307.13 231.288 314.111 234.69 321.856C235.261 323.159 236.251 324.574 234.57 325.789C232.961 326.947 231.546 326.191 230.203 325.169C228.763 324.076 228.087 322.467 227.299 320.923C223.954 314.4 220.737 307.806 216.321 301.894C215.766 301.154 215.123 300.439 215.839 299.401C216.345 298.677 216.957 298.283 217.632 298.339V298.331Z" fill="#050505"/>
    <path d="M223.053 328.933C220.681 328.732 219.402 327.574 218.477 326.054C215.574 321.277 212.751 316.451 209.896 311.642C209.18 310.427 208.593 309.181 210.121 308.16C211.584 307.186 212.55 307.999 213.466 309.165C217.665 314.529 221.356 320.207 224.396 326.312C224.742 327.011 225.482 327.824 224.831 328.467C224.364 328.925 223.383 328.853 223.061 328.917L223.053 328.933Z" fill="#050505"/>
    <path d="M336.566 310.878C334.909 310.685 333.598 309.784 333.646 308.192C333.727 305.57 335.617 304.299 338.029 303.865C339.541 303.591 340.844 304.194 340.876 305.819C340.933 308.658 338.802 309.864 336.558 310.886L336.566 310.878Z" fill="#050505"/>
    <path d="M153.574 153.678C150.895 151.659 147.582 150.936 144.687 149.359C145.242 147.678 144.622 146.552 143.094 145.748C137.545 142.813 133.564 138.051 129.108 133.821C127.21 132.012 127.226 130.419 128.312 128.167C132.623 119.248 137.698 110.763 142.676 102.222C146.713 95.2892 149.93 87.9464 153.533 80.7965C154.78 78.3275 153.734 76.8718 152.335 75.1024C147.349 68.7729 145.04 61.792 147.686 53.7896C149.118 49.4708 150.767 48.7148 154.893 50.5163C156.356 51.1517 157.78 51.9318 159.107 52.8084C161.721 54.5376 162.469 56.8297 160.876 59.6929C159.967 61.3255 159.043 62.9501 158.206 64.631C157.611 65.8293 156.943 67.2046 158.48 68.1697C159.758 68.974 160.756 68.1295 161.616 67.2046C162.428 66.3199 163.217 65.4111 164.021 64.5184C173.857 53.6288 183.862 42.8759 193.199 30.5547C194.904 37.8654 198.121 43.7766 201.025 49.8166C197.808 49.9855 194.719 48.6424 191.446 49.1732C176.511 51.5699 162.654 68.5879 163.008 83.6999C163.273 95.0399 176.712 107.691 190.392 100.774C195.524 98.1765 199.287 94.4447 202.038 89.5549C203.1 87.6729 204.555 87.4477 205.963 88.7265C207.451 90.0696 210.418 90.721 209.003 93.8818C204.724 103.46 203.542 112.758 211.528 121.226C212.148 121.886 212.493 122.811 212.96 123.615C208.89 128.055 204.628 132.261 199.601 135.671C191.848 140.931 183.966 141.381 175.843 136.732C170.97 133.95 166.168 131.054 161.327 128.207C160.635 127.805 159.967 127.355 159.244 127.017C158.23 126.543 157.161 126.269 156.38 127.403C155.472 128.722 156.614 129.398 157.426 129.969C163.176 134.086 168.758 138.494 175.417 141.164C177.235 141.896 180.001 142.491 178.892 145.008C177.774 147.526 178.819 152.078 173.801 151.844C171.581 151.74 170.712 153.075 170.761 155.158C165.654 155.801 160.651 154.547 155.6 154.249C154.917 154.064 154.233 153.871 153.558 153.686L153.574 153.678ZM205.681 93.4555C205.786 92.4743 205.529 91.9033 204.837 91.5977C204.161 91.3001 203.462 91.3805 203.035 91.9757C202.255 93.0534 201.483 94.1472 200.888 95.3214C198.789 99.4794 196.577 103.557 194.004 107.442C192.677 109.444 191.526 111.583 188.848 108.929C188.277 108.366 187.401 108.206 186.685 108.865C186.122 109.388 186.162 110.096 186.419 110.723C187.24 112.685 188.792 113.916 190.714 114.672C192.717 115.452 194.1 114.294 195.194 112.894C199.103 107.932 202.143 102.463 204.427 96.576C204.861 95.4581 205.319 94.3482 205.681 93.4555ZM171.267 106.782C169.562 106.854 169.337 108.085 169.554 109.323C170.399 114.173 172.57 118.395 175.956 121.966C176.833 122.891 177.967 123.422 179.133 122.425C180.194 121.516 179.615 120.446 179.117 119.513C177.114 115.749 175.063 112.01 173.029 108.254C172.634 107.53 172.184 106.879 171.267 106.782Z" fill="#FDFDFD"/>
    <path d="M212.984 123.607C212.509 122.803 212.172 121.878 211.552 121.218C203.558 112.749 204.748 103.452 209.027 93.8736C210.443 90.7129 207.467 90.0614 205.987 88.7183C204.579 87.4396 203.124 87.6647 202.062 89.5467C199.312 94.4366 195.548 98.1683 190.417 100.766C176.736 107.683 163.297 95.0317 163.032 83.6917C162.678 68.5798 176.535 51.5617 191.47 49.165C194.735 48.6423 197.832 49.9854 201.049 49.8084C203.486 51.9236 205.705 54.2158 207.402 56.9824C209.132 64.2609 209.091 71.4992 207.008 78.7295C205.995 82.2601 207.861 84.6488 210.7 86.3699C213.37 87.9864 214.633 85.5576 215.96 84.1099C223.817 75.5848 233.042 71.4912 244.704 74.7484C251.339 80.5953 252.288 88.2358 251.435 96.3829C250.334 106.943 245.838 115.958 237.9 122.899C231.594 128.408 224.123 127.861 216.692 125.111C215.445 124.652 214.223 124.114 212.992 123.607H212.984ZM241.366 81.6087C240.103 79.3407 237.924 79.3085 235.769 79.4613C222.193 80.4184 209.687 96.4713 212.308 109.766C212.984 113.184 214.327 116.473 218.364 117.438C221.228 121.484 226.093 122.055 231.401 118.974C241.39 113.168 248.114 96.5518 244.937 85.3967C244.414 83.555 243.634 81.85 241.358 81.6167L241.366 81.6087ZM182.519 96.3185C185.567 96.4794 188.269 95.0156 190.746 93.1337C200.381 85.7989 203.269 75.3838 202.963 64.0438C202.778 56.9181 197.317 53.5804 190.312 55.2211C179.101 57.8349 169.2 69.9309 168.919 81.3674C168.71 89.7236 174.669 96.3909 182.527 96.3266L182.519 96.3185Z" fill="#E52028"/>
    <path d="M244.695 74.7484C233.034 71.4912 223.801 75.5848 215.951 84.11C214.624 85.5496 213.361 87.9865 210.691 86.3699C207.852 84.6568 205.978 82.2602 207 78.7295C209.083 71.4992 209.123 64.269 207.394 56.9824C214.214 62.5237 222.007 66.0705 230.532 67.9525C235.261 68.99 240.111 68.9176 244.687 67.2045C247.381 66.1992 247.526 67.2849 246.915 69.2473C246.328 71.1293 245.451 72.9228 244.703 74.7565L244.695 74.7484Z" fill="#FDFDFD"/>
    <path d="M363.219 177.009C363.38 179.101 362.688 180.042 361.409 180.436C359.591 180.999 358.642 179.76 358.031 178.385C356.198 174.211 355.265 169.771 354.364 165.332C351.324 150.324 348.38 148.193 333.075 149.954C331.893 150.091 330.662 150.155 329.496 149.954C328.37 149.769 327.638 148.933 327.63 147.686C327.622 146.56 328.338 145.965 329.311 145.756C335.046 144.485 340.788 143.118 346.699 144.493C350.68 145.418 353.584 147.871 355.707 151.305C360.701 159.396 359.929 169.136 363.219 177.009Z" fill="#FDFDFD"/>
    <path d="M471.954 327.027C470.772 335.311 467.314 342.445 460.791 347.978C456.271 351.814 451.156 354.653 445.743 356.986C443.741 357.846 441.473 358.602 440.443 355.659C439.47 352.884 441.778 352.233 443.596 351.565C453.368 347.938 461.386 342.429 464.885 332.014C465.52 330.132 465.898 328.161 466.34 326.215C466.767 324.341 466.485 321.695 469.429 322.073C472.163 322.419 471.399 325.121 471.962 327.035L471.954 327.027Z" fill="#FDFDFD"/>
    <path d="M237.562 342.758C233.677 350.6 229.761 357.541 225.297 364.465C222.916 362.406 222.185 359.527 221.01 356.962C219.466 353.568 218.26 350.021 216.724 346.627C215.911 344.825 215.927 343.965 218.203 343.86C224.444 343.571 230.677 343.161 237.554 342.766L237.562 342.758Z" fill="#FDFDFD"/>
    <path d="M139.756 46.5351C138.357 46.2375 138.003 45.1518 138.357 43.8489C138.751 42.4414 139.258 41.042 139.909 39.7391C143.85 31.8253 149.568 25.3269 156.211 19.6006C157.345 18.6194 158.576 17.5256 160.04 18.9572C161.68 20.5737 160.546 21.8364 159.284 22.9865C152.415 29.2597 146.472 36.2567 142.193 44.5808C141.316 46.2777 140.737 46.5753 139.748 46.5271L139.756 46.5351Z" fill="#FDFDFD"/>
    <path d="M416.541 233.878C416.541 235.945 413.976 237.248 412.512 235.495C407.566 229.576 400.544 229.005 393.869 227.412C392.558 227.099 391.32 226.616 390.346 225.627C389.719 224.991 389.647 224.227 389.783 223.399C389.96 222.378 390.765 222.064 391.561 222.193C399.99 223.576 409.206 222.916 415.037 231.152C415.648 232.021 416.517 232.704 416.541 233.878Z" fill="#FDFDFD"/>
    <path d="M149.053 80.909C148.812 85.638 146.777 88.2438 143.922 88.1875C141.099 88.1312 138.952 85.3726 139.073 81.9385C139.201 78.4399 142.024 75.1345 144.871 75.4562C148.563 75.8663 148.925 78.7295 149.053 80.909Z" fill="#E52028"/>
    <path d="M459.722 303.318C462.81 303.205 469.397 309.639 469.542 312.856C469.598 314.055 469.14 314.947 468.174 315.543C467.008 316.258 465.85 316.073 464.869 315.173C462.327 312.832 459.81 310.468 457.301 308.095C456.408 307.251 456.408 306.157 456.818 305.135C457.317 303.881 458.531 303.567 459.722 303.318Z" fill="#FDFDFD"/>
    <path d="M361.883 190.505C361.714 187.642 362.68 185.856 364.899 186.17C368.543 186.685 367.956 190.336 368.736 192.765C369.347 194.671 367.65 195.829 365.953 195.725C362.326 195.507 362.696 192.178 361.891 190.505H361.883Z" fill="#FDFDFD"/>
    <path d="M171.299 13.8341C170.527 16.0619 168.678 17.2442 166.385 17.6543C164.89 17.9197 163.683 17.1155 163.804 15.4507C164.005 12.6599 166.225 11.7913 168.485 11.4696C169.771 11.2846 171.098 11.9522 171.299 13.8341Z" fill="#FDFDFD"/>
    <path d="M421.664 243.151C421.519 244.728 421.326 246.272 419.275 246.151C416.733 245.999 416.589 243.883 416.396 242.106C416.227 240.514 416.975 239.162 418.849 239.186C421.543 239.227 421.237 241.511 421.664 243.151Z" fill="#FDFDFD"/>
    <path d="M180.05 161.487C179.39 161.648 179.342 161.158 179.229 160.723C179.503 160.981 179.776 161.23 180.05 161.487Z" fill="#FDFDFD"/>
    <path d="M153.573 153.678C154.257 153.863 154.94 154.056 155.616 154.241C157.249 158.97 160.297 162.927 162.734 167.214C163.9 169.257 165.042 168.991 166.433 167.447C168.227 165.46 170.117 163.562 171.958 161.624C172.867 160.667 173.881 160.024 175.095 161.021C176.253 161.978 175.923 163.096 175.288 164.262C172.907 168.589 169.57 171.959 165.307 174.452C162.846 175.892 160.988 175.296 159.581 172.916C157.884 170.037 156.115 167.198 154.522 164.262C153.517 162.404 152.664 162.123 150.911 163.57C148.032 165.943 145.265 168.525 141.839 170.141C140.367 170.841 138.775 171.637 137.657 169.643C136.668 167.873 137.609 166.683 139 165.557C143.874 161.616 149.238 158.278 153.573 153.678Z" fill="#050505"/>
    <path d="M170.181 278.828C169.843 280.549 170.012 282.729 167.326 282.729C164.519 282.729 163.852 280.783 163.779 278.474C163.715 276.351 164.543 274.815 166.892 274.767C169.586 274.71 170.052 276.641 170.181 278.828Z" fill="#050505"/>
    <path d="M148.668 189.282C148.732 187.022 149.906 185.253 152.408 185.221C154.619 185.197 155.504 186.862 155.56 189.025C155.625 191.341 154.836 193.006 152.351 193.191C149.826 193.376 148.829 191.784 148.668 189.274V189.282Z" fill="#050505"/>
    <path d="M165.549 248.009C165.549 249.955 165.018 251.837 162.372 251.894C159.951 251.942 159.227 250.132 159.123 248.17C159.01 246.031 159.702 244.028 162.195 243.835C164.841 243.626 165.468 245.564 165.549 248.017V248.009Z" fill="#050505"/>
    <path d="M159.155 217.496C159.839 219.989 158.158 220.471 156.123 220.656C153.775 220.874 153.686 218.791 153.566 217.568C153.356 215.477 154.997 214.142 156.935 214.013C159.075 213.877 159.324 215.622 159.155 217.496Z" fill="#050505"/>
    <path d="M205.681 93.4554C205.32 94.3562 204.861 95.458 204.427 96.5759C202.143 102.463 199.103 107.932 195.194 112.894C194.092 114.294 192.709 115.452 190.714 114.672C188.792 113.916 187.24 112.685 186.42 110.723C186.154 110.095 186.122 109.388 186.685 108.865C187.401 108.205 188.277 108.366 188.848 108.929C191.527 111.583 192.669 109.436 194.004 107.441C196.585 103.557 198.797 99.4793 200.888 95.3213C201.483 94.139 202.263 93.0452 203.035 91.9756C203.47 91.3804 204.161 91.3 204.837 91.5976C205.529 91.9032 205.786 92.4742 205.681 93.4554Z" fill="#050505"/>
    <path d="M171.267 106.79C172.184 106.886 172.634 107.538 173.028 108.262C175.063 112.01 177.114 115.749 179.116 119.521C179.615 120.454 180.194 121.524 179.133 122.433C177.966 123.43 176.832 122.899 175.956 121.974C172.57 118.403 170.398 114.181 169.554 109.331C169.337 108.093 169.554 106.862 171.267 106.798V106.79Z" fill="#050505"/>
    <path d="M182.519 96.3185C174.661 96.3748 168.702 89.7075 168.911 81.3594C169.2 69.9309 179.101 57.8269 190.304 55.213C197.309 53.5804 202.77 56.91 202.955 64.0357C203.252 75.3757 200.373 85.7908 190.738 93.1256C188.269 95.0076 185.567 96.4713 182.511 96.3105L182.519 96.3185ZM184.304 72.8745C186.862 72.5126 189.218 71.9737 190.883 70.0113C191.832 68.8854 192.894 67.6066 191.559 66.1348C190.433 64.8882 189.21 65.4834 187.955 66.175C186.564 66.9391 185.108 67.6549 183.604 68.1294C182.06 68.62 179.583 68.0892 180.114 70.7593C180.532 72.8343 182.784 72.5608 184.304 72.8825V72.8745ZM191.052 85.5495C190.979 83.6515 190.545 81.5283 188.615 81.4639C185.744 81.3674 185.173 83.9169 185.092 86.2412C185.028 88.0588 184.119 90.8094 187.087 90.9541C190.642 91.123 189.926 87.4797 191.06 85.5495H191.052Z" fill="#FDFDFD"/>
    <path d="M218.365 117.43C214.335 116.465 212.984 113.176 212.308 109.758C209.695 96.4634 222.193 80.4185 235.769 79.4534C237.924 79.3006 240.095 79.3327 241.358 81.6007C234.675 94.1712 227.042 106.139 218.356 117.422L218.365 117.43ZM215.051 109.155C215.807 110.642 214.424 113.763 217.665 113.803C220.512 113.835 220.649 111.077 220.689 109.066C220.729 107.216 220.785 104.578 218.083 104.514C215.461 104.45 215.349 106.887 215.051 109.163V109.155Z" fill="#FDFDFD"/>
    <path d="M218.364 117.43C227.05 106.147 234.674 94.1793 241.366 81.6088C243.642 81.842 244.422 83.547 244.945 85.3888C248.113 96.5438 241.398 113.16 231.409 118.966C226.101 122.055 221.235 121.476 218.372 117.43H218.364Z" fill="#050505"/>
    <path d="M184.296 72.8745C182.784 72.5528 180.524 72.8262 180.106 70.7512C179.575 68.0811 182.052 68.6119 183.597 68.1213C185.109 67.6468 186.556 66.931 187.948 66.167C189.202 65.4753 190.425 64.8802 191.551 66.1268C192.886 67.5986 191.824 68.8854 190.875 70.0033C189.21 71.9657 186.854 72.5045 184.296 72.8664V72.8745Z" fill="#050505"/>
    <path d="M191.044 85.5496C189.91 87.4798 190.626 91.1231 187.071 90.9542C184.103 90.8094 185.02 88.0588 185.076 86.2412C185.157 83.925 185.728 81.3674 188.599 81.464C190.529 81.5283 190.964 83.6515 191.036 85.5496H191.044Z" fill="#050505"/>
    <path d="M215.051 109.154C215.349 106.878 215.461 104.45 218.083 104.506C220.785 104.57 220.729 107.208 220.689 109.058C220.649 111.077 220.512 113.835 217.665 113.795C214.424 113.755 215.807 110.634 215.051 109.146V109.154Z" fill="#050505"/>
</svg>
