<svg width="378" height="202" viewBox="0 0 378 202" fill="none" xmlns="http://www.w3.org/2000/svg">
    <path d="M264.377 99.3488C268.191 100.492 270.056 103.488 270.441 107.032C271.055 112.669 271.055 118.367 271.314 124.148C269.262 124.034 267.788 123.956 266.657 123.896C274.027 144.056 281.403 164.217 288.815 184.486C298.442 183.157 307.484 179.583 316.503 175.702C326.737 171.298 337.085 170.793 346.976 177.038C347.92 177.634 348.666 178.548 349.358 179.926C336.236 172.195 323.5 173.717 311.058 180.588C313.019 187.296 314.993 194.034 316.972 200.779L315.642 201.591C315.504 201.158 315.366 200.725 315.215 200.291C313.392 194.889 311.353 189.546 309.831 184.053C309.145 181.58 308.26 181.743 306.305 182.351C299.458 184.48 292.558 186.418 285.789 188.397C281.421 176.16 277.246 164.313 272.956 152.515C269.918 144.159 266.874 135.796 263.541 127.547C260.484 119.985 254.107 116.183 246.707 113.77C245.022 113.223 243.362 112.621 241.689 112.043C241.671 111.718 241.647 111.388 241.629 111.063C242.706 110.876 243.831 110.389 244.86 110.545C251.015 111.484 256.393 114.119 261.23 118.048C263.306 119.732 265.761 120.954 268.396 122.085C269.052 116.074 269.587 110.335 267.06 105.094C266.236 103.386 263.884 102.116 261.946 101.31C259.48 100.281 256.76 99.782 254.101 99.3548C253.205 99.2104 252.037 99.8 251.195 100.36C245.937 103.819 240.715 107.326 235.547 110.912C234.548 111.604 233.519 112.549 233.002 113.62C224.055 132.21 215.217 150.855 206.295 169.457C202.186 178.019 197.956 186.526 193.51 195.605C191.368 191.165 189.317 187.176 187.494 183.085C180.298 166.913 173.121 150.729 166.052 134.496C163.579 128.817 161.437 122.987 159.151 117.223C158.621 115.882 158.609 114.931 159.764 113.535C171.051 99.8963 182.35 86.2511 193.239 72.2932C198.041 66.1384 201.356 58.9729 203.6 51.4164C206.836 40.5087 204.556 33.4034 194.713 27.6457C188.029 23.7411 180.78 20.6367 173.482 17.9955C162.809 14.133 151.865 11.0045 140.939 7.53301C141.541 5.64989 142.69 4.93996 144.922 5.65591C155.216 8.95288 165.648 11.8588 175.828 15.4686C184.48 18.5369 192.981 22.0866 200.236 28.0609C206.572 33.277 208.497 39.877 207.023 47.6562C205.098 57.7877 200.844 67.0228 194.479 74.9885C186.122 85.4329 177.08 95.3359 168.332 105.467C167.351 106.605 166.37 107.748 165.342 108.837C160.751 113.716 160.655 113.752 163.398 120.015C170.341 135.868 177.416 151.667 184.359 167.52C186.886 173.296 189.19 179.174 191.603 185.004C191.94 185.816 192.307 186.61 193.48 187.645C204.923 163.11 216.372 138.581 227.749 114.197C224.049 114.197 220.5 114.215 216.95 114.197C207.582 114.131 200.026 110.389 195.748 101.996C191.483 93.6272 193.528 85.3667 198.402 77.7861C204.207 68.7616 212.293 61.7946 220.006 54.5088C226.444 48.4263 231.798 41.4894 236.407 33.9388C241.25 26.0033 247.736 19.7402 256.062 15.5288C257.988 14.5541 258.806 13.4411 258.818 11.1669C258.83 7.26829 259.841 3.56221 263.408 1.22786C267.325 -1.33511 272.162 0.25321 274.087 4.6993C274.521 5.70404 274.773 6.793 275.092 7.84586C275.507 9.20556 275.555 11.4256 276.386 11.7746C278.696 12.7372 281.343 13.417 283.828 13.3208C289.237 13.1222 294.591 12.4243 299.801 14.6744C305.222 17.0148 308.772 20.763 309.018 26.8455C309.259 32.892 306.293 37.296 301.311 40.5508C300.463 41.1043 299.567 42.2053 299.452 43.1439C298.875 47.8005 298.893 52.5475 298.039 57.1379C297.389 60.6274 298.73 63.395 299.777 66.3851C301.69 71.86 301.137 72.7564 295.584 73.9597C294.754 74.1402 293.947 75.157 293.442 75.9752C291.475 79.2 289.874 82.6654 287.696 85.7337C284.766 89.8549 280.495 91.2026 275.537 90.3603C275.441 90.3423 275.345 90.2941 275.249 90.2761C268.745 89.2112 268.787 89.2232 266.507 95.3178C265.965 96.7677 265.057 98.0733 264.323 99.439C264.918 96.4068 265.418 93.3565 266.134 90.3663C266.741 87.8335 268.173 86.8046 271.025 87.5868C274.599 88.5674 278.503 89.3796 281.83 87.2138C284.243 85.6435 286.379 83.4054 288.033 81.041C288.683 80.1144 287.642 78.0328 287.444 76.4625C287.378 75.9391 287.558 75.3856 287.684 74.3929C288.749 75.3495 289.483 76.0113 290.332 76.7814C293.791 69.4534 295.072 61.7465 296.059 54.0215C296.288 52.2466 295.367 49.822 294.11 48.5526C293.388 47.8246 290.933 48.8173 289.255 49.0159C289.092 49.0339 288.918 48.9015 288.743 48.8354C289.718 45.4782 291.661 44.7442 296.468 45.9355C297.72 39.131 293.496 28.0729 288.569 25.7626C288.569 26.4364 288.515 27.008 288.575 27.5615C289.459 35.5873 288.791 43.3484 284.989 50.6583C284.676 51.26 284.905 52.2105 285.043 52.9686C286.511 61.0005 283.076 67.2996 275.531 70.5966C274.569 71.0177 273.696 71.9743 273.113 72.8948C270.598 76.8596 268.456 81.0891 265.695 84.8614C262.674 88.9886 259.119 92.7187 255.834 96.5812C258.746 97.5318 261.561 98.4463 264.383 99.3668L264.377 99.3488ZM270.592 45.1233C267.247 45.0631 264.178 45.7069 261.375 47.7885C258.102 50.2191 256.038 55.1165 256.869 59.4482C257.783 64.2252 261.212 68.19 265.388 68.93C270.814 69.8926 275.796 68.7495 279.797 64.8088C283.196 61.4637 284.454 57.3184 282.889 52.728C281.433 48.4383 277.848 46.6574 272.884 45.3459C273.359 48.9136 273.221 52.0782 274.304 54.7374C275.237 57.0297 275.104 58.4976 273.564 60.092C272.084 61.6262 270.345 61.2892 268.949 60.1882C267.325 58.9128 267.451 57.168 268.227 55.2909C268.961 53.5161 269.407 51.6029 269.828 49.7138C270.171 48.1796 270.285 46.5913 270.496 45.021C271.446 44.9307 272.403 44.8345 273.402 44.7382C273.859 40.0695 274.497 35.6234 274.683 31.1472C274.93 25.2753 274.882 19.3913 274.809 13.5133C274.803 12.8154 273.847 12.1295 273.335 11.4376C272.836 12.1115 271.934 12.7733 271.897 13.4712C271.398 24.0179 271.007 34.5706 270.592 45.1172V45.1233ZM271.946 11.1669C271.061 8.92881 270.586 6.65462 269.377 4.89183C267.596 2.30479 264.413 2.79212 263.36 5.75217C262.59 7.90603 262.392 10.2584 261.886 12.7733C265.406 12.2137 268.324 11.7505 271.946 11.1729V11.1669ZM294.946 72.1187C299.128 71.2824 299.489 69.5678 296.739 65.1337C296.143 67.468 295.596 69.5978 294.946 72.1187Z" fill="black"/>
    <path d="M22.2425 198.553H53.6239C53.8104 197.945 53.8886 197.103 54.2977 196.483C57.8835 191.038 56.1748 186.237 52.8117 181.43C51.0549 178.915 49.9779 175.931 48.2091 173.428C45.6161 169.764 41.7837 168.79 37.5361 169.74C34.8107 170.354 32.1575 171.311 29.4742 172.123C28.5838 172.393 27.6994 172.676 26.8089 172.959C26.6164 172.694 26.4299 172.424 26.2374 172.159C26.8751 171.503 27.4106 170.444 28.1746 170.246C32.4041 169.151 36.6457 167.869 40.9654 167.418C45.8808 166.901 49.2199 170.029 51.6685 173.916C54.1052 177.784 56.259 181.833 58.7197 186.123C61.385 182.657 64.4112 182.904 67.8165 183.963C80.1139 187.783 92.4595 191.447 105.419 195.364C105.93 193.012 106.61 191.267 106.634 189.51C106.821 177.381 106.538 165.234 107.091 153.129C107.386 146.698 108.638 140.224 110.208 133.961C111.989 126.862 117.47 123.288 124.316 121.531C127.794 120.641 131.217 119.534 134.815 118.481C134.261 114.733 133.882 111.063 133.082 107.495C132.847 106.448 131.578 105.395 130.525 104.806C121.182 99.5653 116.405 91.5516 115.761 80.9507C115.713 80.1626 115.514 79.3804 115.382 78.6103C110.454 78.6825 109.101 76.7212 110.647 71.872C111.977 67.6906 112.097 62.6188 111.104 58.5157C110.286 55.1345 109.612 51.7232 108.86 48.2518C116.158 46.5852 123.101 44.8284 130.128 43.4748C132.908 42.9393 134.141 41.8985 134.033 39.0347C133.972 37.4765 134.472 35.9002 134.785 33.9388C131.975 35.7377 129.484 37.2719 127.072 38.9204C126.584 39.2513 126.284 39.9732 126.067 40.5749C125.189 42.9935 122.295 45.0872 119.882 44.9789C119.684 44.9668 119.401 45.015 119.299 44.9067C116.104 41.3991 110.334 41.0502 108.638 35.5332C106.772 29.4446 106.857 23.6629 109.823 18.0737C114.876 8.5257 124.954 4.97604 135.2 8.87465C136.957 9.54246 138.858 9.8493 141.216 10.463C140.35 16.3771 139.231 22.983 138.437 29.6251C136.427 46.3386 134.947 63.1122 135.501 79.958C135.916 92.6586 137.029 105.329 137.63 118.024C137.679 119.07 136.397 120.755 135.344 121.176C130.982 122.915 126.488 124.329 122.006 125.767C116.904 127.403 113.836 130.893 113.096 136.085C112.013 143.707 110.954 151.36 110.503 159.031C109.817 170.619 109.66 182.236 109.287 193.836C109.257 194.804 109.287 195.773 109.287 197.379C106.448 197.043 103.56 197.024 100.846 196.321C89.2408 193.324 77.6653 190.208 66.1259 186.953C63.3463 186.171 61.6136 186.941 60.5487 189.372C59.0326 192.849 57.7932 196.447 56.1989 199.888C55.7777 200.797 54.4962 201.886 53.5998 201.898C42.3853 202.036 31.1648 201.976 19.9443 202C18.1032 202 16.6894 201.729 17.3572 199.202C18.3619 198.938 19.4028 198.667 20.6542 198.342C18.8192 187.976 17.0023 177.658 15.1733 167.34C12.2253 150.698 9.29529 134.057 6.26304 117.434C5.95019 115.731 6.42548 112.807 2.65322 113.788C7.24972 142.522 11.8342 171.184 16.4187 199.84C16.1118 199.966 15.799 200.093 15.4921 200.225C15.0529 199.497 14.337 198.817 14.2107 198.041C11.3409 180.768 8.54926 163.477 5.72156 146.198C3.88056 134.936 2.00345 123.685 0.156426 112.422C0.0240654 111.61 0.0240655 110.774 0 110.515C4.9996 110.515 9.6322 110.503 14.2588 110.515C29.1974 110.557 44.13 110.611 59.0687 110.654C60.0674 110.654 61.0781 110.654 62.0708 110.551C64.0984 110.347 65.9454 110.154 64.3992 113.18C64.1284 113.71 64.4172 114.552 64.5195 115.238C66.523 128.287 68.5445 141.331 70.5419 154.38C70.6863 155.331 70.6742 156.3 70.205 157.347C66.4748 143.058 65.085 128.33 62.1912 113.674H7.78518C12.6223 142.077 17.4174 170.258 22.2425 198.583V198.553ZM115.165 63.8943C117.018 61.7766 118.318 60.2905 119.617 58.7985C119.864 58.985 120.111 59.1775 120.357 59.364C119.702 60.3988 119.01 61.4156 118.39 62.4745C117.776 63.5213 115.647 64.4177 117.59 65.8376C119.268 67.0649 121.23 67.101 122.68 65.26C123.293 64.4899 123.606 63.4792 124.274 62.1556C125.11 65.1096 123.889 66.7882 122.102 67.9674C119.617 69.6099 117.157 69.2007 114.624 66.6318C113.577 69.1406 112.56 71.2824 111.796 73.5085C111.291 74.9765 112.031 76.5527 113.595 76.1316C117.097 75.181 117.145 77.4492 117.53 79.6572C117.656 80.3792 117.897 81.0831 118.131 81.9735C119.401 80.9267 120.418 80.0844 121.428 79.2481C121.639 79.4165 121.855 79.591 122.066 79.7595C121.374 80.8845 120.622 81.9795 120.014 83.1467C119.485 84.1635 118.552 85.4088 118.769 86.3173C120.568 93.8498 125.664 98.717 132.336 102.844V46.116C125.628 47.5659 118.625 49.088 111.08 50.7185C112.446 55.1345 113.715 59.2497 115.153 63.8883L115.165 63.8943Z" fill="black"/>
    <path d="M375.241 114.263C370.759 115.665 370.795 119.492 370.32 123.168C367.642 143.894 364.845 164.608 362.215 185.341C361.632 189.949 361.686 194.642 361.145 199.257C361.048 200.069 359.496 201.266 358.552 201.332C353.967 201.657 349.359 201.741 344.762 201.759C337.759 201.789 330.75 201.753 323.753 201.585C322.832 201.561 321.93 200.616 321.021 200.099C321.894 199.401 322.754 198.113 323.645 198.095C331.153 197.897 338.667 197.921 346.176 197.903C349.377 197.897 352.589 197.831 355.784 198.023C357.547 198.126 358.076 197.343 358.287 195.845C360.278 181.893 362.324 167.947 364.279 153.989C365.904 142.396 367.426 130.79 368.99 119.191C369.134 118.12 369.243 117.043 369.429 115.461C363.846 115.461 358.588 115.461 353.323 115.461C341.429 115.467 329.535 115.539 317.64 115.425C315.468 115.4 314.764 116.002 314.373 118.144C311.155 135.561 307.785 152.949 304.452 170.342C304.236 171.485 303.893 172.598 303.604 173.729C303.357 173.717 303.111 173.705 302.87 173.693C302.81 173.007 302.599 172.297 302.714 171.641C306.005 153.135 309.362 134.641 312.617 116.134C313.104 113.379 314.873 112.856 317.135 112.856C328.343 112.838 339.558 112.874 350.766 112.831C357.372 112.807 363.972 112.603 370.578 112.663C372.185 112.681 374.363 111.911 375.187 114.366L375.247 114.275L375.241 114.263Z" fill="black"/>
    <path d="M375.187 114.348C375.596 113.788 376.011 113.229 376.42 112.669C376.763 112.777 377.112 112.892 377.455 113C373.737 141.915 370.013 170.823 366.282 199.816C364.056 199.058 363.93 198.992 364.243 196.591C365.109 189.949 366.066 183.313 366.968 176.677C369.062 161.323 371.162 145.97 373.219 130.61C373.947 125.165 374.573 119.702 375.241 114.251L375.181 114.342L375.187 114.348Z" fill="black"/>
    <path d="M99.6973 180.756C96.5387 179.842 93.6027 178.993 90.4802 178.091C89.9207 180.678 89.295 183.578 88.6633 186.478C88.3263 186.448 87.9954 186.418 87.6585 186.387C86.7982 181.213 89.3612 175.823 85.0474 170.709C81.4496 166.443 79.6387 160.806 72.2927 161.125C78.3151 159.2 81.5579 159.909 83.7238 164.747C86.6959 171.389 91.7136 175.486 97.9465 178.548C98.5542 178.849 99.0836 179.306 99.6371 179.709C99.6852 179.745 99.6552 179.896 99.6973 180.756Z" fill="black"/>
    <path d="M50.5617 10.5472C48.3055 9.14543 46.266 7.87598 44.437 6.73888C46.4284 3.21329 47.5294 4.93397 48.5582 5.99285C49.593 7.05775 50.5015 8.24899 51.3799 9.28982C54.2016 7.13596 56.5841 5.30699 58.9966 3.52013C59.0508 3.47801 59.4117 3.86306 59.9592 4.3203C57.8836 6.49823 55.8561 8.61599 53.6661 10.9142C55.6455 13.0019 57.5467 14.9994 59.52 17.081C58.8462 18.8137 57.8956 19.1085 56.6202 17.5864C55.2123 15.9018 53.8586 14.1691 51.783 11.6001C49.8517 14.0367 48.6846 15.6551 47.3369 17.1051C46.988 17.4781 46.0674 17.3277 45.4117 17.4179C45.5079 16.8163 45.4117 16.0462 45.7426 15.6491C46.9579 14.2052 48.3236 12.8816 50.5557 10.5472H50.5617Z" fill="black"/>
    <path d="M318.952 188.848C318.158 191.411 321.635 193.673 319.108 196.621C316.672 191.056 314.409 185.882 312.147 180.708C312.34 180.534 312.538 180.359 312.731 180.185C313.435 180.804 314.518 181.298 314.776 182.068C317.057 188.83 323.019 188.541 328.415 189.384C332.934 190.088 337.482 190.647 341.946 191.616C343.679 191.989 345.207 193.306 347.205 194.401C337.416 192.476 328.175 190.665 318.958 188.854L318.952 188.848Z" fill="black"/>
    <path d="M352.463 56.4461H359.971V47.987C360.32 47.9509 360.675 47.9148 361.024 47.8848C363.058 50.1951 361.102 53.3536 362.348 56.2114H369.832C369.591 57.4949 368.597 58.1467 366.848 58.1667C365.362 58.1788 363.876 58.1667 362.444 58.1667C360.91 61.1087 363.298 64.6704 360.134 67.1371V58.1968C358.413 58.1968 357.071 58.269 355.736 58.1728C354.587 58.0945 353.45 57.8298 352.306 57.6493C352.361 57.2462 352.415 56.8431 352.469 56.4461H352.463Z" fill="black"/>
    <path d="M26.1955 190.503C30.6355 188.692 35.0094 186.67 39.5578 185.19C40.9657 184.733 43.3722 185.214 44.4251 186.219C47.4573 189.101 50.0323 192.47 52.6735 195.52C51.3499 195.96 48.8712 195.376 46.9158 193.469C45.5922 192.175 44.419 190.593 43.6309 188.926C42.6141 186.767 41.2244 186.087 39.1006 186.935C36.333 188.048 33.6377 189.348 30.8461 190.4C29.4323 190.936 27.8801 191.098 26.394 191.429C26.3278 191.116 26.2556 190.81 26.1895 190.497L26.1955 190.503Z" fill="black"/>
    <path d="M69.0617 181.532C69.6694 180.859 70.1748 180.046 70.8967 179.547C72.9182 178.157 72.5031 176.785 71.005 175.396C68.0149 172.628 64.7119 171.653 60.8795 173.669C60.0251 174.114 59.0806 174.385 58.1781 174.734L57.5645 173.904C58.9663 172.971 60.2778 171.858 61.7759 171.13C66.6973 168.73 72.7618 171.533 74.2177 176.767C74.9036 179.24 73.0205 181.388 69.0617 181.532Z" fill="black"/>
    <path d="M334.636 177.17C338.83 178.44 343.065 179.577 347.162 181.105C347.83 181.352 347.848 183.337 348.336 185.148C343.27 182.892 338.661 180.84 334.053 178.789L334.642 177.17H334.636Z" fill="black"/>
    <path d="M62.065 167.586C64.6761 167.117 67.3233 166.136 69.8863 166.341C71.8657 166.497 73.7247 168.128 75.4575 169.812C69.2305 167.237 63.4909 167.929 57.9859 171.527C57.8476 171.226 57.7092 170.931 57.5708 170.631L62.059 167.58H62.065V167.586Z" fill="black"/>
    <path d="M62.0591 167.58C62.2757 166.804 62.2516 165.781 62.7449 165.294C65.6087 162.497 73.3338 161.949 76.4562 164.344C77.118 164.855 77.3346 165.95 77.3647 167.057C72.5576 163.567 67.7987 164.951 63.0698 166.287C62.6487 166.407 62.396 167.135 62.0651 167.58L62.0591 167.574V167.58Z" fill="black"/>
    <path d="M38.9075 178.596C33.8598 181.448 29.4979 183.921 25.0037 186.46C25.9603 182.946 33.7996 178.302 38.9075 178.596Z" fill="black"/>
    <path d="M24.8657 188.559C29.1554 184.637 34.3475 182.573 40.2736 181.984C35.2981 184.468 30.3165 186.953 25.341 189.438C25.1846 189.143 25.0221 188.854 24.8657 188.559Z" fill="black"/>
    <path d="M37.512 175.365C32.9937 178.115 28.4814 180.87 23.9631 183.62C27.0977 178.62 31.7543 176.063 37.512 175.365Z" fill="black"/>
    <path d="M335.78 183.049C339.335 182.098 347.355 185.768 348.973 189.059C344.816 187.164 340.653 185.269 335.78 183.049Z" fill="black"/>
    <path d="M350.068 193.523C346.043 191.55 342.024 189.582 337.903 187.561C339.858 186.087 346.723 189.209 350.068 193.523Z" fill="black"/>
    <path d="M264.377 99.3488C261.561 98.4344 258.746 97.5139 255.828 96.5633C259.113 92.7008 262.674 88.9706 265.688 84.8434C268.45 81.0651 270.586 76.8356 273.107 72.8768C273.69 71.9563 274.563 70.9997 275.525 70.5786C283.064 67.2816 286.505 60.9885 285.037 52.9506C284.899 52.1926 284.67 51.242 284.983 50.6404C288.785 43.3305 289.453 35.5633 288.569 27.5435C288.509 26.99 288.563 26.4185 288.563 25.7446C293.49 28.0549 297.708 39.113 296.462 45.9175C291.655 44.7263 289.712 45.4603 288.737 48.8174C288.906 48.8836 289.086 49.0159 289.249 48.9979C290.927 48.7993 293.382 47.8006 294.104 48.5346C295.361 49.8041 296.282 52.2287 296.053 54.0035C295.066 61.7225 293.785 69.4295 290.325 76.7634C289.477 75.9993 288.743 75.3375 287.678 74.3749C287.552 75.3676 287.371 75.9211 287.438 76.4445C287.63 78.0088 288.677 80.0905 288.027 81.023C286.373 83.3874 284.237 85.6315 281.824 87.1958C278.497 89.3617 274.593 88.5495 271.019 87.5688C268.167 86.7867 266.735 87.8155 266.128 90.3484C265.412 93.3445 264.912 96.3888 264.317 99.4211C264.317 99.4271 264.377 99.3428 264.377 99.3428V99.3488ZM291.595 61.2833C294.555 59.4182 295.548 56.5905 294.248 54.1539C291.264 55.5918 290.319 57.9683 291.595 61.2833Z" fill="white"/>
    <path d="M270.496 45.021C270.279 46.5853 270.165 48.1736 269.828 49.7078C269.407 51.5969 268.962 53.5041 268.228 55.285C267.451 57.1621 267.331 58.9068 268.95 60.1823C270.351 61.2833 272.084 61.6202 273.564 60.086C275.104 58.4917 275.243 57.0237 274.304 54.7314C273.215 52.0722 273.36 48.9076 272.884 45.3399C277.848 46.6515 281.427 48.4323 282.889 52.722C284.454 57.3125 283.19 61.4638 279.797 64.8028C275.79 68.7436 270.815 69.8867 265.388 68.9241C261.212 68.184 257.783 64.2253 256.869 59.4423C256.038 55.1045 258.108 50.2071 261.375 47.7825C264.179 45.7009 267.247 45.0511 270.592 45.1173L270.496 45.015V45.021Z" fill="#E52028"/>
    <path d="M270.598 45.1232C271.013 34.5705 271.398 24.0238 271.904 13.4771C271.94 12.7792 272.842 12.1235 273.342 11.4436C273.859 12.1355 274.81 12.8214 274.816 13.5192C274.888 19.3972 274.936 25.2812 274.689 31.1532C274.497 35.6234 273.865 40.0755 273.408 44.7442C272.409 44.8405 271.459 44.9307 270.502 45.027L270.598 45.1292V45.1232Z" fill="#E52028"/>
    <path d="M271.952 11.167C268.33 11.7445 265.412 12.2078 261.892 12.7673C262.398 10.2585 262.602 7.90007 263.366 5.74621C264.419 2.78616 267.602 2.29884 269.383 4.88587C270.598 6.64867 271.073 8.92285 271.952 11.1609V11.167Z" fill="white"/>
    <path d="M294.952 72.1187C295.596 69.6038 296.144 67.468 296.745 65.1337C299.495 69.5677 299.14 71.2764 294.952 72.1187Z" fill="white"/>
    <path d="M115.166 63.8943C113.734 59.2557 112.458 55.1405 111.093 50.7245C118.637 49.088 125.64 47.5719 132.348 46.1219V102.85C125.676 98.723 120.58 93.8558 118.781 86.3233C118.565 85.4148 119.497 84.1755 120.027 83.1527C120.634 81.9855 121.387 80.8905 122.078 79.7655C121.868 79.597 121.651 79.4225 121.441 79.2541C120.424 80.0904 119.413 80.9326 118.144 81.9795C117.909 81.0891 117.668 80.3851 117.542 79.6632C117.157 77.4552 117.109 75.187 113.607 76.1376C112.043 76.5648 111.309 74.9885 111.808 73.5145C112.573 71.2884 113.589 69.1466 114.636 66.6378C117.169 69.2007 119.63 69.6159 122.115 67.9734C123.895 66.7942 125.117 65.1156 124.286 62.1616C123.625 63.4852 123.306 64.4899 122.692 65.266C121.242 67.101 119.275 67.0649 117.602 65.8436C115.659 64.4237 117.789 63.5213 118.402 62.4804C119.022 61.4216 119.708 60.4048 120.37 59.37C120.123 59.1835 119.876 58.991 119.63 58.8044C118.33 60.2905 117.025 61.7826 115.178 63.9003L115.166 63.8943ZM124.323 61.2591C127.848 58.63 126.627 56.9755 122.692 54.3283C123.306 56.9394 123.757 58.8405 124.323 61.2591Z" fill="white"/>
    <path d="M291.601 61.2893C290.325 57.9743 291.27 55.5978 294.254 54.1599C295.554 56.5965 294.555 59.4242 291.601 61.2893Z" fill="black"/>
    <path d="M124.322 61.2591C123.751 58.8405 123.305 56.9393 122.692 54.3282C126.626 56.9754 127.848 58.6299 124.322 61.2591Z" fill="black"/>
</svg>
